<?xml version="1.0" encoding="utf-8" standalone="no"?>
<!DOCTYPE svg PUBLIC "-//W3C//DTD SVG 1.1//EN"
  "http://www.w3.org/Graphics/SVG/1.1/DTD/svg11.dtd">
<svg xmlns:xlink="http://www.w3.org/1999/xlink" width="360pt" height="504pt" viewBox="0 0 360 504" xmlns="http://www.w3.org/2000/svg" version="1.1">
 <metadata>
  <rdf:RDF xmlns:dc="http://purl.org/dc/elements/1.1/" xmlns:cc="http://creativecommons.org/ns#" xmlns:rdf="http://www.w3.org/1999/02/22-rdf-syntax-ns#">
   <cc:Work>
    <dc:type rdf:resource="http://purl.org/dc/dcmitype/StillImage"/>
    <dc:date>2023-08-18T13:58:30.544496</dc:date>
    <dc:format>image/svg+xml</dc:format>
    <dc:creator>
     <cc:Agent>
      <dc:title>Matplotlib v3.7.1, https://matplotlib.org/</dc:title>
     </cc:Agent>
    </dc:creator>
   </cc:Work>
  </rdf:RDF>
 </metadata>
 <defs>
  <style type="text/css">*{stroke-linejoin: round; stroke-linecap: butt}</style>
 </defs>
 <g id="figure_1">
  <g id="patch_1">
   <path d="M 0 504 
L 360 504 
L 360 0 
L 0 0 
z
" style="fill: #ffffff"/>
  </g>
  <g id="axes_1">
   <g id="patch_2">
    <path d="M 73.458 444.132 
L 343.152 444.132 
L 343.152 16.848 
L 73.458 16.848 
z
" style="fill: #ffffff"/>
   </g>
   <g id="PathCollection_1">
    <defs>
     <path id="C0_0_188630a64a" d="M 0 1.5 
C 0.397805 1.5 0.77937 1.341951 1.06066 1.06066 
C 1.341951 0.77937 1.5 0.397805 1.5 -0 
C 1.5 -0.397805 1.341951 -0.77937 1.06066 -1.06066 
C 0.77937 -1.341951 0.397805 -1.5 0 -1.5 
C -0.397805 -1.5 -0.77937 -1.341951 -1.06066 -1.06066 
C -1.341951 -0.77937 -1.5 -0.397805 -1.5 0 
C -1.5 0.397805 -1.341951 0.77937 -1.06066 1.06066 
C -0.77937 1.341951 -0.397805 1.5 0 1.5 
z
"/>
    </defs>
    <g clip-path="url(#pf6a79c3766)">
     <use xlink:href="#C0_0_188630a64a" x="146.693073" y="101.01" style="fill: #3d8af9"/>
    </g>
    <g clip-path="url(#pf6a79c3766)">
     <use xlink:href="#C0_0_188630a64a" x="136.140376" y="122.59" style="fill: #3d8af9"/>
    </g>
    <g clip-path="url(#pf6a79c3766)">
     <use xlink:href="#C0_0_188630a64a" x="141.105478" y="167.908" style="fill: #3d8af9"/>
    </g>
    <g clip-path="url(#pf6a79c3766)">
     <use xlink:href="#C0_0_188630a64a" x="154.059939" y="104.606667" style="fill: #3d8af9"/>
    </g>
    <g clip-path="url(#pf6a79c3766)">
     <use xlink:href="#C0_0_188630a64a" x="145.187895" y="162.153333" style="fill: #3d8af9"/>
    </g>
    <g clip-path="url(#pf6a79c3766)">
     <use xlink:href="#C0_0_188630a64a" x="149.66843" y="194.523333" style="fill: #3d8af9"/>
    </g>
    <g clip-path="url(#pf6a79c3766)">
     <use xlink:href="#C0_0_188630a64a" x="137.084855" y="180.136667" style="fill: #3d8af9"/>
    </g>
    <g clip-path="url(#pf6a79c3766)">
     <use xlink:href="#C0_0_188630a64a" x="143.300997" y="230.49" style="fill: #3d8af9"/>
    </g>
    <g clip-path="url(#pf6a79c3766)">
     <use xlink:href="#C0_0_188630a64a" x="155.073997" y="288.036667" style="fill: #3d8af9"/>
    </g>
    <g clip-path="url(#pf6a79c3766)">
     <use xlink:href="#C0_0_188630a64a" x="148.477899" y="352.776667" style="fill: #3d8af9"/>
    </g>
    <g clip-path="url(#pf6a79c3766)">
     <use xlink:href="#C0_0_188630a64a" x="141.669066" y="165.75" style="fill: #3d8af9"/>
    </g>
    <g clip-path="url(#pf6a79c3766)">
     <use xlink:href="#C0_0_188630a64a" x="140.3819" y="86.623333" style="fill: #3d8af9"/>
    </g>
    <g clip-path="url(#pf6a79c3766)">
     <use xlink:href="#C0_0_188630a64a" x="150.838707" y="136.976667" style="fill: #3d8af9"/>
    </g>
    <g clip-path="url(#pf6a79c3766)">
     <use xlink:href="#C0_0_188630a64a" x="142.513523" y="122.59" style="fill: #3d8af9"/>
    </g>
    <g clip-path="url(#pf6a79c3766)">
     <use xlink:href="#C0_0_188630a64a" x="135.177043" y="187.33" style="fill: #3d8af9"/>
    </g>
    <g clip-path="url(#pf6a79c3766)">
     <use xlink:href="#C0_0_188630a64a" x="134.894898" y="93.816667" style="fill: #3d8af9"/>
    </g>
    <g clip-path="url(#pf6a79c3766)">
     <use xlink:href="#C0_0_188630a64a" x="133.158217" y="122.59" style="fill: #3d8af9"/>
    </g>
    <g clip-path="url(#pf6a79c3766)">
     <use xlink:href="#C0_0_188630a64a" x="157.250986" y="316.81" style="fill: #3d8af9"/>
    </g>
    <g clip-path="url(#pf6a79c3766)">
     <use xlink:href="#C0_0_188630a64a" x="158.744148" y="234.086667" style="fill: #3d8af9"/>
    </g>
    <g clip-path="url(#pf6a79c3766)">
     <use xlink:href="#C0_0_188630a64a" x="157.928202" y="172.943333" style="fill: #3d8af9"/>
    </g>
    <g clip-path="url(#pf6a79c3766)">
     <use xlink:href="#C0_0_188630a64a" x="152.419409" y="136.976667" style="fill: #3d8af9"/>
    </g>
    <g clip-path="url(#pf6a79c3766)">
     <use xlink:href="#C0_0_188630a64a" x="148.725909" y="208.91" style="fill: #3d8af9"/>
    </g>
    <g clip-path="url(#pf6a79c3766)">
     <use xlink:href="#C0_0_188630a64a" x="150.842972" y="115.396667" style="fill: #3d8af9"/>
    </g>
    <g clip-path="url(#pf6a79c3766)">
     <use xlink:href="#C0_0_188630a64a" x="143.601396" y="144.17" style="fill: #3d8af9"/>
    </g>
    <g clip-path="url(#pf6a79c3766)">
     <use xlink:href="#C0_0_188630a64a" x="155.942181" y="208.91" style="fill: #3d8af9"/>
    </g>
    <g clip-path="url(#pf6a79c3766)">
     <use xlink:href="#C0_0_188630a64a" x="159.822615" y="316.81" style="fill: #3d8af9"/>
    </g>
    <g clip-path="url(#pf6a79c3766)">
     <use xlink:href="#C0_0_188630a64a" x="148.289214" y="254.228" style="fill: #3d8af9"/>
    </g>
    <g clip-path="url(#pf6a79c3766)">
     <use xlink:href="#C0_0_188630a64a" x="157.841341" y="270.053333" style="fill: #3d8af9"/>
    </g>
    <g clip-path="url(#pf6a79c3766)">
     <use xlink:href="#C0_0_188630a64a" x="141.145431" y="201.716667" style="fill: #3d8af9"/>
    </g>
    <g clip-path="url(#pf6a79c3766)">
     <use xlink:href="#C0_0_188630a64a" x="146.535091" y="129.783333" style="fill: #3d8af9"/>
    </g>
    <g clip-path="url(#pf6a79c3766)">
     <use xlink:href="#C0_0_188630a64a" x="159.760384" y="101.01" style="fill: #3d8af9"/>
    </g>
    <g clip-path="url(#pf6a79c3766)">
     <use xlink:href="#C0_0_188630a64a" x="159.939454" y="237.683333" style="fill: #3d8af9"/>
    </g>
    <g clip-path="url(#pf6a79c3766)">
     <use xlink:href="#C0_0_188630a64a" x="150.150348" y="144.17" style="fill: #3d8af9"/>
    </g>
    <g clip-path="url(#pf6a79c3766)">
     <use xlink:href="#C0_0_188630a64a" x="147.842" y="277.246667" style="fill: #3d8af9"/>
    </g>
    <g clip-path="url(#pf6a79c3766)">
     <use xlink:href="#C0_0_188630a64a" x="154.578321" y="280.843333" style="fill: #3d8af9"/>
    </g>
    <g clip-path="url(#pf6a79c3766)">
     <use xlink:href="#C0_0_188630a64a" x="157.768473" y="172.943333" style="fill: #3d8af9"/>
    </g>
    <g clip-path="url(#pf6a79c3766)">
     <use xlink:href="#C0_0_188630a64a" x="133.831102" y="201.716667" style="fill: #3d8af9"/>
    </g>
    <g clip-path="url(#pf6a79c3766)">
     <use xlink:href="#C0_0_188630a64a" x="152.268247" y="208.91" style="fill: #3d8af9"/>
    </g>
    <g clip-path="url(#pf6a79c3766)">
     <use xlink:href="#C0_0_188630a64a" x="156.163632" y="336.951333" style="fill: #3d8af9"/>
    </g>
    <g clip-path="url(#pf6a79c3766)">
     <use xlink:href="#C0_0_188630a64a" x="142.920365" y="259.263333" style="fill: #3d8af9"/>
    </g>
    <g clip-path="url(#pf6a79c3766)">
     <use xlink:href="#C0_0_188630a64a" x="154.802091" y="201.716667" style="fill: #3d8af9"/>
    </g>
    <g clip-path="url(#pf6a79c3766)">
     <use xlink:href="#C0_0_188630a64a" x="141.823262" y="115.396667" style="fill: #3d8af9"/>
    </g>
    <g clip-path="url(#pf6a79c3766)">
     <use xlink:href="#C0_0_188630a64a" x="138.365721" y="237.683333" style="fill: #3d8af9"/>
    </g>
    <g clip-path="url(#pf6a79c3766)">
     <use xlink:href="#C0_0_188630a64a" x="152.571471" y="135.538" style="fill: #3d8af9"/>
    </g>
    <g clip-path="url(#pf6a79c3766)">
     <use xlink:href="#C0_0_188630a64a" x="136.724844" y="172.943333" style="fill: #3d8af9"/>
    </g>
    <g clip-path="url(#pf6a79c3766)">
     <use xlink:href="#C0_0_188630a64a" x="134.298732" y="242.718667" style="fill: #3d8af9"/>
    </g>
    <g clip-path="url(#pf6a79c3766)">
     <use xlink:href="#C0_0_188630a64a" x="153.929375" y="151.363333" style="fill: #3d8af9"/>
    </g>
    <g clip-path="url(#pf6a79c3766)">
     <use xlink:href="#C0_0_188630a64a" x="154.844194" y="172.943333" style="fill: #3d8af9"/>
    </g>
    <g clip-path="url(#pf6a79c3766)">
     <use xlink:href="#C0_0_188630a64a" x="158.474718" y="36.27" style="fill: #3d8af9"/>
    </g>
    <g clip-path="url(#pf6a79c3766)">
     <use xlink:href="#C0_0_188630a64a" x="135.833853" y="129.783333" style="fill: #3d8af9"/>
    </g>
    <g clip-path="url(#pf6a79c3766)">
     <use xlink:href="#C0_0_188630a64a" x="134.10408" y="216.103333" style="fill: #3d8af9"/>
    </g>
    <g clip-path="url(#pf6a79c3766)">
     <use xlink:href="#C0_0_188630a64a" x="147.210967" y="189.488" style="fill: #3d8af9"/>
    </g>
    <g clip-path="url(#pf6a79c3766)">
     <use xlink:href="#C0_0_188630a64a" x="147.620439" y="151.363333" style="fill: #3d8af9"/>
    </g>
    <g clip-path="url(#pf6a79c3766)">
     <use xlink:href="#C0_0_188630a64a" x="138.97855" y="172.943333" style="fill: #3d8af9"/>
    </g>
    <g clip-path="url(#pf6a79c3766)">
     <use xlink:href="#C0_0_188630a64a" x="136.319966" y="208.91" style="fill: #3d8af9"/>
    </g>
    <g clip-path="url(#pf6a79c3766)">
     <use xlink:href="#C0_0_188630a64a" x="156.076933" y="374.356667" style="fill: #3d8af9"/>
    </g>
    <g clip-path="url(#pf6a79c3766)">
     <use xlink:href="#C0_0_188630a64a" x="154.708371" y="252.07" style="fill: #3d8af9"/>
    </g>
   </g>
   <g id="PathCollection_2">
    <defs>
     <path id="C1_0_19ff67acf8" d="M 0 1.5 
C 0.397805 1.5 0.77937 1.341951 1.06066 1.06066 
C 1.341951 0.77937 1.5 0.397805 1.5 -0 
C 1.5 -0.397805 1.341951 -0.77937 1.06066 -1.06066 
C 0.77937 -1.341951 0.397805 -1.5 0 -1.5 
C -0.397805 -1.5 -0.77937 -1.341951 -1.06066 -1.06066 
C -1.341951 -0.77937 -1.5 -0.397805 -1.5 0 
C -1.5 0.397805 -1.341951 0.77937 -1.06066 1.06066 
C -0.77937 1.341951 -0.397805 1.5 0 1.5 
z
"/>
    </defs>
    <g clip-path="url(#pf6a79c3766)">
     <use xlink:href="#C1_0_19ff67acf8" x="296.892331" y="36.27" style="fill: #e6aa15"/>
    </g>
    <g clip-path="url(#pf6a79c3766)">
     <use xlink:href="#C1_0_19ff67acf8" x="292.188448" y="90.22" style="fill: #e6aa15"/>
    </g>
    <g clip-path="url(#pf6a79c3766)">
     <use xlink:href="#C1_0_19ff67acf8" x="302.644527" y="57.85" style="fill: #e6aa15"/>
    </g>
    <g clip-path="url(#pf6a79c3766)">
     <use xlink:href="#C1_0_19ff67acf8" x="300.136109" y="115.396667" style="fill: #e6aa15"/>
    </g>
    <g clip-path="url(#pf6a79c3766)">
     <use xlink:href="#C1_0_19ff67acf8" x="289.398431" y="107.484" style="fill: #e6aa15"/>
    </g>
    <g clip-path="url(#pf6a79c3766)">
     <use xlink:href="#C1_0_19ff67acf8" x="284.186779" y="252.07" style="fill: #e6aa15"/>
    </g>
    <g clip-path="url(#pf6a79c3766)">
     <use xlink:href="#C1_0_19ff67acf8" x="294.980376" y="187.33" style="fill: #e6aa15"/>
    </g>
    <g clip-path="url(#pf6a79c3766)">
     <use xlink:href="#C1_0_19ff67acf8" x="290.599628" y="180.136667" style="fill: #e6aa15"/>
    </g>
    <g clip-path="url(#pf6a79c3766)">
     <use xlink:href="#C1_0_19ff67acf8" x="286.704225" y="201.716667" style="fill: #e6aa15"/>
    </g>
    <g clip-path="url(#pf6a79c3766)">
     <use xlink:href="#C1_0_19ff67acf8" x="289.22494" y="86.623333" style="fill: #e6aa15"/>
    </g>
    <g clip-path="url(#pf6a79c3766)">
     <use xlink:href="#C1_0_19ff67acf8" x="308.056656" y="229.770667" style="fill: #e6aa15"/>
    </g>
    <g clip-path="url(#pf6a79c3766)">
     <use xlink:href="#C1_0_19ff67acf8" x="302.445908" y="133.38" style="fill: #e6aa15"/>
    </g>
    <g clip-path="url(#pf6a79c3766)">
     <use xlink:href="#C1_0_19ff67acf8" x="293.481162" y="118.993333" style="fill: #e6aa15"/>
    </g>
    <g clip-path="url(#pf6a79c3766)">
     <use xlink:href="#C1_0_19ff67acf8" x="303.954918" y="136.976667" style="fill: #e6aa15"/>
    </g>
    <g clip-path="url(#pf6a79c3766)">
     <use xlink:href="#C1_0_19ff67acf8" x="288.483822" y="158.556667" style="fill: #e6aa15"/>
    </g>
    <g clip-path="url(#pf6a79c3766)">
     <use xlink:href="#C1_0_19ff67acf8" x="293.226886" y="129.783333" style="fill: #e6aa15"/>
    </g>
    <g clip-path="url(#pf6a79c3766)">
     <use xlink:href="#C1_0_19ff67acf8" x="300.17629" y="216.103333" style="fill: #e6aa15"/>
    </g>
    <g clip-path="url(#pf6a79c3766)">
     <use xlink:href="#C1_0_19ff67acf8" x="294.10726" y="122.59" style="fill: #e6aa15"/>
    </g>
    <g clip-path="url(#pf6a79c3766)">
     <use xlink:href="#C1_0_19ff67acf8" x="286.724326" y="170.785333" style="fill: #e6aa15"/>
    </g>
    <g clip-path="url(#pf6a79c3766)">
     <use xlink:href="#C1_0_19ff67acf8" x="302.600617" y="169.346667" style="fill: #e6aa15"/>
    </g>
    <g clip-path="url(#pf6a79c3766)">
     <use xlink:href="#C1_0_19ff67acf8" x="280.422844" y="169.346667" style="fill: #e6aa15"/>
    </g>
    <g clip-path="url(#pf6a79c3766)">
     <use xlink:href="#C1_0_19ff67acf8" x="300.646829" y="154.96" style="fill: #e6aa15"/>
    </g>
    <g clip-path="url(#pf6a79c3766)">
     <use xlink:href="#C1_0_19ff67acf8" x="281.359175" y="65.043333" style="fill: #e6aa15"/>
    </g>
    <g clip-path="url(#pf6a79c3766)">
     <use xlink:href="#C1_0_19ff67acf8" x="308.049558" y="198.12" style="fill: #e6aa15"/>
    </g>
    <g clip-path="url(#pf6a79c3766)">
     <use xlink:href="#C1_0_19ff67acf8" x="290.626369" y="327.6" style="fill: #e6aa15"/>
    </g>
    <g clip-path="url(#pf6a79c3766)">
     <use xlink:href="#C1_0_19ff67acf8" x="299.192632" y="129.783333" style="fill: #e6aa15"/>
    </g>
    <g clip-path="url(#pf6a79c3766)">
     <use xlink:href="#C1_0_19ff67acf8" x="291.980535" y="262.86" style="fill: #e6aa15"/>
    </g>
    <g clip-path="url(#pf6a79c3766)">
     <use xlink:href="#C1_0_19ff67acf8" x="297.559865" y="118.993333" style="fill: #e6aa15"/>
    </g>
    <g clip-path="url(#pf6a79c3766)">
     <use xlink:href="#C1_0_19ff67acf8" x="291.90528" y="158.556667" style="fill: #e6aa15"/>
    </g>
    <g clip-path="url(#pf6a79c3766)">
     <use xlink:href="#C1_0_19ff67acf8" x="303.526571" y="93.816667" style="fill: #e6aa15"/>
    </g>
    <g clip-path="url(#pf6a79c3766)">
     <use xlink:href="#C1_0_19ff67acf8" x="287.277882" y="424.71" style="fill: #e6aa15"/>
    </g>
    <g clip-path="url(#pf6a79c3766)">
     <use xlink:href="#C1_0_19ff67acf8" x="309.616505" y="101.01" style="fill: #e6aa15"/>
    </g>
    <g clip-path="url(#pf6a79c3766)">
     <use xlink:href="#C1_0_19ff67acf8" x="292.420185" y="101.01" style="fill: #e6aa15"/>
    </g>
    <g clip-path="url(#pf6a79c3766)">
     <use xlink:href="#C1_0_19ff67acf8" x="282.051371" y="111.8" style="fill: #e6aa15"/>
    </g>
    <g clip-path="url(#pf6a79c3766)">
     <use xlink:href="#C1_0_19ff67acf8" x="282.835069" y="185.891333" style="fill: #e6aa15"/>
    </g>
    <g clip-path="url(#pf6a79c3766)">
     <use xlink:href="#C1_0_19ff67acf8" x="292.960838" y="395.936667" style="fill: #e6aa15"/>
    </g>
    <g clip-path="url(#pf6a79c3766)">
     <use xlink:href="#C1_0_19ff67acf8" x="282.382006" y="151.363333" style="fill: #e6aa15"/>
    </g>
    <g clip-path="url(#pf6a79c3766)">
     <use xlink:href="#C1_0_19ff67acf8" x="294.329981" y="151.363333" style="fill: #e6aa15"/>
    </g>
    <g clip-path="url(#pf6a79c3766)">
     <use xlink:href="#C1_0_19ff67acf8" x="291.589272" y="187.33" style="fill: #e6aa15"/>
    </g>
    <g clip-path="url(#pf6a79c3766)">
     <use xlink:href="#C1_0_19ff67acf8" x="290.279112" y="255.666667" style="fill: #e6aa15"/>
    </g>
    <g clip-path="url(#pf6a79c3766)">
     <use xlink:href="#C1_0_19ff67acf8" x="286.431781" y="172.943333" style="fill: #e6aa15"/>
    </g>
    <g clip-path="url(#pf6a79c3766)">
     <use xlink:href="#C1_0_19ff67acf8" x="306.469228" y="93.816667" style="fill: #e6aa15"/>
    </g>
    <g clip-path="url(#pf6a79c3766)">
     <use xlink:href="#C1_0_19ff67acf8" x="309.819889" y="180.136667" style="fill: #e6aa15"/>
    </g>
    <g clip-path="url(#pf6a79c3766)">
     <use xlink:href="#C1_0_19ff67acf8" x="304.924466" y="144.17" style="fill: #e6aa15"/>
    </g>
    <g clip-path="url(#pf6a79c3766)">
     <use xlink:href="#C1_0_19ff67acf8" x="307.156414" y="154.96" style="fill: #e6aa15"/>
    </g>
    <g clip-path="url(#pf6a79c3766)">
     <use xlink:href="#C1_0_19ff67acf8" x="309.650468" y="111.8" style="fill: #e6aa15"/>
    </g>
    <g clip-path="url(#pf6a79c3766)">
     <use xlink:href="#C1_0_19ff67acf8" x="300.333241" y="302.423333" style="fill: #e6aa15"/>
    </g>
    <g clip-path="url(#pf6a79c3766)">
     <use xlink:href="#C1_0_19ff67acf8" x="287.168462" y="223.296667" style="fill: #e6aa15"/>
    </g>
    <g clip-path="url(#pf6a79c3766)">
     <use xlink:href="#C1_0_19ff67acf8" x="291.127058" y="172.943333" style="fill: #e6aa15"/>
    </g>
    <g clip-path="url(#pf6a79c3766)">
     <use xlink:href="#C1_0_19ff67acf8" x="286.349794" y="288.036667" style="fill: #e6aa15"/>
    </g>
    <g clip-path="url(#pf6a79c3766)">
     <use xlink:href="#C1_0_19ff67acf8" x="308.029929" y="259.263333" style="fill: #e6aa15"/>
    </g>
    <g clip-path="url(#pf6a79c3766)">
     <use xlink:href="#C1_0_19ff67acf8" x="294.02869" y="230.49" style="fill: #e6aa15"/>
    </g>
    <g clip-path="url(#pf6a79c3766)">
     <use xlink:href="#C1_0_19ff67acf8" x="282.830049" y="149.924667" style="fill: #e6aa15"/>
    </g>
    <g clip-path="url(#pf6a79c3766)">
     <use xlink:href="#C1_0_19ff67acf8" x="290.630333" y="183.733333" style="fill: #e6aa15"/>
    </g>
    <g clip-path="url(#pf6a79c3766)">
     <use xlink:href="#C1_0_19ff67acf8" x="281.73813" y="316.81" style="fill: #e6aa15"/>
    </g>
   </g>
   <g id="matplotlib.axis_1">
    <g id="xtick_1">
     <g id="text_1">
      <!-- Lost -->
      <g style="fill: #262626" transform="translate(131.751947 464.497766) scale(0.143 -0.143)">
       <defs>
        <path id="DejaVuSerif-4c" d="M 353 0 
L 353 331 
L 947 331 
L 947 4331 
L 353 4331 
L 353 4666 
L 2175 4666 
L 2175 4331 
L 1581 4331 
L 1581 384 
L 3713 384 
L 3713 1166 
L 4097 1166 
L 4097 0 
L 353 0 
z
" transform="scale(0.015625)"/>
        <path id="DejaVuSerif-6f" d="M 1925 219 
Q 2388 219 2623 584 
Q 2859 950 2859 1663 
Q 2859 2375 2623 2739 
Q 2388 3103 1925 3103 
Q 1463 3103 1227 2739 
Q 991 2375 991 1663 
Q 991 950 1228 584 
Q 1466 219 1925 219 
z
M 1925 -91 
Q 1200 -91 759 389 
Q 319 869 319 1663 
Q 319 2456 758 2934 
Q 1197 3413 1925 3413 
Q 2653 3413 3092 2934 
Q 3531 2456 3531 1663 
Q 3531 869 3092 389 
Q 2653 -91 1925 -91 
z
" transform="scale(0.015625)"/>
        <path id="DejaVuSerif-73" d="M 359 184 
L 359 959 
L 691 959 
Q 703 588 923 403 
Q 1144 219 1575 219 
Q 1963 219 2166 364 
Q 2369 509 2369 788 
Q 2369 1006 2220 1140 
Q 2072 1275 1594 1428 
L 1178 1569 
Q 750 1706 558 1912 
Q 366 2119 366 2438 
Q 366 2894 700 3153 
Q 1034 3413 1625 3413 
Q 1888 3413 2178 3344 
Q 2469 3275 2778 3144 
L 2778 2419 
L 2447 2419 
Q 2434 2741 2221 2922 
Q 2009 3103 1644 3103 
Q 1281 3103 1095 2975 
Q 909 2847 909 2591 
Q 909 2381 1050 2254 
Q 1191 2128 1613 1997 
L 2069 1856 
Q 2541 1709 2748 1489 
Q 2956 1269 2956 922 
Q 2956 450 2595 179 
Q 2234 -91 1600 -91 
Q 1278 -91 972 -22 
Q 666 47 359 184 
z
" transform="scale(0.015625)"/>
        <path id="DejaVuSerif-74" d="M 691 2988 
L 184 2988 
L 184 3322 
L 691 3322 
L 691 4353 
L 1269 4353 
L 1269 3322 
L 2350 3322 
L 2350 2988 
L 1269 2988 
L 1269 878 
Q 1269 456 1350 337 
Q 1431 219 1650 219 
Q 1875 219 1978 351 
Q 2081 484 2088 781 
L 2522 781 
Q 2497 328 2275 118 
Q 2053 -91 1600 -91 
Q 1103 -91 897 129 
Q 691 350 691 878 
L 691 2988 
z
" transform="scale(0.015625)"/>
       </defs>
       <use xlink:href="#DejaVuSerif-4c"/>
       <use xlink:href="#DejaVuSerif-6f" x="66.40625"/>
       <use xlink:href="#DejaVuSerif-73" x="126.611328"/>
       <use xlink:href="#DejaVuSerif-74" x="177.929688"/>
      </g>
     </g>
    </g>
    <g id="xtick_2">
     <g id="text_2">
      <!-- Won -->
      <g style="fill: #262626" transform="translate(279.348497 464.497766) scale(0.143 -0.143)">
       <defs>
        <path id="DejaVuSerif-57" d="M 4878 0 
L 4366 0 
L 3297 3794 
L 2228 0 
L 1716 0 
L 494 4331 
L 31 4331 
L 31 4666 
L 1734 4666 
L 1734 4331 
L 1153 4331 
L 2125 884 
L 3188 4666 
L 3694 4666 
L 4775 844 
L 5753 4331 
L 5216 4331 
L 5216 4666 
L 6559 4666 
L 6559 4331 
L 6100 4331 
L 4878 0 
z
" transform="scale(0.015625)"/>
        <path id="DejaVuSerif-6e" d="M 263 0 
L 263 331 
L 781 331 
L 781 2988 
L 231 2988 
L 231 3322 
L 1356 3322 
L 1356 2731 
Q 1516 3069 1770 3241 
Q 2025 3413 2363 3413 
Q 2913 3413 3172 3097 
Q 3431 2781 3431 2113 
L 3431 331 
L 3944 331 
L 3944 0 
L 2356 0 
L 2356 331 
L 2853 331 
L 2853 1931 
Q 2853 2541 2703 2767 
Q 2553 2994 2175 2994 
Q 1775 2994 1565 2701 
Q 1356 2409 1356 1850 
L 1356 331 
L 1856 331 
L 1856 0 
L 263 0 
z
" transform="scale(0.015625)"/>
       </defs>
       <use xlink:href="#DejaVuSerif-57"/>
       <use xlink:href="#DejaVuSerif-6f" x="96.033203"/>
       <use xlink:href="#DejaVuSerif-6e" x="156.238281"/>
      </g>
     </g>
    </g>
    <g id="text_3">
     <!-- Game outcome -->
     <g style="fill: #262626" transform="translate(148.999406 483.325281) scale(0.156 -0.156)">
      <defs>
       <path id="DejaVuSerif-47" d="M 4097 3272 
Q 3988 3856 3641 4136 
Q 3294 4416 2675 4416 
Q 1869 4416 1472 3897 
Q 1075 3378 1075 2328 
Q 1075 1300 1484 772 
Q 1894 244 2688 244 
Q 3041 244 3362 331 
Q 3684 419 3975 594 
L 3975 1797 
L 3097 1797 
L 3097 2131 
L 4609 2131 
L 4609 391 
Q 4194 150 3714 29 
Q 3234 -91 2688 -91 
Q 1631 -91 995 570 
Q 359 1231 359 2328 
Q 359 3434 996 4092 
Q 1634 4750 2713 4750 
Q 3113 4750 3539 4658 
Q 3966 4566 4447 4378 
L 4447 3272 
L 4097 3272 
z
" transform="scale(0.015625)"/>
       <path id="DejaVuSerif-61" d="M 2547 1044 
L 2547 1747 
L 1806 1747 
Q 1378 1747 1168 1562 
Q 959 1378 959 997 
Q 959 650 1171 447 
Q 1384 244 1747 244 
Q 2106 244 2326 466 
Q 2547 688 2547 1044 
z
M 3122 2075 
L 3122 331 
L 3634 331 
L 3634 0 
L 2547 0 
L 2547 359 
Q 2356 128 2106 18 
Q 1856 -91 1522 -91 
Q 969 -91 644 203 
Q 319 497 319 997 
Q 319 1513 691 1797 
Q 1063 2081 1741 2081 
L 2547 2081 
L 2547 2309 
Q 2547 2688 2317 2895 
Q 2088 3103 1672 3103 
Q 1328 3103 1125 2947 
Q 922 2791 872 2484 
L 575 2484 
L 575 3156 
Q 875 3284 1158 3348 
Q 1441 3413 1709 3413 
Q 2400 3413 2761 3070 
Q 3122 2728 3122 2075 
z
" transform="scale(0.015625)"/>
       <path id="DejaVuSerif-6d" d="M 3316 2675 
Q 3481 3041 3739 3227 
Q 3997 3413 4341 3413 
Q 4863 3413 5119 3089 
Q 5375 2766 5375 2113 
L 5375 331 
L 5894 331 
L 5894 0 
L 4300 0 
L 4300 331 
L 4800 331 
L 4800 2047 
Q 4800 2556 4650 2772 
Q 4500 2988 4153 2988 
Q 3769 2988 3567 2697 
Q 3366 2406 3366 1850 
L 3366 331 
L 3866 331 
L 3866 0 
L 2291 0 
L 2291 331 
L 2791 331 
L 2791 2069 
Q 2791 2566 2641 2777 
Q 2491 2988 2144 2988 
Q 1759 2988 1557 2697 
Q 1356 2406 1356 1850 
L 1356 331 
L 1856 331 
L 1856 0 
L 263 0 
L 263 331 
L 781 331 
L 781 2994 
L 231 2994 
L 231 3322 
L 1356 3322 
L 1356 2731 
Q 1516 3063 1762 3238 
Q 2009 3413 2322 3413 
Q 2709 3413 2968 3220 
Q 3228 3028 3316 2675 
z
" transform="scale(0.015625)"/>
       <path id="DejaVuSerif-65" d="M 3469 1600 
L 991 1600 
L 991 1575 
Q 991 903 1244 561 
Q 1497 219 1991 219 
Q 2369 219 2611 417 
Q 2853 616 2950 1006 
L 3413 1006 
Q 3275 459 2904 184 
Q 2534 -91 1931 -91 
Q 1203 -91 761 389 
Q 319 869 319 1663 
Q 319 2450 753 2931 
Q 1188 3413 1894 3413 
Q 2647 3413 3050 2948 
Q 3453 2484 3469 1600 
z
M 2791 1931 
Q 2772 2513 2545 2808 
Q 2319 3103 1894 3103 
Q 1497 3103 1269 2806 
Q 1041 2509 991 1931 
L 2791 1931 
z
" transform="scale(0.015625)"/>
       <path id="DejaVuSerif-20" transform="scale(0.015625)"/>
       <path id="DejaVuSerif-75" d="M 2266 3322 
L 3341 3322 
L 3341 331 
L 3884 331 
L 3884 0 
L 2766 0 
L 2766 588 
Q 2606 256 2353 82 
Q 2100 -91 1766 -91 
Q 1213 -91 952 223 
Q 691 538 691 1209 
L 691 2988 
L 172 2988 
L 172 3322 
L 1269 3322 
L 1269 1388 
Q 1269 781 1417 556 
Q 1566 331 1947 331 
Q 2347 331 2556 625 
Q 2766 919 2766 1478 
L 2766 2988 
L 2266 2988 
L 2266 3322 
z
" transform="scale(0.015625)"/>
       <path id="DejaVuSerif-63" d="M 3291 997 
Q 3169 466 2822 187 
Q 2475 -91 1925 -91 
Q 1200 -91 759 389 
Q 319 869 319 1663 
Q 319 2459 759 2936 
Q 1200 3413 1925 3413 
Q 2241 3413 2553 3339 
Q 2866 3266 3181 3116 
L 3181 2266 
L 2847 2266 
Q 2781 2703 2561 2903 
Q 2341 3103 1931 3103 
Q 1466 3103 1228 2742 
Q 991 2381 991 1663 
Q 991 944 1227 581 
Q 1463 219 1931 219 
Q 2303 219 2525 412 
Q 2747 606 2828 997 
L 3291 997 
z
" transform="scale(0.015625)"/>
      </defs>
      <use xlink:href="#DejaVuSerif-47"/>
      <use xlink:href="#DejaVuSerif-61" x="79.882812"/>
      <use xlink:href="#DejaVuSerif-6d" x="139.501953"/>
      <use xlink:href="#DejaVuSerif-65" x="234.326172"/>
      <use xlink:href="#DejaVuSerif-20" x="293.505859"/>
      <use xlink:href="#DejaVuSerif-6f" x="325.292969"/>
      <use xlink:href="#DejaVuSerif-75" x="385.498047"/>
      <use xlink:href="#DejaVuSerif-74" x="449.902344"/>
      <use xlink:href="#DejaVuSerif-63" x="490.087891"/>
      <use xlink:href="#DejaVuSerif-6f" x="546.09375"/>
      <use xlink:href="#DejaVuSerif-6d" x="606.298828"/>
      <use xlink:href="#DejaVuSerif-65" x="701.123047"/>
     </g>
    </g>
   </g>
   <g id="matplotlib.axis_2">
    <g id="ytick_1">
     <g id="text_4">
      <!-- 20 -->
      <g style="fill: #262626" transform="translate(45.76125 379.789549) scale(0.143 -0.143)">
       <defs>
        <path id="DejaVuSerif-32" d="M 819 3553 
L 469 3553 
L 469 4384 
Q 803 4563 1142 4656 
Q 1481 4750 1806 4750 
Q 2534 4750 2956 4397 
Q 3378 4044 3378 3438 
Q 3378 2753 2422 1800 
Q 2347 1728 2309 1691 
L 1131 513 
L 3078 513 
L 3078 1088 
L 3444 1088 
L 3444 0 
L 434 0 
L 434 341 
L 1850 1753 
Q 2319 2222 2519 2614 
Q 2719 3006 2719 3438 
Q 2719 3909 2473 4175 
Q 2228 4441 1797 4441 
Q 1350 4441 1106 4219 
Q 863 3997 819 3553 
z
" transform="scale(0.015625)"/>
        <path id="DejaVuSerif-30" d="M 2034 219 
Q 2513 219 2750 744 
Q 2988 1269 2988 2328 
Q 2988 3391 2750 3916 
Q 2513 4441 2034 4441 
Q 1556 4441 1318 3916 
Q 1081 3391 1081 2328 
Q 1081 1269 1318 744 
Q 1556 219 2034 219 
z
M 2034 -91 
Q 1275 -91 848 546 
Q 422 1184 422 2328 
Q 422 3475 848 4112 
Q 1275 4750 2034 4750 
Q 2797 4750 3222 4112 
Q 3647 3475 3647 2328 
Q 3647 1184 3222 546 
Q 2797 -91 2034 -91 
z
" transform="scale(0.015625)"/>
       </defs>
       <use xlink:href="#DejaVuSerif-32"/>
       <use xlink:href="#DejaVuSerif-30" x="63.623047"/>
      </g>
     </g>
    </g>
    <g id="ytick_2">
     <g id="text_5">
      <!-- 40 -->
      <g style="fill: #262626" transform="translate(45.76125 293.469549) scale(0.143 -0.143)">
       <defs>
        <path id="DejaVuSerif-34" d="M 2234 1581 
L 2234 4063 
L 641 1581 
L 2234 1581 
z
M 3609 0 
L 1484 0 
L 1484 331 
L 2234 331 
L 2234 1247 
L 197 1247 
L 197 1588 
L 2241 4750 
L 2859 4750 
L 2859 1581 
L 3750 1581 
L 3750 1247 
L 2859 1247 
L 2859 331 
L 3609 331 
L 3609 0 
z
" transform="scale(0.015625)"/>
       </defs>
       <use xlink:href="#DejaVuSerif-34"/>
       <use xlink:href="#DejaVuSerif-30" x="63.623047"/>
      </g>
     </g>
    </g>
    <g id="ytick_3">
     <g id="text_6">
      <!-- 60 -->
      <g style="fill: #262626" transform="translate(45.76125 207.149549) scale(0.143 -0.143)">
       <defs>
        <path id="DejaVuSerif-36" d="M 2094 219 
Q 2534 219 2771 542 
Q 3009 866 3009 1472 
Q 3009 2078 2771 2401 
Q 2534 2725 2094 2725 
Q 1647 2725 1412 2412 
Q 1178 2100 1178 1509 
Q 1178 888 1415 553 
Q 1653 219 2094 219 
z
M 1075 2569 
Q 1288 2803 1556 2918 
Q 1825 3034 2163 3034 
Q 2859 3034 3264 2615 
Q 3669 2197 3669 1472 
Q 3669 763 3233 336 
Q 2797 -91 2069 -91 
Q 1278 -91 853 498 
Q 428 1088 428 2181 
Q 428 3406 931 4078 
Q 1434 4750 2350 4750 
Q 2597 4750 2869 4703 
Q 3141 4656 3425 4563 
L 3425 3794 
L 3072 3794 
Q 3034 4109 2831 4275 
Q 2628 4441 2284 4441 
Q 1678 4441 1381 3981 
Q 1084 3522 1075 2569 
z
" transform="scale(0.015625)"/>
       </defs>
       <use xlink:href="#DejaVuSerif-36"/>
       <use xlink:href="#DejaVuSerif-30" x="63.623047"/>
      </g>
     </g>
    </g>
    <g id="ytick_4">
     <g id="text_7">
      <!-- 80 -->
      <g style="fill: #262626" transform="translate(45.76125 120.829549) scale(0.143 -0.143)">
       <defs>
        <path id="DejaVuSerif-38" d="M 2981 1275 
Q 2981 1775 2732 2051 
Q 2484 2328 2034 2328 
Q 1584 2328 1336 2051 
Q 1088 1775 1088 1275 
Q 1088 772 1336 495 
Q 1584 219 2034 219 
Q 2484 219 2732 495 
Q 2981 772 2981 1275 
z
M 2853 3541 
Q 2853 3966 2637 4203 
Q 2422 4441 2034 4441 
Q 1650 4441 1433 4203 
Q 1216 3966 1216 3541 
Q 1216 3113 1433 2875 
Q 1650 2638 2034 2638 
Q 2422 2638 2637 2875 
Q 2853 3113 2853 3541 
z
M 2516 2484 
Q 3047 2413 3344 2092 
Q 3641 1772 3641 1275 
Q 3641 619 3225 264 
Q 2809 -91 2034 -91 
Q 1263 -91 845 264 
Q 428 619 428 1275 
Q 428 1772 725 2092 
Q 1022 2413 1556 2484 
Q 1084 2569 832 2842 
Q 581 3116 581 3541 
Q 581 4103 968 4426 
Q 1356 4750 2034 4750 
Q 2713 4750 3100 4426 
Q 3488 4103 3488 3541 
Q 3488 3116 3236 2842 
Q 2984 2569 2516 2484 
z
" transform="scale(0.015625)"/>
       </defs>
       <use xlink:href="#DejaVuSerif-38"/>
       <use xlink:href="#DejaVuSerif-30" x="63.623047"/>
      </g>
     </g>
    </g>
    <g id="ytick_5">
     <g id="text_8">
      <!-- 100 -->
      <g style="fill: #262626" transform="translate(36.662875 34.509549) scale(0.143 -0.143)">
       <defs>
        <path id="DejaVuSerif-31" d="M 909 0 
L 909 331 
L 1722 331 
L 1722 4213 
L 781 3603 
L 781 4013 
L 1919 4750 
L 2350 4750 
L 2350 331 
L 3163 331 
L 3163 0 
L 909 0 
z
" transform="scale(0.015625)"/>
       </defs>
       <use xlink:href="#DejaVuSerif-31"/>
       <use xlink:href="#DejaVuSerif-30" x="63.623047"/>
       <use xlink:href="#DejaVuSerif-30" x="127.246094"/>
      </g>
     </g>
    </g>
    <g id="text_9">
     <!-- Connectedness to others -->
     <g style="fill: #262626" transform="translate(29.418562 328.56525) rotate(-90) scale(0.156 -0.156)">
      <defs>
       <path id="DejaVuSerif-43" d="M 4513 1234 
Q 4306 581 3820 245 
Q 3334 -91 2591 -91 
Q 2134 -91 1743 65 
Q 1353 222 1050 525 
Q 700 875 529 1320 
Q 359 1766 359 2328 
Q 359 3416 987 4083 
Q 1616 4750 2644 4750 
Q 3025 4750 3456 4650 
Q 3888 4550 4384 4347 
L 4384 3272 
L 4031 3272 
Q 3916 3859 3567 4137 
Q 3219 4416 2591 4416 
Q 1844 4416 1459 3886 
Q 1075 3356 1075 2328 
Q 1075 1303 1459 773 
Q 1844 244 2591 244 
Q 3113 244 3450 492 
Q 3788 741 3938 1234 
L 4513 1234 
z
" transform="scale(0.015625)"/>
       <path id="DejaVuSerif-64" d="M 3359 331 
L 3909 331 
L 3909 0 
L 2784 0 
L 2784 519 
Q 2616 206 2355 57 
Q 2094 -91 1709 -91 
Q 1097 -91 708 395 
Q 319 881 319 1663 
Q 319 2444 706 2928 
Q 1094 3413 1709 3413 
Q 2094 3413 2355 3264 
Q 2616 3116 2784 2803 
L 2784 4531 
L 2241 4531 
L 2241 4863 
L 3359 4863 
L 3359 331 
z
M 2784 1497 
L 2784 1825 
Q 2784 2422 2554 2737 
Q 2325 3053 1888 3053 
Q 1444 3053 1217 2703 
Q 991 2353 991 1663 
Q 991 975 1217 622 
Q 1444 269 1888 269 
Q 2325 269 2554 583 
Q 2784 897 2784 1497 
z
" transform="scale(0.015625)"/>
       <path id="DejaVuSerif-68" d="M 263 0 
L 263 331 
L 781 331 
L 781 4531 
L 231 4531 
L 231 4863 
L 1356 4863 
L 1356 2731 
Q 1516 3069 1770 3241 
Q 2025 3413 2363 3413 
Q 2913 3413 3172 3097 
Q 3431 2781 3431 2113 
L 3431 331 
L 3944 331 
L 3944 0 
L 2356 0 
L 2356 331 
L 2853 331 
L 2853 1931 
Q 2853 2541 2704 2764 
Q 2556 2988 2175 2988 
Q 1775 2988 1565 2697 
Q 1356 2406 1356 1850 
L 1356 331 
L 1856 331 
L 1856 0 
L 263 0 
z
" transform="scale(0.015625)"/>
       <path id="DejaVuSerif-72" d="M 3059 3328 
L 3059 2497 
L 2728 2497 
Q 2713 2744 2591 2866 
Q 2469 2988 2234 2988 
Q 1809 2988 1582 2694 
Q 1356 2400 1356 1850 
L 1356 331 
L 2022 331 
L 2022 0 
L 263 0 
L 263 331 
L 781 331 
L 781 2994 
L 231 2994 
L 231 3322 
L 1356 3322 
L 1356 2731 
Q 1525 3078 1790 3245 
Q 2056 3413 2438 3413 
Q 2578 3413 2733 3391 
Q 2888 3369 3059 3328 
z
" transform="scale(0.015625)"/>
      </defs>
      <use xlink:href="#DejaVuSerif-43"/>
      <use xlink:href="#DejaVuSerif-6f" x="76.513672"/>
      <use xlink:href="#DejaVuSerif-6e" x="136.71875"/>
      <use xlink:href="#DejaVuSerif-6e" x="201.123047"/>
      <use xlink:href="#DejaVuSerif-65" x="265.527344"/>
      <use xlink:href="#DejaVuSerif-63" x="324.707031"/>
      <use xlink:href="#DejaVuSerif-74" x="380.712891"/>
      <use xlink:href="#DejaVuSerif-65" x="420.898438"/>
      <use xlink:href="#DejaVuSerif-64" x="480.078125"/>
      <use xlink:href="#DejaVuSerif-6e" x="544.091797"/>
      <use xlink:href="#DejaVuSerif-65" x="608.496094"/>
      <use xlink:href="#DejaVuSerif-73" x="667.675781"/>
      <use xlink:href="#DejaVuSerif-73" x="718.994141"/>
      <use xlink:href="#DejaVuSerif-20" x="770.3125"/>
      <use xlink:href="#DejaVuSerif-74" x="802.099609"/>
      <use xlink:href="#DejaVuSerif-6f" x="842.285156"/>
      <use xlink:href="#DejaVuSerif-20" x="902.490234"/>
      <use xlink:href="#DejaVuSerif-6f" x="934.277344"/>
      <use xlink:href="#DejaVuSerif-74" x="994.482422"/>
      <use xlink:href="#DejaVuSerif-68" x="1034.667969"/>
      <use xlink:href="#DejaVuSerif-65" x="1099.072266"/>
      <use xlink:href="#DejaVuSerif-72" x="1158.251953"/>
      <use xlink:href="#DejaVuSerif-73" x="1206.054688"/>
     </g>
    </g>
   </g>
   <g id="PolyCollection_1">
    <defs>
     <path id="mffe453dde4" d="M 117.79126 -129.643333 
L 113.666782 -129.643333 
L 113.282748 -133.05835 
L 112.957015 -136.473367 
L 112.673618 -139.888384 
L 112.414782 -143.303401 
L 112.167186 -146.718418 
L 111.924318 -150.133434 
L 111.684507 -153.548451 
L 111.446617 -156.963468 
L 111.206568 -160.378485 
L 110.957437 -163.793502 
L 110.693953 -167.208519 
L 110.419655 -170.623535 
L 110.152855 -174.038552 
L 109.926999 -177.453569 
L 109.782614 -180.868586 
L 109.751686 -184.283603 
L 109.839437 -187.69862 
L 110.011219 -191.113636 
L 110.191593 -194.528653 
L 110.278545 -197.94367 
L 110.169624 -201.358687 
L 109.791529 -204.773704 
L 109.12264 -208.188721 
L 108.200269 -211.603737 
L 107.10992 -215.018754 
L 105.960305 -218.433771 
L 104.852738 -221.848788 
L 103.855051 -225.263805 
L 102.988072 -228.678822 
L 102.227858 -232.093838 
L 101.521423 -235.508855 
L 100.809573 -238.923872 
L 100.049111 -242.338889 
L 99.228061 -245.753906 
L 98.370474 -249.168923 
L 97.530208 -252.583939 
L 96.775133 -255.998956 
L 96.164621 -259.413973 
L 95.72498 -262.82899 
L 95.429737 -266.244007 
L 95.193085 -269.659024 
L 94.883196 -273.07404 
L 94.356236 -276.489057 
L 93.503063 -279.904074 
L 92.29274 -283.319091 
L 90.794814 -286.734108 
L 89.168247 -290.149125 
L 87.61738 -293.564141 
L 86.329113 -296.979158 
L 85.414121 -300.394175 
L 84.874405 -303.809192 
L 84.609739 -307.224209 
L 84.460727 -310.639226 
L 84.2723 -314.054242 
L 83.953807 -317.469259 
L 83.513196 -320.884276 
L 83.052485 -324.299293 
L 82.726273 -327.71431 
L 82.6791 -331.129327 
L 82.985558 -334.544343 
L 83.615876 -337.95936 
L 84.439486 -341.374377 
L 85.264197 -344.789394 
L 85.895331 -348.204411 
L 86.193167 -351.619428 
L 86.110049 -355.034444 
L 85.698112 -358.449461 
L 85.089772 -361.864478 
L 84.461069 -365.279495 
L 83.990527 -368.694512 
L 83.824058 -372.109529 
L 84.052215 -375.524545 
L 84.702036 -378.939562 
L 85.74284 -382.354579 
L 87.103343 -385.769596 
L 88.695565 -389.184613 
L 90.439373 -392.59963 
L 92.280817 -396.014646 
L 94.198913 -399.429663 
L 96.199207 -402.84468 
L 98.297207 -406.259697 
L 100.498466 -409.674714 
L 102.782962 -413.089731 
L 105.099239 -416.504747 
L 107.369588 -419.919764 
L 109.503465 -423.334781 
L 111.413935 -426.749798 
L 113.031872 -430.164815 
L 114.314475 -433.579832 
L 115.247351 -436.994848 
L 115.841734 -440.409865 
L 116.129599 -443.824882 
L 116.159084 -447.239899 
L 115.991242 -450.654916 
L 115.697367 -454.069933 
L 115.355077 -457.484949 
L 115.041622 -460.899966 
L 114.824374 -464.314983 
L 114.750531 -467.73 
L 117.79126 -467.73 
L 117.79126 -467.73 
L 117.79126 -464.314983 
L 117.79126 -460.899966 
L 117.79126 -457.484949 
L 117.79126 -454.069933 
L 117.79126 -450.654916 
L 117.79126 -447.239899 
L 117.79126 -443.824882 
L 117.79126 -440.409865 
L 117.79126 -436.994848 
L 117.79126 -433.579832 
L 117.79126 -430.164815 
L 117.79126 -426.749798 
L 117.79126 -423.334781 
L 117.79126 -419.919764 
L 117.79126 -416.504747 
L 117.79126 -413.089731 
L 117.79126 -409.674714 
L 117.79126 -406.259697 
L 117.79126 -402.84468 
L 117.79126 -399.429663 
L 117.79126 -396.014646 
L 117.79126 -392.59963 
L 117.79126 -389.184613 
L 117.79126 -385.769596 
L 117.79126 -382.354579 
L 117.79126 -378.939562 
L 117.79126 -375.524545 
L 117.79126 -372.109529 
L 117.79126 -368.694512 
L 117.79126 -365.279495 
L 117.79126 -361.864478 
L 117.79126 -358.449461 
L 117.79126 -355.034444 
L 117.79126 -351.619428 
L 117.79126 -348.204411 
L 117.79126 -344.789394 
L 117.79126 -341.374377 
L 117.79126 -337.95936 
L 117.79126 -334.544343 
L 117.79126 -331.129327 
L 117.79126 -327.71431 
L 117.79126 -324.299293 
L 117.79126 -320.884276 
L 117.79126 -317.469259 
L 117.79126 -314.054242 
L 117.79126 -310.639226 
L 117.79126 -307.224209 
L 117.79126 -303.809192 
L 117.79126 -300.394175 
L 117.79126 -296.979158 
L 117.79126 -293.564141 
L 117.79126 -290.149125 
L 117.79126 -286.734108 
L 117.79126 -283.319091 
L 117.79126 -279.904074 
L 117.79126 -276.489057 
L 117.79126 -273.07404 
L 117.79126 -269.659024 
L 117.79126 -266.244007 
L 117.79126 -262.82899 
L 117.79126 -259.413973 
L 117.79126 -255.998956 
L 117.79126 -252.583939 
L 117.79126 -249.168923 
L 117.79126 -245.753906 
L 117.79126 -242.338889 
L 117.79126 -238.923872 
L 117.79126 -235.508855 
L 117.79126 -232.093838 
L 117.79126 -228.678822 
L 117.79126 -225.263805 
L 117.79126 -221.848788 
L 117.79126 -218.433771 
L 117.79126 -215.018754 
L 117.79126 -211.603737 
L 117.79126 -208.188721 
L 117.79126 -204.773704 
L 117.79126 -201.358687 
L 117.79126 -197.94367 
L 117.79126 -194.528653 
L 117.79126 -191.113636 
L 117.79126 -187.69862 
L 117.79126 -184.283603 
L 117.79126 -180.868586 
L 117.79126 -177.453569 
L 117.79126 -174.038552 
L 117.79126 -170.623535 
L 117.79126 -167.208519 
L 117.79126 -163.793502 
L 117.79126 -160.378485 
L 117.79126 -156.963468 
L 117.79126 -153.548451 
L 117.79126 -150.133434 
L 117.79126 -146.718418 
L 117.79126 -143.303401 
L 117.79126 -139.888384 
L 117.79126 -136.473367 
L 117.79126 -133.05835 
L 117.79126 -129.643333 
z
" style="stroke: #4b4b4b"/>
    </defs>
    <g clip-path="url(#pf6a79c3766)">
     <use xlink:href="#mffe453dde4" x="0" y="504" style="fill: #548ee2; stroke: #4b4b4b"/>
    </g>
   </g>
   <g id="PolyCollection_2">
    <defs>
     <path id="m2609773736" d="M 265.568795 -79.29 
L 262.174676 -79.29 
L 261.97377 -83.213636 
L 261.855786 -87.137273 
L 261.801076 -91.060909 
L 261.79384 -94.984545 
L 261.831472 -98.908182 
L 261.92607 -102.831818 
L 262.09729 -106.755455 
L 262.360239 -110.679091 
L 262.71449 -114.602727 
L 263.139364 -118.526364 
L 263.597145 -122.45 
L 264.041923 -126.373636 
L 264.429506 -130.297273 
L 264.724192 -134.220909 
L 264.900509 -138.144545 
L 264.940861 -142.068182 
L 264.83192 -145.991818 
L 264.562825 -149.915455 
L 264.126994 -153.839091 
L 263.527263 -157.762727 
L 262.782075 -161.686364 
L 261.929463 -165.61 
L 261.025961 -169.533636 
L 260.139509 -173.457273 
L 259.337891 -177.380909 
L 258.676355 -181.304545 
L 258.18849 -185.228182 
L 257.883053 -189.151818 
L 257.746702 -193.075455 
L 257.749995 -196.999091 
L 257.852928 -200.922727 
L 258.007309 -204.846364 
L 258.156014 -208.77 
L 258.232225 -212.693636 
L 258.163295 -216.617273 
L 257.882579 -220.540909 
L 257.348486 -224.464545 
L 256.564669 -228.388182 
L 255.591649 -232.311818 
L 254.541055 -236.235455 
L 253.549877 -240.159091 
L 252.741446 -244.082727 
L 252.187714 -248.006364 
L 251.888865 -251.93 
L 251.779674 -255.853636 
L 251.759852 -259.777273 
L 251.734116 -263.700909 
L 251.643052 -267.624545 
L 251.470759 -271.548182 
L 251.227148 -275.471818 
L 250.915342 -279.395455 
L 250.501518 -283.319091 
L 249.9028 -287.242727 
L 249.000046 -291.166364 
L 247.671422 -295.09 
L 245.834463 -299.013636 
L 243.481642 -302.937273 
L 240.697311 -306.860909 
L 237.650331 -310.784545 
L 234.564413 -314.708182 
L 231.674951 -318.631818 
L 229.185176 -322.555455 
L 227.234302 -326.479091 
L 225.885661 -330.402727 
L 225.134836 -334.326364 
L 224.929973 -338.25 
L 225.192577 -342.173636 
L 225.829493 -346.097273 
L 226.734265 -350.020909 
L 227.784136 -353.944545 
L 228.842598 -357.868182 
L 229.774148 -361.791818 
L 230.46988 -365.715455 
L 230.874752 -369.639091 
L 231.004714 -373.562727 
L 230.945777 -377.486364 
L 230.835006 -381.41 
L 230.830814 -385.333636 
L 231.082963 -389.257273 
L 231.71044 -393.180909 
L 232.789747 -397.104545 
L 234.350779 -401.028182 
L 236.375472 -404.951818 
L 238.796609 -408.875455 
L 241.498727 -412.799091 
L 244.326329 -416.722727 
L 247.103575 -420.646364 
L 249.664203 -424.57 
L 251.883734 -428.493636 
L 253.702463 -432.417273 
L 255.130227 -436.340909 
L 256.231529 -440.264545 
L 257.098135 -444.188182 
L 257.820894 -448.111818 
L 258.47099 -452.035455 
L 259.094443 -455.959091 
L 259.716677 -459.882727 
L 260.350248 -463.806364 
L 260.999876 -467.73 
L 265.568795 -467.73 
L 265.568795 -467.73 
L 265.568795 -463.806364 
L 265.568795 -459.882727 
L 265.568795 -455.959091 
L 265.568795 -452.035455 
L 265.568795 -448.111818 
L 265.568795 -444.188182 
L 265.568795 -440.264545 
L 265.568795 -436.340909 
L 265.568795 -432.417273 
L 265.568795 -428.493636 
L 265.568795 -424.57 
L 265.568795 -420.646364 
L 265.568795 -416.722727 
L 265.568795 -412.799091 
L 265.568795 -408.875455 
L 265.568795 -404.951818 
L 265.568795 -401.028182 
L 265.568795 -397.104545 
L 265.568795 -393.180909 
L 265.568795 -389.257273 
L 265.568795 -385.333636 
L 265.568795 -381.41 
L 265.568795 -377.486364 
L 265.568795 -373.562727 
L 265.568795 -369.639091 
L 265.568795 -365.715455 
L 265.568795 -361.791818 
L 265.568795 -357.868182 
L 265.568795 -353.944545 
L 265.568795 -350.020909 
L 265.568795 -346.097273 
L 265.568795 -342.173636 
L 265.568795 -338.25 
L 265.568795 -334.326364 
L 265.568795 -330.402727 
L 265.568795 -326.479091 
L 265.568795 -322.555455 
L 265.568795 -318.631818 
L 265.568795 -314.708182 
L 265.568795 -310.784545 
L 265.568795 -306.860909 
L 265.568795 -302.937273 
L 265.568795 -299.013636 
L 265.568795 -295.09 
L 265.568795 -291.166364 
L 265.568795 -287.242727 
L 265.568795 -283.319091 
L 265.568795 -279.395455 
L 265.568795 -275.471818 
L 265.568795 -271.548182 
L 265.568795 -267.624545 
L 265.568795 -263.700909 
L 265.568795 -259.777273 
L 265.568795 -255.853636 
L 265.568795 -251.93 
L 265.568795 -248.006364 
L 265.568795 -244.082727 
L 265.568795 -240.159091 
L 265.568795 -236.235455 
L 265.568795 -232.311818 
L 265.568795 -228.388182 
L 265.568795 -224.464545 
L 265.568795 -220.540909 
L 265.568795 -216.617273 
L 265.568795 -212.693636 
L 265.568795 -208.77 
L 265.568795 -204.846364 
L 265.568795 -200.922727 
L 265.568795 -196.999091 
L 265.568795 -193.075455 
L 265.568795 -189.151818 
L 265.568795 -185.228182 
L 265.568795 -181.304545 
L 265.568795 -177.380909 
L 265.568795 -173.457273 
L 265.568795 -169.533636 
L 265.568795 -165.61 
L 265.568795 -161.686364 
L 265.568795 -157.762727 
L 265.568795 -153.839091 
L 265.568795 -149.915455 
L 265.568795 -145.991818 
L 265.568795 -142.068182 
L 265.568795 -138.144545 
L 265.568795 -134.220909 
L 265.568795 -130.297273 
L 265.568795 -126.373636 
L 265.568795 -122.45 
L 265.568795 -118.526364 
L 265.568795 -114.602727 
L 265.568795 -110.679091 
L 265.568795 -106.755455 
L 265.568795 -102.831818 
L 265.568795 -98.908182 
L 265.568795 -94.984545 
L 265.568795 -91.060909 
L 265.568795 -87.137273 
L 265.568795 -83.213636 
L 265.568795 -79.29 
z
" style="stroke: #4b4b4b"/>
    </defs>
    <g clip-path="url(#pf6a79c3766)">
     <use xlink:href="#m2609773736" x="0" y="504" style="fill: #cc9f2f; stroke: #4b4b4b"/>
    </g>
   </g>
   <g id="PathCollection_3">
    <defs>
     <path id="C2_0_6bc4a1c6fc" d="M 0 3.383948 
C 0.897434 3.383948 1.758231 3.027394 2.392813 2.392813 
C 3.027394 1.758231 3.383948 0.897434 3.383948 -0 
C 3.383948 -0.897434 3.027394 -1.758231 2.392813 -2.392813 
C 1.758231 -3.027394 0.897434 -3.383948 0 -3.383948 
C -0.897434 -3.383948 -1.758231 -3.027394 -2.392813 -2.392813 
C -3.027394 -1.758231 -3.383948 -0.897434 -3.383948 0 
C -3.383948 0.897434 -3.027394 1.758231 -2.392813 2.392813 
C -1.758231 3.027394 -0.897434 3.383948 0 3.383948 
z
"/>
    </defs>
    <g clip-path="url(#pf6a79c3766)">
     <use xlink:href="#C2_0_6bc4a1c6fc" x="147.346767" y="191.456702" style="fill: #ff0000; stroke: #ff0000; stroke-width: 2.025"/>
    </g>
    <g clip-path="url(#pf6a79c3766)">
     <use xlink:href="#C2_0_6bc4a1c6fc" x="295.124301" y="175.114412" style="fill: #ff0000; stroke: #ff0000; stroke-width: 2.025"/>
    </g>
   </g>
   <g id="line2d_1">
    <path d="M 141.80511 374.356667 
L 152.888425 374.356667 
" clip-path="url(#pf6a79c3766)" style="fill: none; stroke: #4b4b4b; stroke-width: 1.5; stroke-linecap: round"/>
   </g>
   <g id="line2d_2">
    <path d="M 141.80511 36.27 
L 152.888425 36.27 
" clip-path="url(#pf6a79c3766)" style="fill: none; stroke: #4b4b4b; stroke-width: 1.5; stroke-linecap: round"/>
   </g>
   <g id="line2d_3"/>
   <g id="line2d_4">
    <path d="M 289.582644 327.6 
L 300.665959 327.6 
" clip-path="url(#pf6a79c3766)" style="fill: none; stroke: #4b4b4b; stroke-width: 1.5; stroke-linecap: round"/>
   </g>
   <g id="line2d_5">
    <path d="M 289.582644 36.27 
L 300.665959 36.27 
" clip-path="url(#pf6a79c3766)" style="fill: none; stroke: #4b4b4b; stroke-width: 1.5; stroke-linecap: round"/>
   </g>
   <g id="line2d_6">
    <defs>
     <path id="mb7e9025c52" d="M -0 3.535534 
L 2.12132 0 
L -0 -3.535534 
L -2.12132 -0 
z
" style="stroke: #4b4b4b; stroke-linejoin: miter"/>
    </defs>
    <g clip-path="url(#pf6a79c3766)">
     <use xlink:href="#mb7e9025c52" x="295.124301" y="424.71" style="fill: #4b4b4b; stroke: #4b4b4b; stroke-linejoin: miter"/>
     <use xlink:href="#mb7e9025c52" x="295.124301" y="395.936667" style="fill: #4b4b4b; stroke: #4b4b4b; stroke-linejoin: miter"/>
    </g>
   </g>
   <g id="line2d_7">
    <path d="M 147.346767 191.456702 
L 295.124301 175.114412 
" clip-path="url(#pf6a79c3766)" style="fill: none; stroke: #ff0000; stroke-width: 2.7; stroke-linecap: round"/>
   </g>
   <g id="line2d_8">
    <path d="M 147.346767 210.412082 
L 147.346767 173.897081 
" clip-path="url(#pf6a79c3766)" style="fill: none"/>
   </g>
   <g id="line2d_9">
    <path d="M 147.346767 210.412082 
L 147.346767 210.412082 
" clip-path="url(#pf6a79c3766)" style="fill: none"/>
   </g>
   <g id="line2d_10">
    <path d="M 147.346767 173.897081 
L 147.346767 173.897081 
" clip-path="url(#pf6a79c3766)" style="fill: none"/>
   </g>
   <g id="line2d_11">
    <path d="M 295.124301 196.828797 
L 295.124301 155.377213 
" clip-path="url(#pf6a79c3766)" style="fill: none"/>
   </g>
   <g id="line2d_12">
    <path d="M 295.124301 196.828797 
L 295.124301 196.828797 
" clip-path="url(#pf6a79c3766)" style="fill: none"/>
   </g>
   <g id="line2d_13">
    <path d="M 295.124301 155.377213 
L 295.124301 155.377213 
" clip-path="url(#pf6a79c3766)" style="fill: none"/>
   </g>
   <g id="line2d_14">
    <path d="M 136.263452 180.136667 
L 158.430082 180.136667 
" clip-path="url(#pf6a79c3766)" style="fill: none; stroke: #4b4b4b; stroke-width: 1.5; stroke-linecap: round"/>
   </g>
   <g id="line2d_15">
    <path d="M 284.040986 158.556667 
L 306.207616 158.556667 
" clip-path="url(#pf6a79c3766)" style="fill: none; stroke: #4b4b4b; stroke-width: 1.5; stroke-linecap: round"/>
   </g>
   <g id="patch_3">
    <path d="M 73.458 444.132 
L 73.458 16.848 
" style="fill: none; stroke: #262626; stroke-width: 1.25; stroke-linejoin: miter; stroke-linecap: square"/>
   </g>
   <g id="patch_4">
    <path d="M 343.152 444.132 
L 343.152 16.848 
" style="fill: none; stroke: #262626; stroke-width: 1.25; stroke-linejoin: miter; stroke-linecap: square"/>
   </g>
   <g id="patch_5">
    <path d="M 73.458 444.132 
L 343.152 444.132 
" style="fill: none; stroke: #262626; stroke-width: 1.25; stroke-linejoin: miter; stroke-linecap: square"/>
   </g>
   <g id="patch_6">
    <path d="M 73.458 16.848 
L 343.152 16.848 
" style="fill: none; stroke: #262626; stroke-width: 1.25; stroke-linejoin: miter; stroke-linecap: square"/>
   </g>
   <g id="patch_7">
    <path d="M 136.263452 237.683333 
L 158.430082 237.683333 
L 158.430082 136.976667 
L 136.263452 136.976667 
L 136.263452 237.683333 
L 136.263452 237.683333 
z
" clip-path="url(#pf6a79c3766)" style="fill: none; stroke: #4b4b4b; stroke-width: 1.5; stroke-linejoin: miter"/>
   </g>
   <g id="line2d_16">
    <path d="M 147.346767 237.683333 
L 147.346767 374.356667 
" clip-path="url(#pf6a79c3766)" style="fill: none; stroke: #4b4b4b; stroke-width: 2; stroke-linecap: round"/>
   </g>
   <g id="line2d_17">
    <path d="M 147.346767 136.976667 
L 147.346767 36.27 
" clip-path="url(#pf6a79c3766)" style="fill: none; stroke: #4b4b4b; stroke-width: 2; stroke-linecap: round"/>
   </g>
   <g id="patch_8">
    <path d="M 284.040986 208.91 
L 306.207616 208.91 
L 306.207616 118.993333 
L 284.040986 118.993333 
L 284.040986 208.91 
L 284.040986 208.91 
z
" clip-path="url(#pf6a79c3766)" style="fill: none; stroke: #4b4b4b; stroke-width: 1.5; stroke-linejoin: miter"/>
   </g>
   <g id="line2d_18">
    <path d="M 295.124301 208.91 
L 295.124301 327.6 
" clip-path="url(#pf6a79c3766)" style="fill: none; stroke: #4b4b4b; stroke-width: 2; stroke-linecap: round"/>
   </g>
   <g id="line2d_19">
    <path d="M 295.124301 118.993333 
L 295.124301 36.27 
" clip-path="url(#pf6a79c3766)" style="fill: none; stroke: #4b4b4b; stroke-width: 2; stroke-linecap: round"/>
   </g>
  </g>
 </g>
 <defs>
  <clipPath id="pf6a79c3766">
   <rect x="73.458" y="16.848" width="269.694" height="427.284"/>
  </clipPath>
 </defs>
</svg>
