<?xml version="1.0" encoding="utf-8" standalone="no"?>
<!DOCTYPE svg PUBLIC "-//W3C//DTD SVG 1.1//EN"
  "http://www.w3.org/Graphics/SVG/1.1/DTD/svg11.dtd">
<svg xmlns:xlink="http://www.w3.org/1999/xlink" width="432pt" height="216pt" viewBox="0 0 432 216" xmlns="http://www.w3.org/2000/svg" version="1.1">
 <metadata>
  <rdf:RDF xmlns:dc="http://purl.org/dc/elements/1.1/" xmlns:cc="http://creativecommons.org/ns#" xmlns:rdf="http://www.w3.org/1999/02/22-rdf-syntax-ns#">
   <cc:Work>
    <dc:type rdf:resource="http://purl.org/dc/dcmitype/StillImage"/>
    <dc:date>2023-08-18T14:02:03.651941</dc:date>
    <dc:format>image/svg+xml</dc:format>
    <dc:creator>
     <cc:Agent>
      <dc:title>Matplotlib v3.7.1, https://matplotlib.org/</dc:title>
     </cc:Agent>
    </dc:creator>
   </cc:Work>
  </rdf:RDF>
 </metadata>
 <defs>
  <style type="text/css">*{stroke-linejoin: round; stroke-linecap: butt}</style>
 </defs>
 <g id="figure_1">
  <g id="patch_1">
   <path d="M 0 216 
L 432 216 
L 432 0 
L 0 0 
z
" style="fill: #ffffff"/>
  </g>
  <g id="axes_1">
   <g id="patch_2">
    <path d="M 87.018 166.62 
L 245.7465 166.62 
L 245.7465 15.36 
L 87.018 15.36 
z
" style="fill: #ffffff"/>
   </g>
   <g id="matplotlib.axis_1">
    <g id="xtick_1">
     <g id="text_1">
      <!-- 60 -->
      <g style="fill: #262626" transform="translate(100.086717 185.238125) scale(0.12 -0.12)">
       <defs>
        <path id="DejaVuSerif-36" d="M 2094 219 
Q 2534 219 2771 542 
Q 3009 866 3009 1472 
Q 3009 2078 2771 2401 
Q 2534 2725 2094 2725 
Q 1647 2725 1412 2412 
Q 1178 2100 1178 1509 
Q 1178 888 1415 553 
Q 1653 219 2094 219 
z
M 1075 2569 
Q 1288 2803 1556 2918 
Q 1825 3034 2163 3034 
Q 2859 3034 3264 2615 
Q 3669 2197 3669 1472 
Q 3669 763 3233 336 
Q 2797 -91 2069 -91 
Q 1278 -91 853 498 
Q 428 1088 428 2181 
Q 428 3406 931 4078 
Q 1434 4750 2350 4750 
Q 2597 4750 2869 4703 
Q 3141 4656 3425 4563 
L 3425 3794 
L 3072 3794 
Q 3034 4109 2831 4275 
Q 2628 4441 2284 4441 
Q 1678 4441 1381 3981 
Q 1084 3522 1075 2569 
z
" transform="scale(0.015625)"/>
        <path id="DejaVuSerif-30" d="M 2034 219 
Q 2513 219 2750 744 
Q 2988 1269 2988 2328 
Q 2988 3391 2750 3916 
Q 2513 4441 2034 4441 
Q 1556 4441 1318 3916 
Q 1081 3391 1081 2328 
Q 1081 1269 1318 744 
Q 1556 219 2034 219 
z
M 2034 -91 
Q 1275 -91 848 546 
Q 422 1184 422 2328 
Q 422 3475 848 4112 
Q 1275 4750 2034 4750 
Q 2797 4750 3222 4112 
Q 3647 3475 3647 2328 
Q 3647 1184 3222 546 
Q 2797 -91 2034 -91 
z
" transform="scale(0.015625)"/>
       </defs>
       <use xlink:href="#DejaVuSerif-36"/>
       <use xlink:href="#DejaVuSerif-30" x="63.623047"/>
      </g>
     </g>
    </g>
    <g id="xtick_2">
     <g id="text_2">
      <!-- 120 -->
      <g style="fill: #262626" transform="translate(137.676652 185.238125) scale(0.12 -0.12)">
       <defs>
        <path id="DejaVuSerif-31" d="M 909 0 
L 909 331 
L 1722 331 
L 1722 4213 
L 781 3603 
L 781 4013 
L 1919 4750 
L 2350 4750 
L 2350 331 
L 3163 331 
L 3163 0 
L 909 0 
z
" transform="scale(0.015625)"/>
        <path id="DejaVuSerif-32" d="M 819 3553 
L 469 3553 
L 469 4384 
Q 803 4563 1142 4656 
Q 1481 4750 1806 4750 
Q 2534 4750 2956 4397 
Q 3378 4044 3378 3438 
Q 3378 2753 2422 1800 
Q 2347 1728 2309 1691 
L 1131 513 
L 3078 513 
L 3078 1088 
L 3444 1088 
L 3444 0 
L 434 0 
L 434 341 
L 1850 1753 
Q 2319 2222 2519 2614 
Q 2719 3006 2719 3438 
Q 2719 3909 2473 4175 
Q 2228 4441 1797 4441 
Q 1350 4441 1106 4219 
Q 863 3997 819 3553 
z
" transform="scale(0.015625)"/>
       </defs>
       <use xlink:href="#DejaVuSerif-31"/>
       <use xlink:href="#DejaVuSerif-32" x="63.623047"/>
       <use xlink:href="#DejaVuSerif-30" x="127.246094"/>
      </g>
     </g>
    </g>
    <g id="xtick_3">
     <g id="text_3">
      <!-- 180 -->
      <g style="fill: #262626" transform="translate(179.084087 185.238125) scale(0.12 -0.12)">
       <defs>
        <path id="DejaVuSerif-38" d="M 2981 1275 
Q 2981 1775 2732 2051 
Q 2484 2328 2034 2328 
Q 1584 2328 1336 2051 
Q 1088 1775 1088 1275 
Q 1088 772 1336 495 
Q 1584 219 2034 219 
Q 2484 219 2732 495 
Q 2981 772 2981 1275 
z
M 2853 3541 
Q 2853 3966 2637 4203 
Q 2422 4441 2034 4441 
Q 1650 4441 1433 4203 
Q 1216 3966 1216 3541 
Q 1216 3113 1433 2875 
Q 1650 2638 2034 2638 
Q 2422 2638 2637 2875 
Q 2853 3113 2853 3541 
z
M 2516 2484 
Q 3047 2413 3344 2092 
Q 3641 1772 3641 1275 
Q 3641 619 3225 264 
Q 2809 -91 2034 -91 
Q 1263 -91 845 264 
Q 428 619 428 1275 
Q 428 1772 725 2092 
Q 1022 2413 1556 2484 
Q 1084 2569 832 2842 
Q 581 3116 581 3541 
Q 581 4103 968 4426 
Q 1356 4750 2034 4750 
Q 2713 4750 3100 4426 
Q 3488 4103 3488 3541 
Q 3488 3116 3236 2842 
Q 2984 2569 2516 2484 
z
" transform="scale(0.015625)"/>
       </defs>
       <use xlink:href="#DejaVuSerif-31"/>
       <use xlink:href="#DejaVuSerif-38" x="63.623047"/>
       <use xlink:href="#DejaVuSerif-30" x="127.246094"/>
      </g>
     </g>
    </g>
    <g id="xtick_4">
     <g id="text_4">
      <!-- 240 -->
      <g style="fill: #262626" transform="translate(220.491522 185.238125) scale(0.12 -0.12)">
       <defs>
        <path id="DejaVuSerif-34" d="M 2234 1581 
L 2234 4063 
L 641 1581 
L 2234 1581 
z
M 3609 0 
L 1484 0 
L 1484 331 
L 2234 331 
L 2234 1247 
L 197 1247 
L 197 1588 
L 2241 4750 
L 2859 4750 
L 2859 1581 
L 3750 1581 
L 3750 1247 
L 2859 1247 
L 2859 331 
L 3609 331 
L 3609 0 
z
" transform="scale(0.015625)"/>
       </defs>
       <use xlink:href="#DejaVuSerif-32"/>
       <use xlink:href="#DejaVuSerif-34" x="63.623047"/>
       <use xlink:href="#DejaVuSerif-30" x="127.246094"/>
      </g>
     </g>
    </g>
    <g id="text_5">
     <!-- Duration (s) -->
     <g style="fill: #262626" transform="translate(120.639281 203.131406) scale(0.15 -0.15)">
      <defs>
       <path id="DejaVuSerif-44" d="M 1581 331 
L 2163 331 
Q 3072 331 3558 850 
Q 4044 1369 4044 2338 
Q 4044 3306 3559 3818 
Q 3075 4331 2163 4331 
L 1581 4331 
L 1581 331 
z
M 353 0 
L 353 331 
L 947 331 
L 947 4331 
L 353 4331 
L 353 4666 
L 2209 4666 
Q 3416 4666 4089 4050 
Q 4763 3434 4763 2338 
Q 4763 1238 4088 619 
Q 3413 0 2209 0 
L 353 0 
z
" transform="scale(0.015625)"/>
       <path id="DejaVuSerif-75" d="M 2266 3322 
L 3341 3322 
L 3341 331 
L 3884 331 
L 3884 0 
L 2766 0 
L 2766 588 
Q 2606 256 2353 82 
Q 2100 -91 1766 -91 
Q 1213 -91 952 223 
Q 691 538 691 1209 
L 691 2988 
L 172 2988 
L 172 3322 
L 1269 3322 
L 1269 1388 
Q 1269 781 1417 556 
Q 1566 331 1947 331 
Q 2347 331 2556 625 
Q 2766 919 2766 1478 
L 2766 2988 
L 2266 2988 
L 2266 3322 
z
" transform="scale(0.015625)"/>
       <path id="DejaVuSerif-72" d="M 3059 3328 
L 3059 2497 
L 2728 2497 
Q 2713 2744 2591 2866 
Q 2469 2988 2234 2988 
Q 1809 2988 1582 2694 
Q 1356 2400 1356 1850 
L 1356 331 
L 2022 331 
L 2022 0 
L 263 0 
L 263 331 
L 781 331 
L 781 2994 
L 231 2994 
L 231 3322 
L 1356 3322 
L 1356 2731 
Q 1525 3078 1790 3245 
Q 2056 3413 2438 3413 
Q 2578 3413 2733 3391 
Q 2888 3369 3059 3328 
z
" transform="scale(0.015625)"/>
       <path id="DejaVuSerif-61" d="M 2547 1044 
L 2547 1747 
L 1806 1747 
Q 1378 1747 1168 1562 
Q 959 1378 959 997 
Q 959 650 1171 447 
Q 1384 244 1747 244 
Q 2106 244 2326 466 
Q 2547 688 2547 1044 
z
M 3122 2075 
L 3122 331 
L 3634 331 
L 3634 0 
L 2547 0 
L 2547 359 
Q 2356 128 2106 18 
Q 1856 -91 1522 -91 
Q 969 -91 644 203 
Q 319 497 319 997 
Q 319 1513 691 1797 
Q 1063 2081 1741 2081 
L 2547 2081 
L 2547 2309 
Q 2547 2688 2317 2895 
Q 2088 3103 1672 3103 
Q 1328 3103 1125 2947 
Q 922 2791 872 2484 
L 575 2484 
L 575 3156 
Q 875 3284 1158 3348 
Q 1441 3413 1709 3413 
Q 2400 3413 2761 3070 
Q 3122 2728 3122 2075 
z
" transform="scale(0.015625)"/>
       <path id="DejaVuSerif-74" d="M 691 2988 
L 184 2988 
L 184 3322 
L 691 3322 
L 691 4353 
L 1269 4353 
L 1269 3322 
L 2350 3322 
L 2350 2988 
L 1269 2988 
L 1269 878 
Q 1269 456 1350 337 
Q 1431 219 1650 219 
Q 1875 219 1978 351 
Q 2081 484 2088 781 
L 2522 781 
Q 2497 328 2275 118 
Q 2053 -91 1600 -91 
Q 1103 -91 897 129 
Q 691 350 691 878 
L 691 2988 
z
" transform="scale(0.015625)"/>
       <path id="DejaVuSerif-69" d="M 622 4353 
Q 622 4497 726 4603 
Q 831 4709 978 4709 
Q 1122 4709 1226 4603 
Q 1331 4497 1331 4353 
Q 1331 4206 1228 4103 
Q 1125 4000 978 4000 
Q 831 4000 726 4103 
Q 622 4206 622 4353 
z
M 1356 331 
L 1900 331 
L 1900 0 
L 231 0 
L 231 331 
L 781 331 
L 781 2988 
L 231 2988 
L 231 3322 
L 1356 3322 
L 1356 331 
z
" transform="scale(0.015625)"/>
       <path id="DejaVuSerif-6f" d="M 1925 219 
Q 2388 219 2623 584 
Q 2859 950 2859 1663 
Q 2859 2375 2623 2739 
Q 2388 3103 1925 3103 
Q 1463 3103 1227 2739 
Q 991 2375 991 1663 
Q 991 950 1228 584 
Q 1466 219 1925 219 
z
M 1925 -91 
Q 1200 -91 759 389 
Q 319 869 319 1663 
Q 319 2456 758 2934 
Q 1197 3413 1925 3413 
Q 2653 3413 3092 2934 
Q 3531 2456 3531 1663 
Q 3531 869 3092 389 
Q 2653 -91 1925 -91 
z
" transform="scale(0.015625)"/>
       <path id="DejaVuSerif-6e" d="M 263 0 
L 263 331 
L 781 331 
L 781 2988 
L 231 2988 
L 231 3322 
L 1356 3322 
L 1356 2731 
Q 1516 3069 1770 3241 
Q 2025 3413 2363 3413 
Q 2913 3413 3172 3097 
Q 3431 2781 3431 2113 
L 3431 331 
L 3944 331 
L 3944 0 
L 2356 0 
L 2356 331 
L 2853 331 
L 2853 1931 
Q 2853 2541 2703 2767 
Q 2553 2994 2175 2994 
Q 1775 2994 1565 2701 
Q 1356 2409 1356 1850 
L 1356 331 
L 1856 331 
L 1856 0 
L 263 0 
z
" transform="scale(0.015625)"/>
       <path id="DejaVuSerif-20" transform="scale(0.015625)"/>
       <path id="DejaVuSerif-28" d="M 2041 -997 
Q 1281 -656 893 83 
Q 506 822 506 1931 
Q 506 3044 893 3783 
Q 1281 4522 2041 4863 
L 2041 4556 
Q 1559 4225 1350 3623 
Q 1141 3022 1141 1931 
Q 1141 844 1350 242 
Q 1559 -359 2041 -691 
L 2041 -997 
z
" transform="scale(0.015625)"/>
       <path id="DejaVuSerif-73" d="M 359 184 
L 359 959 
L 691 959 
Q 703 588 923 403 
Q 1144 219 1575 219 
Q 1963 219 2166 364 
Q 2369 509 2369 788 
Q 2369 1006 2220 1140 
Q 2072 1275 1594 1428 
L 1178 1569 
Q 750 1706 558 1912 
Q 366 2119 366 2438 
Q 366 2894 700 3153 
Q 1034 3413 1625 3413 
Q 1888 3413 2178 3344 
Q 2469 3275 2778 3144 
L 2778 2419 
L 2447 2419 
Q 2434 2741 2221 2922 
Q 2009 3103 1644 3103 
Q 1281 3103 1095 2975 
Q 909 2847 909 2591 
Q 909 2381 1050 2254 
Q 1191 2128 1613 1997 
L 2069 1856 
Q 2541 1709 2748 1489 
Q 2956 1269 2956 922 
Q 2956 450 2595 179 
Q 2234 -91 1600 -91 
Q 1278 -91 972 -22 
Q 666 47 359 184 
z
" transform="scale(0.015625)"/>
       <path id="DejaVuSerif-29" d="M 453 -997 
L 453 -691 
Q 934 -359 1145 242 
Q 1356 844 1356 1931 
Q 1356 3022 1145 3623 
Q 934 4225 453 4556 
L 453 4863 
Q 1216 4522 1603 3783 
Q 1991 3044 1991 1931 
Q 1991 822 1603 83 
Q 1216 -656 453 -997 
z
" transform="scale(0.015625)"/>
      </defs>
      <use xlink:href="#DejaVuSerif-44"/>
      <use xlink:href="#DejaVuSerif-75" x="80.175781"/>
      <use xlink:href="#DejaVuSerif-72" x="144.580078"/>
      <use xlink:href="#DejaVuSerif-61" x="192.382812"/>
      <use xlink:href="#DejaVuSerif-74" x="252.001953"/>
      <use xlink:href="#DejaVuSerif-69" x="292.1875"/>
      <use xlink:href="#DejaVuSerif-6f" x="324.169922"/>
      <use xlink:href="#DejaVuSerif-6e" x="384.375"/>
      <use xlink:href="#DejaVuSerif-20" x="448.779297"/>
      <use xlink:href="#DejaVuSerif-28" x="480.566406"/>
      <use xlink:href="#DejaVuSerif-73" x="519.580078"/>
      <use xlink:href="#DejaVuSerif-29" x="570.898438"/>
     </g>
    </g>
   </g>
   <g id="matplotlib.axis_2">
    <g id="ytick_1">
     <g id="text_6">
      <!-- 0 -->
      <g style="fill: #262626" transform="translate(68.419625 172.052883) scale(0.143 -0.143)">
       <use xlink:href="#DejaVuSerif-30"/>
      </g>
     </g>
    </g>
    <g id="ytick_2">
     <g id="text_7">
      <!-- 20 -->
      <g style="fill: #262626" transform="translate(59.32125 141.800883) scale(0.143 -0.143)">
       <use xlink:href="#DejaVuSerif-32"/>
       <use xlink:href="#DejaVuSerif-30" x="63.623047"/>
      </g>
     </g>
    </g>
    <g id="ytick_3">
     <g id="text_8">
      <!-- 40 -->
      <g style="fill: #262626" transform="translate(59.32125 111.548883) scale(0.143 -0.143)">
       <use xlink:href="#DejaVuSerif-34"/>
       <use xlink:href="#DejaVuSerif-30" x="63.623047"/>
      </g>
     </g>
    </g>
    <g id="ytick_4">
     <g id="text_9">
      <!-- 60 -->
      <g style="fill: #262626" transform="translate(59.32125 81.296883) scale(0.143 -0.143)">
       <use xlink:href="#DejaVuSerif-36"/>
       <use xlink:href="#DejaVuSerif-30" x="63.623047"/>
      </g>
     </g>
    </g>
    <g id="ytick_5">
     <g id="text_10">
      <!-- 80 -->
      <g style="fill: #262626" transform="translate(59.32125 51.044883) scale(0.143 -0.143)">
       <use xlink:href="#DejaVuSerif-38"/>
       <use xlink:href="#DejaVuSerif-30" x="63.623047"/>
      </g>
     </g>
    </g>
    <g id="ytick_6">
     <g id="text_11">
      <!-- 100 -->
      <g style="fill: #262626" transform="translate(50.222875 20.792883) scale(0.143 -0.143)">
       <use xlink:href="#DejaVuSerif-31"/>
       <use xlink:href="#DejaVuSerif-30" x="63.623047"/>
       <use xlink:href="#DejaVuSerif-30" x="127.246094"/>
      </g>
     </g>
    </g>
    <g id="text_12">
     <!-- Connectedness -->
     <g style="fill: #262626" transform="translate(25.509975 151.075594) rotate(-90) scale(0.156 -0.156)">
      <defs>
       <path id="DejaVuSerif-43" d="M 4513 1234 
Q 4306 581 3820 245 
Q 3334 -91 2591 -91 
Q 2134 -91 1743 65 
Q 1353 222 1050 525 
Q 700 875 529 1320 
Q 359 1766 359 2328 
Q 359 3416 987 4083 
Q 1616 4750 2644 4750 
Q 3025 4750 3456 4650 
Q 3888 4550 4384 4347 
L 4384 3272 
L 4031 3272 
Q 3916 3859 3567 4137 
Q 3219 4416 2591 4416 
Q 1844 4416 1459 3886 
Q 1075 3356 1075 2328 
Q 1075 1303 1459 773 
Q 1844 244 2591 244 
Q 3113 244 3450 492 
Q 3788 741 3938 1234 
L 4513 1234 
z
" transform="scale(0.015625)"/>
       <path id="DejaVuSerif-65" d="M 3469 1600 
L 991 1600 
L 991 1575 
Q 991 903 1244 561 
Q 1497 219 1991 219 
Q 2369 219 2611 417 
Q 2853 616 2950 1006 
L 3413 1006 
Q 3275 459 2904 184 
Q 2534 -91 1931 -91 
Q 1203 -91 761 389 
Q 319 869 319 1663 
Q 319 2450 753 2931 
Q 1188 3413 1894 3413 
Q 2647 3413 3050 2948 
Q 3453 2484 3469 1600 
z
M 2791 1931 
Q 2772 2513 2545 2808 
Q 2319 3103 1894 3103 
Q 1497 3103 1269 2806 
Q 1041 2509 991 1931 
L 2791 1931 
z
" transform="scale(0.015625)"/>
       <path id="DejaVuSerif-63" d="M 3291 997 
Q 3169 466 2822 187 
Q 2475 -91 1925 -91 
Q 1200 -91 759 389 
Q 319 869 319 1663 
Q 319 2459 759 2936 
Q 1200 3413 1925 3413 
Q 2241 3413 2553 3339 
Q 2866 3266 3181 3116 
L 3181 2266 
L 2847 2266 
Q 2781 2703 2561 2903 
Q 2341 3103 1931 3103 
Q 1466 3103 1228 2742 
Q 991 2381 991 1663 
Q 991 944 1227 581 
Q 1463 219 1931 219 
Q 2303 219 2525 412 
Q 2747 606 2828 997 
L 3291 997 
z
" transform="scale(0.015625)"/>
       <path id="DejaVuSerif-64" d="M 3359 331 
L 3909 331 
L 3909 0 
L 2784 0 
L 2784 519 
Q 2616 206 2355 57 
Q 2094 -91 1709 -91 
Q 1097 -91 708 395 
Q 319 881 319 1663 
Q 319 2444 706 2928 
Q 1094 3413 1709 3413 
Q 2094 3413 2355 3264 
Q 2616 3116 2784 2803 
L 2784 4531 
L 2241 4531 
L 2241 4863 
L 3359 4863 
L 3359 331 
z
M 2784 1497 
L 2784 1825 
Q 2784 2422 2554 2737 
Q 2325 3053 1888 3053 
Q 1444 3053 1217 2703 
Q 991 2353 991 1663 
Q 991 975 1217 622 
Q 1444 269 1888 269 
Q 2325 269 2554 583 
Q 2784 897 2784 1497 
z
" transform="scale(0.015625)"/>
      </defs>
      <use xlink:href="#DejaVuSerif-43"/>
      <use xlink:href="#DejaVuSerif-6f" x="76.513672"/>
      <use xlink:href="#DejaVuSerif-6e" x="136.71875"/>
      <use xlink:href="#DejaVuSerif-6e" x="201.123047"/>
      <use xlink:href="#DejaVuSerif-65" x="265.527344"/>
      <use xlink:href="#DejaVuSerif-63" x="324.707031"/>
      <use xlink:href="#DejaVuSerif-74" x="380.712891"/>
      <use xlink:href="#DejaVuSerif-65" x="420.898438"/>
      <use xlink:href="#DejaVuSerif-64" x="480.078125"/>
      <use xlink:href="#DejaVuSerif-6e" x="544.091797"/>
      <use xlink:href="#DejaVuSerif-65" x="608.496094"/>
      <use xlink:href="#DejaVuSerif-73" x="667.675781"/>
      <use xlink:href="#DejaVuSerif-73" x="718.994141"/>
     </g>
     <!--  to others -->
     <g style="fill: #262626" transform="translate(42.978563 128.979656) rotate(-90) scale(0.156 -0.156)">
      <defs>
       <path id="DejaVuSerif-68" d="M 263 0 
L 263 331 
L 781 331 
L 781 4531 
L 231 4531 
L 231 4863 
L 1356 4863 
L 1356 2731 
Q 1516 3069 1770 3241 
Q 2025 3413 2363 3413 
Q 2913 3413 3172 3097 
Q 3431 2781 3431 2113 
L 3431 331 
L 3944 331 
L 3944 0 
L 2356 0 
L 2356 331 
L 2853 331 
L 2853 1931 
Q 2853 2541 2704 2764 
Q 2556 2988 2175 2988 
Q 1775 2988 1565 2697 
Q 1356 2406 1356 1850 
L 1356 331 
L 1856 331 
L 1856 0 
L 263 0 
z
" transform="scale(0.015625)"/>
      </defs>
      <use xlink:href="#DejaVuSerif-20"/>
      <use xlink:href="#DejaVuSerif-74" x="31.787109"/>
      <use xlink:href="#DejaVuSerif-6f" x="71.972656"/>
      <use xlink:href="#DejaVuSerif-20" x="132.177734"/>
      <use xlink:href="#DejaVuSerif-6f" x="163.964844"/>
      <use xlink:href="#DejaVuSerif-74" x="224.169922"/>
      <use xlink:href="#DejaVuSerif-68" x="264.355469"/>
      <use xlink:href="#DejaVuSerif-65" x="328.759766"/>
      <use xlink:href="#DejaVuSerif-72" x="387.939453"/>
      <use xlink:href="#DejaVuSerif-73" x="435.742188"/>
     </g>
    </g>
   </g>
   <g id="PathCollection_1">
    <defs>
     <path id="ma387329ac2" d="M 0 3 
C 0.795609 3 1.55874 2.683901 2.12132 2.12132 
C 2.683901 1.55874 3 0.795609 3 0 
C 3 -0.795609 2.683901 -1.55874 2.12132 -2.12132 
C 1.55874 -2.683901 0.795609 -3 0 -3 
C -0.795609 -3 -1.55874 -2.683901 -2.12132 -2.12132 
C -2.683901 -1.55874 -3 -0.795609 -3 0 
C -3 0.795609 -2.683901 1.55874 -2.12132 2.12132 
C -1.55874 2.683901 -0.795609 3 0 3 
z
" style="stroke: #3d8af9; stroke-opacity: 0.8"/>
    </defs>
    <g clip-path="url(#p3f0eef311f)">
     <use xlink:href="#ma387329ac2" x="99.38272" y="17.881" style="fill: #3d8af9; fill-opacity: 0.8; stroke: #3d8af9; stroke-opacity: 0.8"/>
     <use xlink:href="#ma387329ac2" x="99.38272" y="36.7885" style="fill: #3d8af9; fill-opacity: 0.8; stroke: #3d8af9; stroke-opacity: 0.8"/>
     <use xlink:href="#ma387329ac2" x="99.38272" y="25.444" style="fill: #3d8af9; fill-opacity: 0.8; stroke: #3d8af9; stroke-opacity: 0.8"/>
     <use xlink:href="#ma387329ac2" x="99.38272" y="45.612" style="fill: #3d8af9; fill-opacity: 0.8; stroke: #3d8af9; stroke-opacity: 0.8"/>
     <use xlink:href="#ma387329ac2" x="99.38272" y="42.8389" style="fill: #3d8af9; fill-opacity: 0.8; stroke: #3d8af9; stroke-opacity: 0.8"/>
     <use xlink:href="#ma387329ac2" x="111.977482" y="93.511" style="fill: #3d8af9; fill-opacity: 0.8; stroke: #3d8af9; stroke-opacity: 0.8"/>
     <use xlink:href="#ma387329ac2" x="111.977482" y="70.822" style="fill: #3d8af9; fill-opacity: 0.8; stroke: #3d8af9; stroke-opacity: 0.8"/>
     <use xlink:href="#ma387329ac2" x="111.977482" y="68.301" style="fill: #3d8af9; fill-opacity: 0.8; stroke: #3d8af9; stroke-opacity: 0.8"/>
     <use xlink:href="#ma387329ac2" x="111.977482" y="75.864" style="fill: #3d8af9; fill-opacity: 0.8; stroke: #3d8af9; stroke-opacity: 0.8"/>
     <use xlink:href="#ma387329ac2" x="111.977482" y="35.528" style="fill: #3d8af9; fill-opacity: 0.8; stroke: #3d8af9; stroke-opacity: 0.8"/>
     <use xlink:href="#ma387329ac2" x="111.977482" y="85.6959" style="fill: #3d8af9; fill-opacity: 0.8; stroke: #3d8af9; stroke-opacity: 0.8"/>
     <use xlink:href="#ma387329ac2" x="111.977482" y="51.9145" style="fill: #3d8af9; fill-opacity: 0.8; stroke: #3d8af9; stroke-opacity: 0.8"/>
     <use xlink:href="#ma387329ac2" x="201.348528" y="46.8725" style="fill: #3d8af9; fill-opacity: 0.8; stroke: #3d8af9; stroke-opacity: 0.8"/>
     <use xlink:href="#ma387329ac2" x="201.348528" y="53.175" style="fill: #3d8af9; fill-opacity: 0.8; stroke: #3d8af9; stroke-opacity: 0.8"/>
     <use xlink:href="#ma387329ac2" x="201.348528" y="60.738" style="fill: #3d8af9; fill-opacity: 0.8; stroke: #3d8af9; stroke-opacity: 0.8"/>
     <use xlink:href="#ma387329ac2" x="201.348528" y="50.654" style="fill: #3d8af9; fill-opacity: 0.8; stroke: #3d8af9; stroke-opacity: 0.8"/>
     <use xlink:href="#ma387329ac2" x="201.348528" y="80.906" style="fill: #3d8af9; fill-opacity: 0.8; stroke: #3d8af9; stroke-opacity: 0.8"/>
     <use xlink:href="#ma387329ac2" x="201.348528" y="48.133" style="fill: #3d8af9; fill-opacity: 0.8; stroke: #3d8af9; stroke-opacity: 0.8"/>
     <use xlink:href="#ma387329ac2" x="201.348528" y="65.0237" style="fill: #3d8af9; fill-opacity: 0.8; stroke: #3d8af9; stroke-opacity: 0.8"/>
     <use xlink:href="#ma387329ac2" x="201.348528" y="64.5195" style="fill: #3d8af9; fill-opacity: 0.8; stroke: #3d8af9; stroke-opacity: 0.8"/>
     <use xlink:href="#ma387329ac2" x="201.348528" y="64.5195" style="fill: #3d8af9; fill-opacity: 0.8; stroke: #3d8af9; stroke-opacity: 0.8"/>
     <use xlink:href="#ma387329ac2" x="211.470346" y="59.4775" style="fill: #3d8af9; fill-opacity: 0.8; stroke: #3d8af9; stroke-opacity: 0.8"/>
     <use xlink:href="#ma387329ac2" x="211.470346" y="27.965" style="fill: #3d8af9; fill-opacity: 0.8; stroke: #3d8af9; stroke-opacity: 0.8"/>
     <use xlink:href="#ma387329ac2" x="211.470346" y="74.6035" style="fill: #3d8af9; fill-opacity: 0.8; stroke: #3d8af9; stroke-opacity: 0.8"/>
     <use xlink:href="#ma387329ac2" x="211.470346" y="119.9815" style="fill: #3d8af9; fill-opacity: 0.8; stroke: #3d8af9; stroke-opacity: 0.8"/>
     <use xlink:href="#ma387329ac2" x="211.470346" y="50.654" style="fill: #3d8af9; fill-opacity: 0.8; stroke: #3d8af9; stroke-opacity: 0.8"/>
     <use xlink:href="#ma387329ac2" x="211.470346" y="97.2925" style="fill: #3d8af9; fill-opacity: 0.8; stroke: #3d8af9; stroke-opacity: 0.8"/>
     <use xlink:href="#ma387329ac2" x="182.945224" y="46.8725" style="fill: #3d8af9; fill-opacity: 0.8; stroke: #3d8af9; stroke-opacity: 0.8"/>
     <use xlink:href="#ma387329ac2" x="182.945224" y="60.738" style="fill: #3d8af9; fill-opacity: 0.8; stroke: #3d8af9; stroke-opacity: 0.8"/>
     <use xlink:href="#ma387329ac2" x="182.945224" y="38.049" style="fill: #3d8af9; fill-opacity: 0.8; stroke: #3d8af9; stroke-opacity: 0.8"/>
     <use xlink:href="#ma387329ac2" x="182.945224" y="154.015" style="fill: #3d8af9; fill-opacity: 0.8; stroke: #3d8af9; stroke-opacity: 0.8"/>
     <use xlink:href="#ma387329ac2" x="182.945224" y="40.57" style="fill: #3d8af9; fill-opacity: 0.8; stroke: #3d8af9; stroke-opacity: 0.8"/>
     <use xlink:href="#ma387329ac2" x="182.945224" y="40.57" style="fill: #3d8af9; fill-opacity: 0.8; stroke: #3d8af9; stroke-opacity: 0.8"/>
     <use xlink:href="#ma387329ac2" x="222.224777" y="44.3515" style="fill: #3d8af9; fill-opacity: 0.8; stroke: #3d8af9; stroke-opacity: 0.8"/>
     <use xlink:href="#ma387329ac2" x="222.224777" y="70.3178" style="fill: #3d8af9; fill-opacity: 0.8; stroke: #3d8af9; stroke-opacity: 0.8"/>
     <use xlink:href="#ma387329ac2" x="222.224777" y="143.931" style="fill: #3d8af9; fill-opacity: 0.8; stroke: #3d8af9; stroke-opacity: 0.8"/>
     <use xlink:href="#ma387329ac2" x="222.224777" y="58.217" style="fill: #3d8af9; fill-opacity: 0.8; stroke: #3d8af9; stroke-opacity: 0.8"/>
     <use xlink:href="#ma387329ac2" x="222.224777" y="58.217" style="fill: #3d8af9; fill-opacity: 0.8; stroke: #3d8af9; stroke-opacity: 0.8"/>
     <use xlink:href="#ma387329ac2" x="222.224777" y="70.822" style="fill: #3d8af9; fill-opacity: 0.8; stroke: #3d8af9; stroke-opacity: 0.8"/>
     <use xlink:href="#ma387329ac2" x="148.324008" y="94.7715" style="fill: #3d8af9; fill-opacity: 0.8; stroke: #3d8af9; stroke-opacity: 0.8"/>
     <use xlink:href="#ma387329ac2" x="148.324008" y="65.78" style="fill: #3d8af9; fill-opacity: 0.8; stroke: #3d8af9; stroke-opacity: 0.8"/>
     <use xlink:href="#ma387329ac2" x="148.324008" y="38.049" style="fill: #3d8af9; fill-opacity: 0.8; stroke: #3d8af9; stroke-opacity: 0.8"/>
     <use xlink:href="#ma387329ac2" x="148.324008" y="68.301" style="fill: #3d8af9; fill-opacity: 0.8; stroke: #3d8af9; stroke-opacity: 0.8"/>
     <use xlink:href="#ma387329ac2" x="148.324008" y="55.696" style="fill: #3d8af9; fill-opacity: 0.8; stroke: #3d8af9; stroke-opacity: 0.8"/>
     <use xlink:href="#ma387329ac2" x="148.324008" y="59.4775" style="fill: #3d8af9; fill-opacity: 0.8; stroke: #3d8af9; stroke-opacity: 0.8"/>
     <use xlink:href="#ma387329ac2" x="148.324008" y="44.3515" style="fill: #3d8af9; fill-opacity: 0.8; stroke: #3d8af9; stroke-opacity: 0.8"/>
     <use xlink:href="#ma387329ac2" x="215.78362" y="111.158" style="fill: #3d8af9; fill-opacity: 0.8; stroke: #3d8af9; stroke-opacity: 0.8"/>
     <use xlink:href="#ma387329ac2" x="215.78362" y="83.427" style="fill: #3d8af9; fill-opacity: 0.8; stroke: #3d8af9; stroke-opacity: 0.8"/>
     <use xlink:href="#ma387329ac2" x="215.78362" y="65.78" style="fill: #3d8af9; fill-opacity: 0.8; stroke: #3d8af9; stroke-opacity: 0.8"/>
     <use xlink:href="#ma387329ac2" x="215.78362" y="106.116" style="fill: #3d8af9; fill-opacity: 0.8; stroke: #3d8af9; stroke-opacity: 0.8"/>
     <use xlink:href="#ma387329ac2" x="215.78362" y="96.032" style="fill: #3d8af9; fill-opacity: 0.8; stroke: #3d8af9; stroke-opacity: 0.8"/>
     <use xlink:href="#ma387329ac2" x="215.78362" y="85.948" style="fill: #3d8af9; fill-opacity: 0.8; stroke: #3d8af9; stroke-opacity: 0.8"/>
     <use xlink:href="#ma387329ac2" x="215.78362" y="57.7128" style="fill: #3d8af9; fill-opacity: 0.8; stroke: #3d8af9; stroke-opacity: 0.8"/>
     <use xlink:href="#ma387329ac2" x="215.78362" y="69.5615" style="fill: #3d8af9; fill-opacity: 0.8; stroke: #3d8af9; stroke-opacity: 0.8"/>
     <use xlink:href="#ma387329ac2" x="215.78362" y="116.2" style="fill: #3d8af9; fill-opacity: 0.8; stroke: #3d8af9; stroke-opacity: 0.8"/>
    </g>
   </g>
   <g id="PolyCollection_1">
    <defs>
     <path id="me5bdacdd49" d="M 99.38272 -178.095864 
L 99.38272 -153.181491 
L 100.623549 -153.098861 
L 101.864378 -153.009613 
L 103.105207 -152.852442 
L 104.346036 -152.744451 
L 105.586864 -152.648735 
L 106.827693 -152.553019 
L 108.068522 -152.426691 
L 109.309351 -152.221467 
L 110.55018 -152.041751 
L 111.791009 -151.849281 
L 113.031837 -151.656811 
L 114.272666 -151.492344 
L 115.513495 -151.408165 
L 116.754324 -151.323987 
L 117.995153 -151.240787 
L 119.235982 -151.154407 
L 120.476811 -150.902272 
L 121.717639 -150.833514 
L 122.958468 -150.808066 
L 124.199297 -150.719444 
L 125.440126 -150.588152 
L 126.680955 -150.456859 
L 127.921784 -150.341011 
L 129.162613 -150.215756 
L 130.403441 -150.094282 
L 131.64427 -149.928683 
L 132.885099 -149.809273 
L 134.125928 -149.660859 
L 135.366757 -149.480311 
L 136.607586 -149.361565 
L 137.848415 -149.260731 
L 139.089243 -149.126799 
L 140.330072 -148.993009 
L 141.570901 -148.849747 
L 142.81173 -148.635602 
L 144.052559 -148.448206 
L 145.293388 -148.407031 
L 146.534217 -148.286202 
L 147.775045 -147.988339 
L 149.015874 -147.690977 
L 150.256703 -147.479166 
L 151.497532 -147.265215 
L 152.738361 -147.097435 
L 153.97919 -146.905993 
L 155.220019 -146.676921 
L 156.460847 -146.563586 
L 157.701676 -146.271347 
L 158.942505 -145.989309 
L 160.183334 -145.859213 
L 161.424163 -145.562505 
L 162.664992 -145.382388 
L 163.905821 -145.123883 
L 165.146649 -144.806263 
L 166.387478 -144.593156 
L 167.628307 -144.322607 
L 168.869136 -144.04237 
L 170.109965 -143.702956 
L 171.350794 -143.476858 
L 172.591622 -143.301974 
L 173.832451 -143.013668 
L 175.07328 -142.690991 
L 176.314109 -142.368314 
L 177.554938 -142.02421 
L 178.795767 -141.623594 
L 180.036596 -141.339449 
L 181.277424 -140.967887 
L 182.518253 -140.757663 
L 183.759082 -140.284909 
L 184.999911 -139.837363 
L 186.24074 -139.455248 
L 187.481569 -138.989716 
L 188.722398 -138.710102 
L 189.963226 -138.419887 
L 191.204055 -138.149698 
L 192.444884 -137.699324 
L 193.685713 -137.242296 
L 194.926542 -136.862826 
L 196.167371 -136.529621 
L 197.4082 -136.174493 
L 198.649028 -135.848793 
L 199.889857 -135.433364 
L 201.130686 -135.056843 
L 202.371515 -134.682429 
L 203.612344 -134.273744 
L 204.853173 -134.038303 
L 206.094002 -133.737282 
L 207.33483 -133.368086 
L 208.575659 -132.99889 
L 209.816488 -132.629196 
L 211.057317 -132.257558 
L 212.298146 -131.886436 
L 213.538975 -131.516672 
L 214.779804 -131.146117 
L 216.020632 -130.781947 
L 217.261461 -130.432163 
L 218.50229 -130.057367 
L 219.743119 -129.663634 
L 220.983948 -129.26283 
L 222.224777 -128.864412 
L 222.224777 -150.654095 
L 222.224777 -150.654095 
L 220.983948 -150.777149 
L 219.743119 -150.889504 
L 218.50229 -150.999753 
L 217.261461 -151.030327 
L 216.020632 -151.199068 
L 214.779804 -151.332889 
L 213.538975 -151.446585 
L 212.298146 -151.560281 
L 211.057317 -151.712971 
L 209.816488 -151.920829 
L 208.575659 -152.128687 
L 207.33483 -152.259444 
L 206.094002 -152.484981 
L 204.853173 -152.720821 
L 203.612344 -152.886638 
L 202.371515 -152.984219 
L 201.130686 -153.09164 
L 199.889857 -153.145619 
L 198.649028 -153.267517 
L 197.4082 -153.463453 
L 196.167371 -153.563991 
L 194.926542 -153.606413 
L 193.685713 -153.775156 
L 192.444884 -153.978406 
L 191.204055 -154.096475 
L 189.963226 -154.214544 
L 188.722398 -154.490712 
L 187.481569 -154.543946 
L 186.24074 -154.615306 
L 184.999911 -154.844908 
L 183.759082 -155.14167 
L 182.518253 -155.30528 
L 181.277424 -155.491133 
L 180.036596 -155.726448 
L 178.795767 -155.985683 
L 177.554938 -156.226497 
L 176.314109 -156.542288 
L 175.07328 -156.725102 
L 173.832451 -157.030289 
L 172.591622 -157.335459 
L 171.350794 -157.620935 
L 170.109965 -157.92221 
L 168.869136 -158.197407 
L 167.628307 -158.473641 
L 166.387478 -158.775404 
L 165.146649 -159.020632 
L 163.905821 -159.318489 
L 162.664992 -159.620722 
L 161.424163 -159.903548 
L 160.183334 -160.268705 
L 158.942505 -160.570831 
L 157.701676 -160.843609 
L 156.460847 -161.174504 
L 155.220019 -161.481518 
L 153.97919 -161.791005 
L 152.738361 -162.09435 
L 151.497532 -162.438221 
L 150.256703 -162.781261 
L 149.015874 -163.148436 
L 147.775045 -163.454344 
L 146.534217 -163.835227 
L 145.293388 -164.075987 
L 144.052559 -164.545759 
L 142.81173 -164.962472 
L 141.570901 -165.260647 
L 140.330072 -165.55667 
L 139.089243 -165.855375 
L 137.848415 -166.152672 
L 136.607586 -166.49385 
L 135.366757 -166.933701 
L 134.125928 -167.310946 
L 132.885099 -167.671567 
L 131.64427 -168.054964 
L 130.403441 -168.366558 
L 129.162613 -168.773187 
L 127.921784 -169.182296 
L 126.680955 -169.590218 
L 125.440126 -169.996957 
L 124.199297 -170.403696 
L 122.958468 -170.810435 
L 121.717639 -171.201525 
L 120.476811 -171.578178 
L 119.235982 -171.928266 
L 117.995153 -172.263423 
L 116.754324 -172.598579 
L 115.513495 -172.985536 
L 114.272666 -173.407976 
L 113.031837 -173.830415 
L 111.791009 -174.215475 
L 110.55018 -174.593056 
L 109.309351 -174.994642 
L 108.068522 -175.363894 
L 106.827693 -175.723812 
L 105.586864 -176.101472 
L 104.346036 -176.512693 
L 103.105207 -176.962441 
L 101.864378 -177.353828 
L 100.623549 -177.725152 
L 99.38272 -178.095864 
z
" style="stroke: #ffffff; stroke-opacity: 0.15"/>
    </defs>
    <g clip-path="url(#p3f0eef311f)">
     <use xlink:href="#me5bdacdd49" x="0" y="216" style="fill: #3d8af9; fill-opacity: 0.15; stroke: #ffffff; stroke-opacity: 0.15"/>
    </g>
   </g>
   <g id="line2d_1">
    <path d="M 99.38272 50.102514 
L 100.623549 50.362985 
L 101.864378 50.623455 
L 103.105207 50.883925 
L 104.346036 51.144395 
L 105.586864 51.404865 
L 106.827693 51.665335 
L 108.068522 51.925805 
L 109.309351 52.186275 
L 110.55018 52.446745 
L 111.791009 52.707215 
L 113.031837 52.967685 
L 114.272666 53.228155 
L 115.513495 53.488625 
L 116.754324 53.749096 
L 117.995153 54.009566 
L 119.235982 54.270036 
L 120.476811 54.530506 
L 121.717639 54.790976 
L 122.958468 55.051446 
L 124.199297 55.311916 
L 125.440126 55.572386 
L 126.680955 55.832856 
L 127.921784 56.093326 
L 129.162613 56.353796 
L 130.403441 56.614266 
L 131.64427 56.874737 
L 132.885099 57.135207 
L 134.125928 57.395677 
L 135.366757 57.656147 
L 136.607586 57.916617 
L 137.848415 58.177087 
L 139.089243 58.437557 
L 140.330072 58.698027 
L 141.570901 58.958497 
L 142.81173 59.218967 
L 144.052559 59.479437 
L 145.293388 59.739907 
L 146.534217 60.000377 
L 147.775045 60.260848 
L 149.015874 60.521318 
L 150.256703 60.781788 
L 151.497532 61.042258 
L 152.738361 61.302728 
L 153.97919 61.563198 
L 155.220019 61.823668 
L 156.460847 62.084138 
L 157.701676 62.344608 
L 158.942505 62.605078 
L 160.183334 62.865548 
L 161.424163 63.126018 
L 162.664992 63.386489 
L 163.905821 63.646959 
L 165.146649 63.907429 
L 166.387478 64.167899 
L 167.628307 64.428369 
L 168.869136 64.688839 
L 170.109965 64.949309 
L 171.350794 65.209779 
L 172.591622 65.470249 
L 173.832451 65.730719 
L 175.07328 65.991189 
L 176.314109 66.251659 
L 177.554938 66.512129 
L 178.795767 66.7726 
L 180.036596 67.03307 
L 181.277424 67.29354 
L 182.518253 67.55401 
L 183.759082 67.81448 
L 184.999911 68.07495 
L 186.24074 68.33542 
L 187.481569 68.59589 
L 188.722398 68.85636 
L 189.963226 69.11683 
L 191.204055 69.3773 
L 192.444884 69.63777 
L 193.685713 69.898241 
L 194.926542 70.158711 
L 196.167371 70.419181 
L 197.4082 70.679651 
L 198.649028 70.940121 
L 199.889857 71.200591 
L 201.130686 71.461061 
L 202.371515 71.721531 
L 203.612344 71.982001 
L 204.853173 72.242471 
L 206.094002 72.502941 
L 207.33483 72.763411 
L 208.575659 73.023881 
L 209.816488 73.284352 
L 211.057317 73.544822 
L 212.298146 73.805292 
L 213.538975 74.065762 
L 214.779804 74.326232 
L 216.020632 74.586702 
L 217.261461 74.847172 
L 218.50229 75.107642 
L 219.743119 75.368112 
L 220.983948 75.628582 
L 222.224777 75.889052 
" clip-path="url(#p3f0eef311f)" style="fill: none; stroke: #3d8af9; stroke-width: 2.25; stroke-linecap: round"/>
   </g>
   <g id="patch_3">
    <path d="M 87.018 166.62 
L 87.018 15.36 
" style="fill: none; stroke: #262626; stroke-width: 1.25; stroke-linejoin: miter; stroke-linecap: square"/>
   </g>
   <g id="patch_4">
    <path d="M 87.018 166.62 
L 245.7465 166.62 
" style="fill: none; stroke: #262626; stroke-width: 1.25; stroke-linejoin: miter; stroke-linecap: square"/>
   </g>
  </g>
  <g id="axes_2">
   <g id="patch_5">
    <path d="M 257.3715 166.62 
L 416.1 166.62 
L 416.1 15.36 
L 257.3715 15.36 
z
" style="fill: #ffffff"/>
   </g>
   <g id="matplotlib.axis_3">
    <g id="xtick_5">
     <g id="text_13">
      <!-- 1 -->
      <g style="fill: #262626" transform="translate(253.554 185.238125) scale(0.12 -0.12)">
       <use xlink:href="#DejaVuSerif-31"/>
      </g>
     </g>
    </g>
    <g id="xtick_6">
     <g id="text_14">
      <!-- 2 -->
      <g style="fill: #262626" transform="translate(293.236125 185.238125) scale(0.12 -0.12)">
       <use xlink:href="#DejaVuSerif-32"/>
      </g>
     </g>
    </g>
    <g id="xtick_7">
     <g id="text_15">
      <!-- 3 -->
      <g style="fill: #262626" transform="translate(332.91825 185.238125) scale(0.12 -0.12)">
       <defs>
        <path id="DejaVuSerif-33" d="M 622 4469 
Q 988 4606 1323 4678 
Q 1659 4750 1953 4750 
Q 2638 4750 3022 4454 
Q 3406 4159 3406 3634 
Q 3406 3213 3140 2930 
Q 2875 2647 2388 2547 
Q 2963 2466 3280 2130 
Q 3597 1794 3597 1259 
Q 3597 606 3158 257 
Q 2719 -91 1894 -91 
Q 1528 -91 1179 -12 
Q 831 66 488 225 
L 488 1131 
L 838 1131 
Q 869 681 1141 450 
Q 1413 219 1906 219 
Q 2384 219 2661 495 
Q 2938 772 2938 1253 
Q 2938 1803 2653 2086 
Q 2369 2369 1819 2369 
L 1522 2369 
L 1522 2688 
L 1678 2688 
Q 2225 2688 2498 2914 
Q 2772 3141 2772 3597 
Q 2772 4006 2547 4223 
Q 2322 4441 1900 4441 
Q 1478 4441 1245 4241 
Q 1013 4041 972 3647 
L 622 3647 
L 622 4469 
z
" transform="scale(0.015625)"/>
       </defs>
       <use xlink:href="#DejaVuSerif-33"/>
      </g>
     </g>
    </g>
    <g id="xtick_8">
     <g id="text_16">
      <!-- 4 -->
      <g style="fill: #262626" transform="translate(372.600375 185.238125) scale(0.12 -0.12)">
       <use xlink:href="#DejaVuSerif-34"/>
      </g>
     </g>
    </g>
    <g id="xtick_9">
     <g id="text_17">
      <!-- 5 -->
      <g style="fill: #262626" transform="translate(412.2825 185.238125) scale(0.12 -0.12)">
       <defs>
        <path id="DejaVuSerif-35" d="M 3219 4666 
L 3219 4153 
L 1081 4153 
L 1081 2816 
Q 1244 2928 1461 2984 
Q 1678 3041 1947 3041 
Q 2703 3041 3140 2622 
Q 3578 2203 3578 1478 
Q 3578 738 3136 323 
Q 2694 -91 1894 -91 
Q 1572 -91 1234 -12 
Q 897 66 544 225 
L 544 1131 
L 897 1131 
Q 925 688 1179 453 
Q 1434 219 1894 219 
Q 2388 219 2653 544 
Q 2919 869 2919 1478 
Q 2919 2084 2655 2407 
Q 2391 2731 1894 2731 
Q 1613 2731 1398 2631 
Q 1184 2531 1019 2322 
L 750 2322 
L 750 4666 
L 3219 4666 
z
" transform="scale(0.015625)"/>
       </defs>
       <use xlink:href="#DejaVuSerif-35"/>
      </g>
     </g>
    </g>
    <g id="text_18">
     <!-- Perspective-taking -->
     <g style="fill: #262626" transform="translate(266.0295 203.131406) scale(0.15 -0.15)">
      <defs>
       <path id="DejaVuSerif-50" d="M 1581 2375 
L 2406 2375 
Q 2872 2375 3115 2626 
Q 3359 2878 3359 3353 
Q 3359 3831 3115 4081 
Q 2872 4331 2406 4331 
L 1581 4331 
L 1581 2375 
z
M 353 0 
L 353 331 
L 947 331 
L 947 4331 
L 353 4331 
L 353 4666 
L 2559 4666 
Q 3259 4666 3668 4311 
Q 4078 3956 4078 3353 
Q 4078 2753 3668 2397 
Q 3259 2041 2559 2041 
L 1581 2041 
L 1581 331 
L 2303 331 
L 2303 0 
L 353 0 
z
" transform="scale(0.015625)"/>
       <path id="DejaVuSerif-70" d="M 1313 1825 
L 1313 1497 
Q 1313 897 1542 583 
Q 1772 269 2209 269 
Q 2650 269 2876 622 
Q 3103 975 3103 1663 
Q 3103 2353 2876 2703 
Q 2650 3053 2209 3053 
Q 1772 3053 1542 2737 
Q 1313 2422 1313 1825 
z
M 738 2988 
L 184 2988 
L 184 3322 
L 1313 3322 
L 1313 2803 
Q 1481 3116 1742 3264 
Q 2003 3413 2388 3413 
Q 3000 3413 3387 2928 
Q 3775 2444 3775 1663 
Q 3775 881 3387 395 
Q 3000 -91 2388 -91 
Q 2003 -91 1742 57 
Q 1481 206 1313 519 
L 1313 -997 
L 1856 -997 
L 1856 -1331 
L 184 -1331 
L 184 -997 
L 738 -997 
L 738 2988 
z
" transform="scale(0.015625)"/>
       <path id="DejaVuSerif-76" d="M 1581 0 
L 359 2988 
L -19 2988 
L -19 3322 
L 1509 3322 
L 1509 2988 
L 978 2988 
L 1913 703 
L 2847 2988 
L 2350 2988 
L 2350 3322 
L 3597 3322 
L 3597 2988 
L 3225 2988 
L 2003 0 
L 1581 0 
z
" transform="scale(0.015625)"/>
       <path id="DejaVuSerif-2d" d="M 281 1959 
L 1881 1959 
L 1881 1472 
L 281 1472 
L 281 1959 
z
" transform="scale(0.015625)"/>
       <path id="DejaVuSerif-6b" d="M 1831 0 
L 219 0 
L 219 331 
L 738 331 
L 738 4531 
L 184 4531 
L 184 4863 
L 1313 4863 
L 1313 1697 
L 2713 2988 
L 2234 2988 
L 2234 3322 
L 3738 3322 
L 3738 2988 
L 3169 2988 
L 2181 2075 
L 3444 331 
L 3922 331 
L 3922 0 
L 2284 0 
L 2284 331 
L 2759 331 
L 1766 1697 
L 1313 1275 
L 1313 331 
L 1831 331 
L 1831 0 
z
" transform="scale(0.015625)"/>
       <path id="DejaVuSerif-67" d="M 3359 2988 
L 3359 72 
Q 3359 -644 2965 -1033 
Q 2572 -1422 1844 -1422 
Q 1516 -1422 1216 -1362 
Q 916 -1303 641 -1184 
L 641 -488 
L 941 -488 
Q 997 -813 1206 -963 
Q 1416 -1113 1806 -1113 
Q 2313 -1113 2548 -827 
Q 2784 -541 2784 72 
L 2784 519 
Q 2616 206 2355 57 
Q 2094 -91 1709 -91 
Q 1097 -91 708 395 
Q 319 881 319 1663 
Q 319 2444 706 2928 
Q 1094 3413 1709 3413 
Q 2094 3413 2355 3264 
Q 2616 3116 2784 2803 
L 2784 3322 
L 3909 3322 
L 3909 2988 
L 3359 2988 
z
M 2784 1825 
Q 2784 2422 2554 2737 
Q 2325 3053 1888 3053 
Q 1444 3053 1217 2703 
Q 991 2353 991 1663 
Q 991 975 1217 622 
Q 1444 269 1888 269 
Q 2325 269 2554 583 
Q 2784 897 2784 1497 
L 2784 1825 
z
" transform="scale(0.015625)"/>
      </defs>
      <use xlink:href="#DejaVuSerif-50"/>
      <use xlink:href="#DejaVuSerif-65" x="62.785156"/>
      <use xlink:href="#DejaVuSerif-72" x="121.964844"/>
      <use xlink:href="#DejaVuSerif-73" x="169.767578"/>
      <use xlink:href="#DejaVuSerif-70" x="221.085938"/>
      <use xlink:href="#DejaVuSerif-65" x="285.099609"/>
      <use xlink:href="#DejaVuSerif-63" x="344.279297"/>
      <use xlink:href="#DejaVuSerif-74" x="400.285156"/>
      <use xlink:href="#DejaVuSerif-69" x="440.470703"/>
      <use xlink:href="#DejaVuSerif-76" x="472.453125"/>
      <use xlink:href="#DejaVuSerif-65" x="528.947266"/>
      <use xlink:href="#DejaVuSerif-2d" x="588.126953"/>
      <use xlink:href="#DejaVuSerif-74" x="621.916016"/>
      <use xlink:href="#DejaVuSerif-61" x="662.101562"/>
      <use xlink:href="#DejaVuSerif-6b" x="721.720703"/>
      <use xlink:href="#DejaVuSerif-69" x="782.316406"/>
      <use xlink:href="#DejaVuSerif-6e" x="814.298828"/>
      <use xlink:href="#DejaVuSerif-67" x="878.703125"/>
     </g>
    </g>
   </g>
   <g id="matplotlib.axis_4">
    <g id="ytick_7"/>
    <g id="ytick_8"/>
    <g id="ytick_9"/>
    <g id="ytick_10"/>
    <g id="ytick_11"/>
    <g id="ytick_12"/>
   </g>
   <g id="PathCollection_2">
    <g clip-path="url(#pb027d1e916)">
     <use xlink:href="#ma387329ac2" x="308.391375" y="17.881" style="fill: #3d8af9; fill-opacity: 0.8; stroke: #3d8af9; stroke-opacity: 0.8"/>
     <use xlink:href="#ma387329ac2" x="370.749" y="36.7885" style="fill: #3d8af9; fill-opacity: 0.8; stroke: #3d8af9; stroke-opacity: 0.8"/>
     <use xlink:href="#ma387329ac2" x="365.080125" y="25.444" style="fill: #3d8af9; fill-opacity: 0.8; stroke: #3d8af9; stroke-opacity: 0.8"/>
     <use xlink:href="#ma387329ac2" x="314.06025" y="45.612" style="fill: #3d8af9; fill-opacity: 0.8; stroke: #3d8af9; stroke-opacity: 0.8"/>
     <use xlink:href="#ma387329ac2" x="342.404625" y="42.8389" style="fill: #3d8af9; fill-opacity: 0.8; stroke: #3d8af9; stroke-opacity: 0.8"/>
     <use xlink:href="#ma387329ac2" x="353.742375" y="93.511" style="fill: #3d8af9; fill-opacity: 0.8; stroke: #3d8af9; stroke-opacity: 0.8"/>
     <use xlink:href="#ma387329ac2" x="353.742375" y="70.822" style="fill: #3d8af9; fill-opacity: 0.8; stroke: #3d8af9; stroke-opacity: 0.8"/>
     <use xlink:href="#ma387329ac2" x="348.0735" y="68.301" style="fill: #3d8af9; fill-opacity: 0.8; stroke: #3d8af9; stroke-opacity: 0.8"/>
     <use xlink:href="#ma387329ac2" x="342.404625" y="75.864" style="fill: #3d8af9; fill-opacity: 0.8; stroke: #3d8af9; stroke-opacity: 0.8"/>
     <use xlink:href="#ma387329ac2" x="331.066875" y="35.528" style="fill: #3d8af9; fill-opacity: 0.8; stroke: #3d8af9; stroke-opacity: 0.8"/>
     <use xlink:href="#ma387329ac2" x="359.41125" y="85.6959" style="fill: #3d8af9; fill-opacity: 0.8; stroke: #3d8af9; stroke-opacity: 0.8"/>
     <use xlink:href="#ma387329ac2" x="331.066875" y="51.9145" style="fill: #3d8af9; fill-opacity: 0.8; stroke: #3d8af9; stroke-opacity: 0.8"/>
     <use xlink:href="#ma387329ac2" x="359.41125" y="46.8725" style="fill: #3d8af9; fill-opacity: 0.8; stroke: #3d8af9; stroke-opacity: 0.8"/>
     <use xlink:href="#ma387329ac2" x="331.066875" y="53.175" style="fill: #3d8af9; fill-opacity: 0.8; stroke: #3d8af9; stroke-opacity: 0.8"/>
     <use xlink:href="#ma387329ac2" x="365.080125" y="60.738" style="fill: #3d8af9; fill-opacity: 0.8; stroke: #3d8af9; stroke-opacity: 0.8"/>
     <use xlink:href="#ma387329ac2" x="382.08675" y="50.654" style="fill: #3d8af9; fill-opacity: 0.8; stroke: #3d8af9; stroke-opacity: 0.8"/>
     <use xlink:href="#ma387329ac2" x="348.0735" y="80.906" style="fill: #3d8af9; fill-opacity: 0.8; stroke: #3d8af9; stroke-opacity: 0.8"/>
     <use xlink:href="#ma387329ac2" x="365.080125" y="48.133" style="fill: #3d8af9; fill-opacity: 0.8; stroke: #3d8af9; stroke-opacity: 0.8"/>
     <use xlink:href="#ma387329ac2" x="348.0735" y="65.0237" style="fill: #3d8af9; fill-opacity: 0.8; stroke: #3d8af9; stroke-opacity: 0.8"/>
     <use xlink:href="#ma387329ac2" x="302.7225" y="64.5195" style="fill: #3d8af9; fill-opacity: 0.8; stroke: #3d8af9; stroke-opacity: 0.8"/>
     <use xlink:href="#ma387329ac2" x="319.729125" y="64.5195" style="fill: #3d8af9; fill-opacity: 0.8; stroke: #3d8af9; stroke-opacity: 0.8"/>
     <use xlink:href="#ma387329ac2" x="370.749" y="59.4775" style="fill: #3d8af9; fill-opacity: 0.8; stroke: #3d8af9; stroke-opacity: 0.8"/>
     <use xlink:href="#ma387329ac2" x="365.080125" y="27.965" style="fill: #3d8af9; fill-opacity: 0.8; stroke: #3d8af9; stroke-opacity: 0.8"/>
     <use xlink:href="#ma387329ac2" x="314.06025" y="74.6035" style="fill: #3d8af9; fill-opacity: 0.8; stroke: #3d8af9; stroke-opacity: 0.8"/>
     <use xlink:href="#ma387329ac2" x="319.729125" y="119.9815" style="fill: #3d8af9; fill-opacity: 0.8; stroke: #3d8af9; stroke-opacity: 0.8"/>
     <use xlink:href="#ma387329ac2" x="345.239062" y="50.654" style="fill: #3d8af9; fill-opacity: 0.8; stroke: #3d8af9; stroke-opacity: 0.8"/>
     <use xlink:href="#ma387329ac2" x="308.391375" y="97.2925" style="fill: #3d8af9; fill-opacity: 0.8; stroke: #3d8af9; stroke-opacity: 0.8"/>
     <use xlink:href="#ma387329ac2" x="365.080125" y="46.8725" style="fill: #3d8af9; fill-opacity: 0.8; stroke: #3d8af9; stroke-opacity: 0.8"/>
     <use xlink:href="#ma387329ac2" x="348.0735" y="60.738" style="fill: #3d8af9; fill-opacity: 0.8; stroke: #3d8af9; stroke-opacity: 0.8"/>
     <use xlink:href="#ma387329ac2" x="331.066875" y="38.049" style="fill: #3d8af9; fill-opacity: 0.8; stroke: #3d8af9; stroke-opacity: 0.8"/>
     <use xlink:href="#ma387329ac2" x="274.378125" y="154.015" style="fill: #3d8af9; fill-opacity: 0.8; stroke: #3d8af9; stroke-opacity: 0.8"/>
     <use xlink:href="#ma387329ac2" x="314.06025" y="40.57" style="fill: #3d8af9; fill-opacity: 0.8; stroke: #3d8af9; stroke-opacity: 0.8"/>
     <use xlink:href="#ma387329ac2" x="348.0735" y="40.57" style="fill: #3d8af9; fill-opacity: 0.8; stroke: #3d8af9; stroke-opacity: 0.8"/>
     <use xlink:href="#ma387329ac2" x="359.41125" y="44.3515" style="fill: #3d8af9; fill-opacity: 0.8; stroke: #3d8af9; stroke-opacity: 0.8"/>
     <use xlink:href="#ma387329ac2" x="359.41125" y="70.3178" style="fill: #3d8af9; fill-opacity: 0.8; stroke: #3d8af9; stroke-opacity: 0.8"/>
     <use xlink:href="#ma387329ac2" x="331.066875" y="143.931" style="fill: #3d8af9; fill-opacity: 0.8; stroke: #3d8af9; stroke-opacity: 0.8"/>
     <use xlink:href="#ma387329ac2" x="359.41125" y="58.217" style="fill: #3d8af9; fill-opacity: 0.8; stroke: #3d8af9; stroke-opacity: 0.8"/>
     <use xlink:href="#ma387329ac2" x="404.76225" y="58.217" style="fill: #3d8af9; fill-opacity: 0.8; stroke: #3d8af9; stroke-opacity: 0.8"/>
     <use xlink:href="#ma387329ac2" x="382.08675" y="70.822" style="fill: #3d8af9; fill-opacity: 0.8; stroke: #3d8af9; stroke-opacity: 0.8"/>
     <use xlink:href="#ma387329ac2" x="382.08675" y="94.7715" style="fill: #3d8af9; fill-opacity: 0.8; stroke: #3d8af9; stroke-opacity: 0.8"/>
     <use xlink:href="#ma387329ac2" x="376.417875" y="65.78" style="fill: #3d8af9; fill-opacity: 0.8; stroke: #3d8af9; stroke-opacity: 0.8"/>
     <use xlink:href="#ma387329ac2" x="319.729125" y="38.049" style="fill: #3d8af9; fill-opacity: 0.8; stroke: #3d8af9; stroke-opacity: 0.8"/>
     <use xlink:href="#ma387329ac2" x="382.08675" y="68.301" style="fill: #3d8af9; fill-opacity: 0.8; stroke: #3d8af9; stroke-opacity: 0.8"/>
     <use xlink:href="#ma387329ac2" x="359.41125" y="55.696" style="fill: #3d8af9; fill-opacity: 0.8; stroke: #3d8af9; stroke-opacity: 0.8"/>
     <use xlink:href="#ma387329ac2" x="365.080125" y="59.4775" style="fill: #3d8af9; fill-opacity: 0.8; stroke: #3d8af9; stroke-opacity: 0.8"/>
     <use xlink:href="#ma387329ac2" x="353.742375" y="44.3515" style="fill: #3d8af9; fill-opacity: 0.8; stroke: #3d8af9; stroke-opacity: 0.8"/>
     <use xlink:href="#ma387329ac2" x="331.066875" y="111.158" style="fill: #3d8af9; fill-opacity: 0.8; stroke: #3d8af9; stroke-opacity: 0.8"/>
     <use xlink:href="#ma387329ac2" x="370.749" y="83.427" style="fill: #3d8af9; fill-opacity: 0.8; stroke: #3d8af9; stroke-opacity: 0.8"/>
     <use xlink:href="#ma387329ac2" x="393.4245" y="65.78" style="fill: #3d8af9; fill-opacity: 0.8; stroke: #3d8af9; stroke-opacity: 0.8"/>
     <use xlink:href="#ma387329ac2" x="365.080125" y="106.116" style="fill: #3d8af9; fill-opacity: 0.8; stroke: #3d8af9; stroke-opacity: 0.8"/>
     <use xlink:href="#ma387329ac2" x="359.41125" y="96.032" style="fill: #3d8af9; fill-opacity: 0.8; stroke: #3d8af9; stroke-opacity: 0.8"/>
     <use xlink:href="#ma387329ac2" x="353.742375" y="85.948" style="fill: #3d8af9; fill-opacity: 0.8; stroke: #3d8af9; stroke-opacity: 0.8"/>
     <use xlink:href="#ma387329ac2" x="376.417875" y="57.7128" style="fill: #3d8af9; fill-opacity: 0.8; stroke: #3d8af9; stroke-opacity: 0.8"/>
     <use xlink:href="#ma387329ac2" x="353.742375" y="69.5615" style="fill: #3d8af9; fill-opacity: 0.8; stroke: #3d8af9; stroke-opacity: 0.8"/>
     <use xlink:href="#ma387329ac2" x="376.417875" y="116.2" style="fill: #3d8af9; fill-opacity: 0.8; stroke: #3d8af9; stroke-opacity: 0.8"/>
    </g>
   </g>
   <g id="PolyCollection_2">
    <defs>
     <path id="m8e7dd86161" d="M 274.378125 -174.934674 
L 274.378125 -104.620647 
L 275.695136 -105.374709 
L 277.012148 -106.043041 
L 278.329159 -106.793384 
L 279.64617 -107.607529 
L 280.963182 -108.386614 
L 282.280193 -109.140772 
L 283.597205 -109.894929 
L 284.914216 -110.698959 
L 286.231227 -111.423415 
L 287.548239 -112.15255 
L 288.86525 -112.904353 
L 290.182261 -113.656157 
L 291.499273 -114.36748 
L 292.816284 -115.047129 
L 294.133295 -115.765414 
L 295.450307 -116.48802 
L 296.767318 -117.210626 
L 298.08433 -117.934535 
L 299.401341 -118.658959 
L 300.718352 -119.383383 
L 302.035364 -120.107806 
L 303.352375 -120.83223 
L 304.669386 -121.481924 
L 305.986398 -122.11867 
L 307.303409 -122.758586 
L 308.62042 -123.431695 
L 309.937432 -124.226926 
L 311.254443 -124.972895 
L 312.571455 -125.624675 
L 313.888466 -126.324136 
L 315.205477 -126.897033 
L 316.522489 -127.495404 
L 317.8395 -128.081053 
L 319.156511 -128.617474 
L 320.473523 -129.294605 
L 321.790534 -129.970145 
L 323.107545 -130.496191 
L 324.424557 -131.02886 
L 325.741568 -131.538565 
L 327.05858 -132.049432 
L 328.375591 -132.695899 
L 329.692602 -133.293366 
L 331.009614 -133.837179 
L 332.326625 -134.380991 
L 333.643636 -134.924804 
L 334.960648 -135.469426 
L 336.277659 -136.040742 
L 337.59467 -136.941149 
L 338.911682 -137.451121 
L 340.228693 -138.156841 
L 341.545705 -138.870425 
L 342.862716 -139.59983 
L 344.179727 -140.260493 
L 345.496739 -140.801959 
L 346.81375 -141.469376 
L 348.130761 -141.714227 
L 349.447773 -142.128292 
L 350.764784 -142.512892 
L 352.081795 -143.061895 
L 353.398807 -143.415121 
L 354.715818 -143.62263 
L 356.03283 -143.969839 
L 357.349841 -144.302228 
L 358.666852 -144.338649 
L 359.983864 -144.565123 
L 361.300875 -144.705518 
L 362.617886 -144.93027 
L 363.934898 -145.07132 
L 365.251909 -144.988087 
L 366.56892 -144.995338 
L 367.885932 -144.90576 
L 369.202943 -144.75181 
L 370.519955 -144.69155 
L 371.836966 -144.429042 
L 373.153977 -144.272829 
L 374.470989 -144.178944 
L 375.788 -143.923268 
L 377.105011 -143.668763 
L 378.422023 -143.411916 
L 379.739034 -143.147979 
L 381.056045 -142.837371 
L 382.373057 -142.461302 
L 383.690068 -142.106515 
L 385.00708 -141.826213 
L 386.324091 -141.684484 
L 387.641102 -141.310604 
L 388.958114 -141.048475 
L 390.275125 -140.80637 
L 391.592136 -140.568756 
L 392.909148 -140.315933 
L 394.226159 -140.012214 
L 395.54317 -139.725951 
L 396.860182 -139.546632 
L 398.177193 -139.073384 
L 399.494205 -138.881053 
L 400.811216 -138.741652 
L 402.128227 -138.60225 
L 403.445239 -138.397251 
L 404.76225 -137.989875 
L 404.76225 -178.664055 
L 404.76225 -178.664055 
L 403.445239 -177.913025 
L 402.128227 -177.114837 
L 400.811216 -176.300423 
L 399.494205 -175.592652 
L 398.177193 -174.884881 
L 396.860182 -174.201969 
L 395.54317 -173.484516 
L 394.226159 -172.764662 
L 392.909148 -172.033629 
L 391.592136 -171.285333 
L 390.275125 -170.625306 
L 388.958114 -169.938522 
L 387.641102 -169.209166 
L 386.324091 -168.466473 
L 385.00708 -167.8183 
L 383.690068 -167.087484 
L 382.373057 -166.378309 
L 381.056045 -165.700148 
L 379.739034 -164.993752 
L 378.422023 -164.404539 
L 377.105011 -163.780466 
L 375.788 -163.23394 
L 374.470989 -162.656049 
L 373.153977 -162.09079 
L 371.836966 -161.392623 
L 370.519955 -160.846343 
L 369.202943 -160.408158 
L 367.885932 -159.818874 
L 366.56892 -159.287811 
L 365.251909 -158.772931 
L 363.934898 -158.352657 
L 362.617886 -157.963054 
L 361.300875 -157.848668 
L 359.983864 -157.635719 
L 358.666852 -157.342507 
L 357.349841 -157.12717 
L 356.03283 -157.054804 
L 354.715818 -156.928277 
L 353.398807 -156.888428 
L 352.081795 -156.855688 
L 350.764784 -156.930846 
L 349.447773 -156.951343 
L 348.130761 -157.168333 
L 346.81375 -157.338477 
L 345.496739 -157.643262 
L 344.179727 -157.899982 
L 342.862716 -158.23309 
L 341.545705 -158.517884 
L 340.228693 -158.710341 
L 338.911682 -158.90297 
L 337.59467 -159.18817 
L 336.277659 -159.36212 
L 334.960648 -159.624936 
L 333.643636 -159.811717 
L 332.326625 -160.035245 
L 331.009614 -160.354237 
L 329.692602 -160.677929 
L 328.375591 -160.959202 
L 327.05858 -161.158891 
L 325.741568 -161.648775 
L 324.424557 -161.973727 
L 323.107545 -162.34428 
L 321.790534 -162.698913 
L 320.473523 -163.019175 
L 319.156511 -163.315726 
L 317.8395 -163.597673 
L 316.522489 -163.917115 
L 315.205477 -164.241013 
L 313.888466 -164.564911 
L 312.571455 -164.904129 
L 311.254443 -165.255364 
L 309.937432 -165.589401 
L 308.62042 -165.911439 
L 307.303409 -166.233477 
L 305.986398 -166.555515 
L 304.669386 -166.908166 
L 303.352375 -167.275355 
L 302.035364 -167.642543 
L 300.718352 -168.008712 
L 299.401341 -168.247863 
L 298.08433 -168.486949 
L 296.767318 -168.829115 
L 295.450307 -169.188631 
L 294.133295 -169.547773 
L 292.816284 -169.9069 
L 291.499273 -170.266026 
L 290.182261 -170.625153 
L 288.86525 -170.98428 
L 287.548239 -171.343407 
L 286.231227 -171.702534 
L 284.914216 -172.06166 
L 283.597205 -172.420787 
L 282.280193 -172.779914 
L 280.963182 -173.139041 
L 279.64617 -173.498167 
L 278.329159 -173.857294 
L 277.012148 -174.216421 
L 275.695136 -174.575548 
L 274.378125 -174.934674 
z
" style="stroke: #ffffff; stroke-opacity: 0.15"/>
    </defs>
    <g clip-path="url(#pb027d1e916)">
     <use xlink:href="#m8e7dd86161" x="0" y="216" style="fill: #3d8af9; fill-opacity: 0.15; stroke: #ffffff; stroke-opacity: 0.15"/>
    </g>
   </g>
   <g id="line2d_2">
    <path d="M 274.378125 79.742643 
L 275.695136 79.51329 
L 277.012148 79.283937 
L 278.329159 79.054584 
L 279.64617 78.825231 
L 280.963182 78.595878 
L 282.280193 78.366525 
L 283.597205 78.137172 
L 284.914216 77.907819 
L 286.231227 77.678466 
L 287.548239 77.449113 
L 288.86525 77.21976 
L 290.182261 76.990407 
L 291.499273 76.761054 
L 292.816284 76.531701 
L 294.133295 76.302347 
L 295.450307 76.072994 
L 296.767318 75.843641 
L 298.08433 75.614288 
L 299.401341 75.384935 
L 300.718352 75.155582 
L 302.035364 74.926229 
L 303.352375 74.696876 
L 304.669386 74.467523 
L 305.986398 74.23817 
L 307.303409 74.008817 
L 308.62042 73.779464 
L 309.937432 73.550111 
L 311.254443 73.320758 
L 312.571455 73.091405 
L 313.888466 72.862052 
L 315.205477 72.632699 
L 316.522489 72.403346 
L 317.8395 72.173993 
L 319.156511 71.94464 
L 320.473523 71.715287 
L 321.790534 71.485934 
L 323.107545 71.256581 
L 324.424557 71.027228 
L 325.741568 70.797875 
L 327.05858 70.568522 
L 328.375591 70.339169 
L 329.692602 70.109816 
L 331.009614 69.880463 
L 332.326625 69.65111 
L 333.643636 69.421757 
L 334.960648 69.192404 
L 336.277659 68.963051 
L 337.59467 68.733698 
L 338.911682 68.504345 
L 340.228693 68.274992 
L 341.545705 68.045639 
L 342.862716 67.816286 
L 344.179727 67.586933 
L 345.496739 67.35758 
L 346.81375 67.128227 
L 348.130761 66.898874 
L 349.447773 66.669521 
L 350.764784 66.440168 
L 352.081795 66.210815 
L 353.398807 65.981462 
L 354.715818 65.752109 
L 356.03283 65.522756 
L 357.349841 65.293403 
L 358.666852 65.06405 
L 359.983864 64.834697 
L 361.300875 64.605344 
L 362.617886 64.375991 
L 363.934898 64.146638 
L 365.251909 63.917285 
L 366.56892 63.687932 
L 367.885932 63.458579 
L 369.202943 63.229226 
L 370.519955 62.999872 
L 371.836966 62.770519 
L 373.153977 62.541166 
L 374.470989 62.311813 
L 375.788 62.08246 
L 377.105011 61.853107 
L 378.422023 61.623754 
L 379.739034 61.394401 
L 381.056045 61.165048 
L 382.373057 60.935695 
L 383.690068 60.706342 
L 385.00708 60.476989 
L 386.324091 60.247636 
L 387.641102 60.018283 
L 388.958114 59.78893 
L 390.275125 59.559577 
L 391.592136 59.330224 
L 392.909148 59.100871 
L 394.226159 58.871518 
L 395.54317 58.642165 
L 396.860182 58.412812 
L 398.177193 58.183459 
L 399.494205 57.954106 
L 400.811216 57.724753 
L 402.128227 57.4954 
L 403.445239 57.266047 
L 404.76225 57.036694 
" clip-path="url(#pb027d1e916)" style="fill: none; stroke: #3d8af9; stroke-width: 2.25; stroke-linecap: round"/>
   </g>
   <g id="patch_6">
    <path d="M 257.3715 166.62 
L 257.3715 15.36 
" style="fill: none; stroke: #262626; stroke-width: 1.25; stroke-linejoin: miter; stroke-linecap: square"/>
   </g>
   <g id="patch_7">
    <path d="M 257.3715 166.62 
L 416.1 166.62 
" style="fill: none; stroke: #262626; stroke-width: 1.25; stroke-linejoin: miter; stroke-linecap: square"/>
   </g>
  </g>
 </g>
 <defs>
  <clipPath id="p3f0eef311f">
   <rect x="87.018" y="15.36" width="158.7285" height="151.26"/>
  </clipPath>
  <clipPath id="pb027d1e916">
   <rect x="257.3715" y="15.36" width="158.7285" height="151.26"/>
  </clipPath>
 </defs>
</svg>
