<?xml version="1.0" encoding="utf-8" standalone="no"?>
<!DOCTYPE svg PUBLIC "-//W3C//DTD SVG 1.1//EN"
  "http://www.w3.org/Graphics/SVG/1.1/DTD/svg11.dtd">
<svg xmlns:xlink="http://www.w3.org/1999/xlink" width="576pt" height="216pt" viewBox="0 0 576 216" xmlns="http://www.w3.org/2000/svg" version="1.1">
 <metadata>
  <rdf:RDF xmlns:dc="http://purl.org/dc/elements/1.1/" xmlns:cc="http://creativecommons.org/ns#" xmlns:rdf="http://www.w3.org/1999/02/22-rdf-syntax-ns#">
   <cc:Work>
    <dc:type rdf:resource="http://purl.org/dc/dcmitype/StillImage"/>
    <dc:date>2023-08-11T18:26:18.635695</dc:date>
    <dc:format>image/svg+xml</dc:format>
    <dc:creator>
     <cc:Agent>
      <dc:title>Matplotlib v3.7.1, https://matplotlib.org/</dc:title>
     </cc:Agent>
    </dc:creator>
   </cc:Work>
  </rdf:RDF>
 </metadata>
 <defs>
  <style type="text/css">*{stroke-linejoin: round; stroke-linecap: butt}</style>
 </defs>
 <g id="figure_1">
  <g id="patch_1">
   <path d="M 0 216 
L 576 216 
L 576 0 
L 0 0 
z
" style="fill: #ffffff"/>
  </g>
  <g id="axes_1">
   <g id="patch_2">
    <path d="M 107.046 149.22 
L 556.56 149.22 
L 556.56 19.44 
L 107.046 19.44 
z
" style="fill: #ffffff"/>
   </g>
   <g id="matplotlib.axis_1">
    <g id="xtick_1">
     <g id="text_1">
      <!-- -7 -->
      <g style="fill: #262626" transform="translate(119.252947 171.257422) scale(0.165 -0.165)">
       <defs>
        <path id="DejaVuSans-2d" d="M 313 2009 
L 1997 2009 
L 1997 1497 
L 313 1497 
L 313 2009 
z
" transform="scale(0.015625)"/>
        <path id="DejaVuSans-37" d="M 525 4666 
L 3525 4666 
L 3525 4397 
L 1831 0 
L 1172 0 
L 2766 4134 
L 525 4134 
L 525 4666 
z
" transform="scale(0.015625)"/>
       </defs>
       <use xlink:href="#DejaVuSans-2d"/>
       <use xlink:href="#DejaVuSans-37" x="36.083984"/>
      </g>
     </g>
    </g>
    <g id="xtick_2">
     <g id="text_2">
      <!-- -6 -->
      <g style="fill: #262626" transform="translate(177.631388 171.257422) scale(0.165 -0.165)">
       <defs>
        <path id="DejaVuSans-36" d="M 2113 2584 
Q 1688 2584 1439 2293 
Q 1191 2003 1191 1497 
Q 1191 994 1439 701 
Q 1688 409 2113 409 
Q 2538 409 2786 701 
Q 3034 994 3034 1497 
Q 3034 2003 2786 2293 
Q 2538 2584 2113 2584 
z
M 3366 4563 
L 3366 3988 
Q 3128 4100 2886 4159 
Q 2644 4219 2406 4219 
Q 1781 4219 1451 3797 
Q 1122 3375 1075 2522 
Q 1259 2794 1537 2939 
Q 1816 3084 2150 3084 
Q 2853 3084 3261 2657 
Q 3669 2231 3669 1497 
Q 3669 778 3244 343 
Q 2819 -91 2113 -91 
Q 1303 -91 875 529 
Q 447 1150 447 2328 
Q 447 3434 972 4092 
Q 1497 4750 2381 4750 
Q 2619 4750 2861 4703 
Q 3103 4656 3366 4563 
z
" transform="scale(0.015625)"/>
       </defs>
       <use xlink:href="#DejaVuSans-2d"/>
       <use xlink:href="#DejaVuSans-36" x="36.083984"/>
      </g>
     </g>
    </g>
    <g id="xtick_3">
     <g id="text_3">
      <!-- -5 -->
      <g style="fill: #262626" transform="translate(236.00983 171.257422) scale(0.165 -0.165)">
       <defs>
        <path id="DejaVuSans-35" d="M 691 4666 
L 3169 4666 
L 3169 4134 
L 1269 4134 
L 1269 2991 
Q 1406 3038 1543 3061 
Q 1681 3084 1819 3084 
Q 2600 3084 3056 2656 
Q 3513 2228 3513 1497 
Q 3513 744 3044 326 
Q 2575 -91 1722 -91 
Q 1428 -91 1123 -41 
Q 819 9 494 109 
L 494 744 
Q 775 591 1075 516 
Q 1375 441 1709 441 
Q 2250 441 2565 725 
Q 2881 1009 2881 1497 
Q 2881 1984 2565 2268 
Q 2250 2553 1709 2553 
Q 1456 2553 1204 2497 
Q 953 2441 691 2322 
L 691 4666 
z
" transform="scale(0.015625)"/>
       </defs>
       <use xlink:href="#DejaVuSans-2d"/>
       <use xlink:href="#DejaVuSans-35" x="36.083984"/>
      </g>
     </g>
    </g>
    <g id="xtick_4">
     <g id="text_4">
      <!-- -4 -->
      <g style="fill: #262626" transform="translate(294.388271 171.257422) scale(0.165 -0.165)">
       <defs>
        <path id="DejaVuSans-34" d="M 2419 4116 
L 825 1625 
L 2419 1625 
L 2419 4116 
z
M 2253 4666 
L 3047 4666 
L 3047 1625 
L 3713 1625 
L 3713 1100 
L 3047 1100 
L 3047 0 
L 2419 0 
L 2419 1100 
L 313 1100 
L 313 1709 
L 2253 4666 
z
" transform="scale(0.015625)"/>
       </defs>
       <use xlink:href="#DejaVuSans-2d"/>
       <use xlink:href="#DejaVuSans-34" x="36.083984"/>
      </g>
     </g>
    </g>
    <g id="xtick_5">
     <g id="text_5">
      <!-- -3 -->
      <g style="fill: #262626" transform="translate(352.766713 171.257422) scale(0.165 -0.165)">
       <defs>
        <path id="DejaVuSans-33" d="M 2597 2516 
Q 3050 2419 3304 2112 
Q 3559 1806 3559 1356 
Q 3559 666 3084 287 
Q 2609 -91 1734 -91 
Q 1441 -91 1130 -33 
Q 819 25 488 141 
L 488 750 
Q 750 597 1062 519 
Q 1375 441 1716 441 
Q 2309 441 2620 675 
Q 2931 909 2931 1356 
Q 2931 1769 2642 2001 
Q 2353 2234 1838 2234 
L 1294 2234 
L 1294 2753 
L 1863 2753 
Q 2328 2753 2575 2939 
Q 2822 3125 2822 3475 
Q 2822 3834 2567 4026 
Q 2313 4219 1838 4219 
Q 1578 4219 1281 4162 
Q 984 4106 628 3988 
L 628 4550 
Q 988 4650 1302 4700 
Q 1616 4750 1894 4750 
Q 2613 4750 3031 4423 
Q 3450 4097 3450 3541 
Q 3450 3153 3228 2886 
Q 3006 2619 2597 2516 
z
" transform="scale(0.015625)"/>
       </defs>
       <use xlink:href="#DejaVuSans-2d"/>
       <use xlink:href="#DejaVuSans-33" x="36.083984"/>
      </g>
     </g>
    </g>
    <g id="xtick_6">
     <g id="text_6">
      <!-- -2 -->
      <g style="fill: #262626" transform="translate(411.145155 171.257422) scale(0.165 -0.165)">
       <defs>
        <path id="DejaVuSans-32" d="M 1228 531 
L 3431 531 
L 3431 0 
L 469 0 
L 469 531 
Q 828 903 1448 1529 
Q 2069 2156 2228 2338 
Q 2531 2678 2651 2914 
Q 2772 3150 2772 3378 
Q 2772 3750 2511 3984 
Q 2250 4219 1831 4219 
Q 1534 4219 1204 4116 
Q 875 4013 500 3803 
L 500 4441 
Q 881 4594 1212 4672 
Q 1544 4750 1819 4750 
Q 2544 4750 2975 4387 
Q 3406 4025 3406 3419 
Q 3406 3131 3298 2873 
Q 3191 2616 2906 2266 
Q 2828 2175 2409 1742 
Q 1991 1309 1228 531 
z
" transform="scale(0.015625)"/>
       </defs>
       <use xlink:href="#DejaVuSans-2d"/>
       <use xlink:href="#DejaVuSans-32" x="36.083984"/>
      </g>
     </g>
    </g>
    <g id="xtick_7">
     <g id="text_7">
      <!-- -1 -->
      <g style="fill: #262626" transform="translate(469.523596 171.257422) scale(0.165 -0.165)">
       <defs>
        <path id="DejaVuSans-31" d="M 794 531 
L 1825 531 
L 1825 4091 
L 703 3866 
L 703 4441 
L 1819 4666 
L 2450 4666 
L 2450 531 
L 3481 531 
L 3481 0 
L 794 0 
L 794 531 
z
" transform="scale(0.015625)"/>
       </defs>
       <use xlink:href="#DejaVuSans-2d"/>
       <use xlink:href="#DejaVuSans-31" x="36.083984"/>
      </g>
     </g>
    </g>
    <g id="xtick_8">
     <g id="text_8">
      <!-- 0 -->
      <g style="fill: #262626" transform="translate(530.878483 171.257422) scale(0.165 -0.165)">
       <defs>
        <path id="DejaVuSans-30" d="M 2034 4250 
Q 1547 4250 1301 3770 
Q 1056 3291 1056 2328 
Q 1056 1369 1301 889 
Q 1547 409 2034 409 
Q 2525 409 2770 889 
Q 3016 1369 3016 2328 
Q 3016 3291 2770 3770 
Q 2525 4250 2034 4250 
z
M 2034 4750 
Q 2819 4750 3233 4129 
Q 3647 3509 3647 2328 
Q 3647 1150 3233 529 
Q 2819 -91 2034 -91 
Q 1250 -91 836 529 
Q 422 1150 422 2328 
Q 422 3509 836 4129 
Q 1250 4750 2034 4750 
z
" transform="scale(0.015625)"/>
       </defs>
       <use xlink:href="#DejaVuSans-30"/>
      </g>
     </g>
    </g>
    <g id="text_9">
     <!-- 10s segment -->
     <g style="fill: #262626" transform="translate(273.3255 192.366094) scale(0.18 -0.18)">
      <defs>
       <path id="DejaVuSans-73" d="M 2834 3397 
L 2834 2853 
Q 2591 2978 2328 3040 
Q 2066 3103 1784 3103 
Q 1356 3103 1142 2972 
Q 928 2841 928 2578 
Q 928 2378 1081 2264 
Q 1234 2150 1697 2047 
L 1894 2003 
Q 2506 1872 2764 1633 
Q 3022 1394 3022 966 
Q 3022 478 2636 193 
Q 2250 -91 1575 -91 
Q 1294 -91 989 -36 
Q 684 19 347 128 
L 347 722 
Q 666 556 975 473 
Q 1284 391 1588 391 
Q 1994 391 2212 530 
Q 2431 669 2431 922 
Q 2431 1156 2273 1281 
Q 2116 1406 1581 1522 
L 1381 1569 
Q 847 1681 609 1914 
Q 372 2147 372 2553 
Q 372 3047 722 3315 
Q 1072 3584 1716 3584 
Q 2034 3584 2315 3537 
Q 2597 3491 2834 3397 
z
" transform="scale(0.015625)"/>
       <path id="DejaVuSans-20" transform="scale(0.015625)"/>
       <path id="DejaVuSans-65" d="M 3597 1894 
L 3597 1613 
L 953 1613 
Q 991 1019 1311 708 
Q 1631 397 2203 397 
Q 2534 397 2845 478 
Q 3156 559 3463 722 
L 3463 178 
Q 3153 47 2828 -22 
Q 2503 -91 2169 -91 
Q 1331 -91 842 396 
Q 353 884 353 1716 
Q 353 2575 817 3079 
Q 1281 3584 2069 3584 
Q 2775 3584 3186 3129 
Q 3597 2675 3597 1894 
z
M 3022 2063 
Q 3016 2534 2758 2815 
Q 2500 3097 2075 3097 
Q 1594 3097 1305 2825 
Q 1016 2553 972 2059 
L 3022 2063 
z
" transform="scale(0.015625)"/>
       <path id="DejaVuSans-67" d="M 2906 1791 
Q 2906 2416 2648 2759 
Q 2391 3103 1925 3103 
Q 1463 3103 1205 2759 
Q 947 2416 947 1791 
Q 947 1169 1205 825 
Q 1463 481 1925 481 
Q 2391 481 2648 825 
Q 2906 1169 2906 1791 
z
M 3481 434 
Q 3481 -459 3084 -895 
Q 2688 -1331 1869 -1331 
Q 1566 -1331 1297 -1286 
Q 1028 -1241 775 -1147 
L 775 -588 
Q 1028 -725 1275 -790 
Q 1522 -856 1778 -856 
Q 2344 -856 2625 -561 
Q 2906 -266 2906 331 
L 2906 616 
Q 2728 306 2450 153 
Q 2172 0 1784 0 
Q 1141 0 747 490 
Q 353 981 353 1791 
Q 353 2603 747 3093 
Q 1141 3584 1784 3584 
Q 2172 3584 2450 3431 
Q 2728 3278 2906 2969 
L 2906 3500 
L 3481 3500 
L 3481 434 
z
" transform="scale(0.015625)"/>
       <path id="DejaVuSans-6d" d="M 3328 2828 
Q 3544 3216 3844 3400 
Q 4144 3584 4550 3584 
Q 5097 3584 5394 3201 
Q 5691 2819 5691 2113 
L 5691 0 
L 5113 0 
L 5113 2094 
Q 5113 2597 4934 2840 
Q 4756 3084 4391 3084 
Q 3944 3084 3684 2787 
Q 3425 2491 3425 1978 
L 3425 0 
L 2847 0 
L 2847 2094 
Q 2847 2600 2669 2842 
Q 2491 3084 2119 3084 
Q 1678 3084 1418 2786 
Q 1159 2488 1159 1978 
L 1159 0 
L 581 0 
L 581 3500 
L 1159 3500 
L 1159 2956 
Q 1356 3278 1631 3431 
Q 1906 3584 2284 3584 
Q 2666 3584 2933 3390 
Q 3200 3197 3328 2828 
z
" transform="scale(0.015625)"/>
       <path id="DejaVuSans-6e" d="M 3513 2113 
L 3513 0 
L 2938 0 
L 2938 2094 
Q 2938 2591 2744 2837 
Q 2550 3084 2163 3084 
Q 1697 3084 1428 2787 
Q 1159 2491 1159 1978 
L 1159 0 
L 581 0 
L 581 3500 
L 1159 3500 
L 1159 2956 
Q 1366 3272 1645 3428 
Q 1925 3584 2291 3584 
Q 2894 3584 3203 3211 
Q 3513 2838 3513 2113 
z
" transform="scale(0.015625)"/>
       <path id="DejaVuSans-74" d="M 1172 4494 
L 1172 3500 
L 2356 3500 
L 2356 3053 
L 1172 3053 
L 1172 1153 
Q 1172 725 1289 603 
Q 1406 481 1766 481 
L 2356 481 
L 2356 0 
L 1766 0 
Q 1100 0 847 248 
Q 594 497 594 1153 
L 594 3053 
L 172 3053 
L 172 3500 
L 594 3500 
L 594 4494 
L 1172 4494 
z
" transform="scale(0.015625)"/>
      </defs>
      <use xlink:href="#DejaVuSans-31"/>
      <use xlink:href="#DejaVuSans-30" x="63.623047"/>
      <use xlink:href="#DejaVuSans-73" x="127.246094"/>
      <use xlink:href="#DejaVuSans-20" x="179.345703"/>
      <use xlink:href="#DejaVuSans-73" x="211.132812"/>
      <use xlink:href="#DejaVuSans-65" x="263.232422"/>
      <use xlink:href="#DejaVuSans-67" x="324.755859"/>
      <use xlink:href="#DejaVuSans-6d" x="388.232422"/>
      <use xlink:href="#DejaVuSans-65" x="485.644531"/>
      <use xlink:href="#DejaVuSans-6e" x="547.167969"/>
      <use xlink:href="#DejaVuSans-74" x="610.546875"/>
     </g>
    </g>
   </g>
   <g id="matplotlib.axis_2">
    <g id="ytick_1">
     <g id="text_10">
      <!-- 0.00 -->
      <g style="fill: #262626" transform="translate(60.807719 155.488711) scale(0.165 -0.165)">
       <defs>
        <path id="DejaVuSans-2e" d="M 684 794 
L 1344 794 
L 1344 0 
L 684 0 
L 684 794 
z
" transform="scale(0.015625)"/>
       </defs>
       <use xlink:href="#DejaVuSans-30"/>
       <use xlink:href="#DejaVuSans-2e" x="63.623047"/>
       <use xlink:href="#DejaVuSans-30" x="95.410156"/>
       <use xlink:href="#DejaVuSans-30" x="159.033203"/>
      </g>
     </g>
    </g>
    <g id="ytick_2">
     <g id="text_11">
      <!-- 0.25 -->
      <g style="fill: #262626" transform="translate(60.807719 112.228711) scale(0.165 -0.165)">
       <use xlink:href="#DejaVuSans-30"/>
       <use xlink:href="#DejaVuSans-2e" x="63.623047"/>
       <use xlink:href="#DejaVuSans-32" x="95.410156"/>
       <use xlink:href="#DejaVuSans-35" x="159.033203"/>
      </g>
     </g>
    </g>
    <g id="ytick_3">
     <g id="text_12">
      <!-- 0.50 -->
      <g style="fill: #262626" transform="translate(60.807719 68.968711) scale(0.165 -0.165)">
       <use xlink:href="#DejaVuSans-30"/>
       <use xlink:href="#DejaVuSans-2e" x="63.623047"/>
       <use xlink:href="#DejaVuSans-35" x="95.410156"/>
       <use xlink:href="#DejaVuSans-30" x="159.033203"/>
      </g>
     </g>
    </g>
    <g id="ytick_4">
     <g id="text_13">
      <!-- 0.75 -->
      <g style="fill: #262626" transform="translate(60.807719 25.708711) scale(0.165 -0.165)">
       <use xlink:href="#DejaVuSans-30"/>
       <use xlink:href="#DejaVuSans-2e" x="63.623047"/>
       <use xlink:href="#DejaVuSans-37" x="95.410156"/>
       <use xlink:href="#DejaVuSans-35" x="159.033203"/>
      </g>
     </g>
    </g>
    <g id="text_14">
     <!-- Distance -->
     <g style="fill: #262626" transform="translate(32.908219 123.6825) rotate(-90) scale(0.18 -0.18)">
      <defs>
       <path id="DejaVuSans-44" d="M 1259 4147 
L 1259 519 
L 2022 519 
Q 2988 519 3436 956 
Q 3884 1394 3884 2338 
Q 3884 3275 3436 3711 
Q 2988 4147 2022 4147 
L 1259 4147 
z
M 628 4666 
L 1925 4666 
Q 3281 4666 3915 4102 
Q 4550 3538 4550 2338 
Q 4550 1131 3912 565 
Q 3275 0 1925 0 
L 628 0 
L 628 4666 
z
" transform="scale(0.015625)"/>
       <path id="DejaVuSans-69" d="M 603 3500 
L 1178 3500 
L 1178 0 
L 603 0 
L 603 3500 
z
M 603 4863 
L 1178 4863 
L 1178 4134 
L 603 4134 
L 603 4863 
z
" transform="scale(0.015625)"/>
       <path id="DejaVuSans-61" d="M 2194 1759 
Q 1497 1759 1228 1600 
Q 959 1441 959 1056 
Q 959 750 1161 570 
Q 1363 391 1709 391 
Q 2188 391 2477 730 
Q 2766 1069 2766 1631 
L 2766 1759 
L 2194 1759 
z
M 3341 1997 
L 3341 0 
L 2766 0 
L 2766 531 
Q 2569 213 2275 61 
Q 1981 -91 1556 -91 
Q 1019 -91 701 211 
Q 384 513 384 1019 
Q 384 1609 779 1909 
Q 1175 2209 1959 2209 
L 2766 2209 
L 2766 2266 
Q 2766 2663 2505 2880 
Q 2244 3097 1772 3097 
Q 1472 3097 1187 3025 
Q 903 2953 641 2809 
L 641 3341 
Q 956 3463 1253 3523 
Q 1550 3584 1831 3584 
Q 2591 3584 2966 3190 
Q 3341 2797 3341 1997 
z
" transform="scale(0.015625)"/>
       <path id="DejaVuSans-63" d="M 3122 3366 
L 3122 2828 
Q 2878 2963 2633 3030 
Q 2388 3097 2138 3097 
Q 1578 3097 1268 2742 
Q 959 2388 959 1747 
Q 959 1106 1268 751 
Q 1578 397 2138 397 
Q 2388 397 2633 464 
Q 2878 531 3122 666 
L 3122 134 
Q 2881 22 2623 -34 
Q 2366 -91 2075 -91 
Q 1284 -91 818 406 
Q 353 903 353 1747 
Q 353 2603 823 3093 
Q 1294 3584 2113 3584 
Q 2378 3584 2631 3529 
Q 2884 3475 3122 3366 
z
" transform="scale(0.015625)"/>
      </defs>
      <use xlink:href="#DejaVuSans-44"/>
      <use xlink:href="#DejaVuSans-69" x="77.001953"/>
      <use xlink:href="#DejaVuSans-73" x="104.785156"/>
      <use xlink:href="#DejaVuSans-74" x="156.884766"/>
      <use xlink:href="#DejaVuSans-61" x="196.09375"/>
      <use xlink:href="#DejaVuSans-6e" x="257.373047"/>
      <use xlink:href="#DejaVuSans-63" x="320.751953"/>
      <use xlink:href="#DejaVuSans-65" x="375.732422"/>
     </g>
     <!--  to nearest -->
     <g style="fill: #262626" transform="translate(53.064281 133.094531) rotate(-90) scale(0.18 -0.18)">
      <defs>
       <path id="DejaVuSans-6f" d="M 1959 3097 
Q 1497 3097 1228 2736 
Q 959 2375 959 1747 
Q 959 1119 1226 758 
Q 1494 397 1959 397 
Q 2419 397 2687 759 
Q 2956 1122 2956 1747 
Q 2956 2369 2687 2733 
Q 2419 3097 1959 3097 
z
M 1959 3584 
Q 2709 3584 3137 3096 
Q 3566 2609 3566 1747 
Q 3566 888 3137 398 
Q 2709 -91 1959 -91 
Q 1206 -91 779 398 
Q 353 888 353 1747 
Q 353 2609 779 3096 
Q 1206 3584 1959 3584 
z
" transform="scale(0.015625)"/>
       <path id="DejaVuSans-72" d="M 2631 2963 
Q 2534 3019 2420 3045 
Q 2306 3072 2169 3072 
Q 1681 3072 1420 2755 
Q 1159 2438 1159 1844 
L 1159 0 
L 581 0 
L 581 3500 
L 1159 3500 
L 1159 2956 
Q 1341 3275 1631 3429 
Q 1922 3584 2338 3584 
Q 2397 3584 2469 3576 
Q 2541 3569 2628 3553 
L 2631 2963 
z
" transform="scale(0.015625)"/>
      </defs>
      <use xlink:href="#DejaVuSans-20"/>
      <use xlink:href="#DejaVuSans-74" x="31.787109"/>
      <use xlink:href="#DejaVuSans-6f" x="70.996094"/>
      <use xlink:href="#DejaVuSans-20" x="132.177734"/>
      <use xlink:href="#DejaVuSans-6e" x="163.964844"/>
      <use xlink:href="#DejaVuSans-65" x="227.34375"/>
      <use xlink:href="#DejaVuSans-61" x="288.867188"/>
      <use xlink:href="#DejaVuSans-72" x="350.146484"/>
      <use xlink:href="#DejaVuSans-65" x="389.009766"/>
      <use xlink:href="#DejaVuSans-73" x="450.533203"/>
      <use xlink:href="#DejaVuSans-74" x="502.632812"/>
     </g>
    </g>
   </g>
   <g id="LineCollection_1">
    <path d="M 127.478455 126.956536 
L 127.478455 125.13495 
" clip-path="url(#p7b429fd2aa)" style="fill: none; stroke: #3d8af9; stroke-opacity: 0.7; stroke-width: 1.5"/>
    <path d="M 185.856896 127.687748 
L 185.856896 124.851917 
" clip-path="url(#p7b429fd2aa)" style="fill: none; stroke: #3d8af9; stroke-opacity: 0.7; stroke-width: 1.5"/>
    <path d="M 244.235338 124.705707 
L 244.235338 123.647889 
" clip-path="url(#p7b429fd2aa)" style="fill: none; stroke: #3d8af9; stroke-opacity: 0.7; stroke-width: 1.5"/>
    <path d="M 302.613779 126.018309 
L 302.613779 123.512167 
" clip-path="url(#p7b429fd2aa)" style="fill: none; stroke: #3d8af9; stroke-opacity: 0.7; stroke-width: 1.5"/>
    <path d="M 360.992221 125.316659 
L 360.992221 123.710549 
" clip-path="url(#p7b429fd2aa)" style="fill: none; stroke: #3d8af9; stroke-opacity: 0.7; stroke-width: 1.5"/>
    <path d="M 419.370662 125.970521 
L 419.370662 123.559144 
" clip-path="url(#p7b429fd2aa)" style="fill: none; stroke: #3d8af9; stroke-opacity: 0.7; stroke-width: 1.5"/>
    <path d="M 477.749104 128.00645 
L 477.749104 126.168383 
" clip-path="url(#p7b429fd2aa)" style="fill: none; stroke: #3d8af9; stroke-opacity: 0.7; stroke-width: 1.5"/>
    <path d="M 536.127545 133.379328 
L 536.127545 128.281231 
" clip-path="url(#p7b429fd2aa)" style="fill: none; stroke: #3d8af9; stroke-opacity: 0.7; stroke-width: 1.5"/>
   </g>
   <g id="line2d_1">
    <defs>
     <path id="m42d214709c" d="M 5 0 
L -5 -0 
" style="stroke: #3d8af9; stroke-opacity: 0.7"/>
    </defs>
    <g clip-path="url(#p7b429fd2aa)">
     <use xlink:href="#m42d214709c" x="127.478455" y="126.956536" style="fill: #3d8af9; fill-opacity: 0.7; stroke: #3d8af9; stroke-opacity: 0.7"/>
     <use xlink:href="#m42d214709c" x="185.856896" y="127.687748" style="fill: #3d8af9; fill-opacity: 0.7; stroke: #3d8af9; stroke-opacity: 0.7"/>
     <use xlink:href="#m42d214709c" x="244.235338" y="124.705707" style="fill: #3d8af9; fill-opacity: 0.7; stroke: #3d8af9; stroke-opacity: 0.7"/>
     <use xlink:href="#m42d214709c" x="302.613779" y="126.018309" style="fill: #3d8af9; fill-opacity: 0.7; stroke: #3d8af9; stroke-opacity: 0.7"/>
     <use xlink:href="#m42d214709c" x="360.992221" y="125.316659" style="fill: #3d8af9; fill-opacity: 0.7; stroke: #3d8af9; stroke-opacity: 0.7"/>
     <use xlink:href="#m42d214709c" x="419.370662" y="125.970521" style="fill: #3d8af9; fill-opacity: 0.7; stroke: #3d8af9; stroke-opacity: 0.7"/>
     <use xlink:href="#m42d214709c" x="477.749104" y="128.00645" style="fill: #3d8af9; fill-opacity: 0.7; stroke: #3d8af9; stroke-opacity: 0.7"/>
     <use xlink:href="#m42d214709c" x="536.127545" y="133.379328" style="fill: #3d8af9; fill-opacity: 0.7; stroke: #3d8af9; stroke-opacity: 0.7"/>
    </g>
   </g>
   <g id="line2d_2">
    <g clip-path="url(#p7b429fd2aa)">
     <use xlink:href="#m42d214709c" x="127.478455" y="125.13495" style="fill: #3d8af9; fill-opacity: 0.7; stroke: #3d8af9; stroke-opacity: 0.7"/>
     <use xlink:href="#m42d214709c" x="185.856896" y="124.851917" style="fill: #3d8af9; fill-opacity: 0.7; stroke: #3d8af9; stroke-opacity: 0.7"/>
     <use xlink:href="#m42d214709c" x="244.235338" y="123.647889" style="fill: #3d8af9; fill-opacity: 0.7; stroke: #3d8af9; stroke-opacity: 0.7"/>
     <use xlink:href="#m42d214709c" x="302.613779" y="123.512167" style="fill: #3d8af9; fill-opacity: 0.7; stroke: #3d8af9; stroke-opacity: 0.7"/>
     <use xlink:href="#m42d214709c" x="360.992221" y="123.710549" style="fill: #3d8af9; fill-opacity: 0.7; stroke: #3d8af9; stroke-opacity: 0.7"/>
     <use xlink:href="#m42d214709c" x="419.370662" y="123.559144" style="fill: #3d8af9; fill-opacity: 0.7; stroke: #3d8af9; stroke-opacity: 0.7"/>
     <use xlink:href="#m42d214709c" x="477.749104" y="126.168383" style="fill: #3d8af9; fill-opacity: 0.7; stroke: #3d8af9; stroke-opacity: 0.7"/>
     <use xlink:href="#m42d214709c" x="536.127545" y="128.281231" style="fill: #3d8af9; fill-opacity: 0.7; stroke: #3d8af9; stroke-opacity: 0.7"/>
    </g>
   </g>
   <g id="LineCollection_2">
    <path d="M 127.478455 126.926409 
L 127.478455 121.481925 
" clip-path="url(#p7b429fd2aa)" style="fill: none; stroke: #e6aa15; stroke-opacity: 0.7; stroke-width: 1.5"/>
    <path d="M 185.856896 126.803995 
L 185.856896 125.124287 
" clip-path="url(#p7b429fd2aa)" style="fill: none; stroke: #e6aa15; stroke-opacity: 0.7; stroke-width: 1.5"/>
    <path d="M 244.235338 121.401865 
L 244.235338 116.749169 
" clip-path="url(#p7b429fd2aa)" style="fill: none; stroke: #e6aa15; stroke-opacity: 0.7; stroke-width: 1.5"/>
    <path d="M 302.613779 122.132995 
L 302.613779 116.636094 
" clip-path="url(#p7b429fd2aa)" style="fill: none; stroke: #e6aa15; stroke-opacity: 0.7; stroke-width: 1.5"/>
    <path d="M 360.992221 126.501341 
L 360.992221 122.567036 
" clip-path="url(#p7b429fd2aa)" style="fill: none; stroke: #e6aa15; stroke-opacity: 0.7; stroke-width: 1.5"/>
    <path d="M 419.370662 127.652073 
L 419.370662 125.828736 
" clip-path="url(#p7b429fd2aa)" style="fill: none; stroke: #e6aa15; stroke-opacity: 0.7; stroke-width: 1.5"/>
    <path d="M 477.749104 129.756868 
L 477.749104 127.267467 
" clip-path="url(#p7b429fd2aa)" style="fill: none; stroke: #e6aa15; stroke-opacity: 0.7; stroke-width: 1.5"/>
    <path d="M 536.127545 130.851974 
L 536.127545 127.366358 
" clip-path="url(#p7b429fd2aa)" style="fill: none; stroke: #e6aa15; stroke-opacity: 0.7; stroke-width: 1.5"/>
   </g>
   <g id="line2d_3">
    <defs>
     <path id="m5015615fc8" d="M 5 0 
L -5 -0 
" style="stroke: #e6aa15; stroke-opacity: 0.7"/>
    </defs>
    <g clip-path="url(#p7b429fd2aa)">
     <use xlink:href="#m5015615fc8" x="127.478455" y="126.926409" style="fill: #e6aa15; fill-opacity: 0.7; stroke: #e6aa15; stroke-opacity: 0.7"/>
     <use xlink:href="#m5015615fc8" x="185.856896" y="126.803995" style="fill: #e6aa15; fill-opacity: 0.7; stroke: #e6aa15; stroke-opacity: 0.7"/>
     <use xlink:href="#m5015615fc8" x="244.235338" y="121.401865" style="fill: #e6aa15; fill-opacity: 0.7; stroke: #e6aa15; stroke-opacity: 0.7"/>
     <use xlink:href="#m5015615fc8" x="302.613779" y="122.132995" style="fill: #e6aa15; fill-opacity: 0.7; stroke: #e6aa15; stroke-opacity: 0.7"/>
     <use xlink:href="#m5015615fc8" x="360.992221" y="126.501341" style="fill: #e6aa15; fill-opacity: 0.7; stroke: #e6aa15; stroke-opacity: 0.7"/>
     <use xlink:href="#m5015615fc8" x="419.370662" y="127.652073" style="fill: #e6aa15; fill-opacity: 0.7; stroke: #e6aa15; stroke-opacity: 0.7"/>
     <use xlink:href="#m5015615fc8" x="477.749104" y="129.756868" style="fill: #e6aa15; fill-opacity: 0.7; stroke: #e6aa15; stroke-opacity: 0.7"/>
     <use xlink:href="#m5015615fc8" x="536.127545" y="130.851974" style="fill: #e6aa15; fill-opacity: 0.7; stroke: #e6aa15; stroke-opacity: 0.7"/>
    </g>
   </g>
   <g id="line2d_4">
    <g clip-path="url(#p7b429fd2aa)">
     <use xlink:href="#m5015615fc8" x="127.478455" y="121.481925" style="fill: #e6aa15; fill-opacity: 0.7; stroke: #e6aa15; stroke-opacity: 0.7"/>
     <use xlink:href="#m5015615fc8" x="185.856896" y="125.124287" style="fill: #e6aa15; fill-opacity: 0.7; stroke: #e6aa15; stroke-opacity: 0.7"/>
     <use xlink:href="#m5015615fc8" x="244.235338" y="116.749169" style="fill: #e6aa15; fill-opacity: 0.7; stroke: #e6aa15; stroke-opacity: 0.7"/>
     <use xlink:href="#m5015615fc8" x="302.613779" y="116.636094" style="fill: #e6aa15; fill-opacity: 0.7; stroke: #e6aa15; stroke-opacity: 0.7"/>
     <use xlink:href="#m5015615fc8" x="360.992221" y="122.567036" style="fill: #e6aa15; fill-opacity: 0.7; stroke: #e6aa15; stroke-opacity: 0.7"/>
     <use xlink:href="#m5015615fc8" x="419.370662" y="125.828736" style="fill: #e6aa15; fill-opacity: 0.7; stroke: #e6aa15; stroke-opacity: 0.7"/>
     <use xlink:href="#m5015615fc8" x="477.749104" y="127.267467" style="fill: #e6aa15; fill-opacity: 0.7; stroke: #e6aa15; stroke-opacity: 0.7"/>
     <use xlink:href="#m5015615fc8" x="536.127545" y="127.366358" style="fill: #e6aa15; fill-opacity: 0.7; stroke: #e6aa15; stroke-opacity: 0.7"/>
    </g>
   </g>
   <g id="LineCollection_3">
    <path d="M 127.478455 137.162551 
L 127.478455 112.100761 
" clip-path="url(#p7b429fd2aa)" style="fill: none; stroke: #26262d; stroke-opacity: 0.7; stroke-width: 1.5"/>
    <path d="M 185.856896 133.193672 
L 185.856896 111.767936 
" clip-path="url(#p7b429fd2aa)" style="fill: none; stroke: #26262d; stroke-opacity: 0.7; stroke-width: 1.5"/>
    <path d="M 244.235338 131.692874 
L 244.235338 127.658515 
" clip-path="url(#p7b429fd2aa)" style="fill: none; stroke: #26262d; stroke-opacity: 0.7; stroke-width: 1.5"/>
    <path d="M 302.613779 131.774096 
L 302.613779 125.469289 
" clip-path="url(#p7b429fd2aa)" style="fill: none; stroke: #26262d; stroke-opacity: 0.7; stroke-width: 1.5"/>
    <path d="M 360.992221 123.503812 
L 360.992221 116.26658 
" clip-path="url(#p7b429fd2aa)" style="fill: none; stroke: #26262d; stroke-opacity: 0.7; stroke-width: 1.5"/>
    <path d="M 419.370662 123.118529 
L 419.370662 118.11318 
" clip-path="url(#p7b429fd2aa)" style="fill: none; stroke: #26262d; stroke-opacity: 0.7; stroke-width: 1.5"/>
    <path d="M 477.749104 126.170974 
L 477.749104 123.807895 
" clip-path="url(#p7b429fd2aa)" style="fill: none; stroke: #26262d; stroke-opacity: 0.7; stroke-width: 1.5"/>
    <path d="M 536.127545 128.25062 
L 536.127545 125.204203 
" clip-path="url(#p7b429fd2aa)" style="fill: none; stroke: #26262d; stroke-opacity: 0.7; stroke-width: 1.5"/>
   </g>
   <g id="line2d_5">
    <defs>
     <path id="m09ccaa16f5" d="M 5 0 
L -5 -0 
" style="stroke: #26262d; stroke-opacity: 0.7"/>
    </defs>
    <g clip-path="url(#p7b429fd2aa)">
     <use xlink:href="#m09ccaa16f5" x="127.478455" y="137.162551" style="fill: #26262d; fill-opacity: 0.7; stroke: #26262d; stroke-opacity: 0.7"/>
     <use xlink:href="#m09ccaa16f5" x="185.856896" y="133.193672" style="fill: #26262d; fill-opacity: 0.7; stroke: #26262d; stroke-opacity: 0.7"/>
     <use xlink:href="#m09ccaa16f5" x="244.235338" y="131.692874" style="fill: #26262d; fill-opacity: 0.7; stroke: #26262d; stroke-opacity: 0.7"/>
     <use xlink:href="#m09ccaa16f5" x="302.613779" y="131.774096" style="fill: #26262d; fill-opacity: 0.7; stroke: #26262d; stroke-opacity: 0.7"/>
     <use xlink:href="#m09ccaa16f5" x="360.992221" y="123.503812" style="fill: #26262d; fill-opacity: 0.7; stroke: #26262d; stroke-opacity: 0.7"/>
     <use xlink:href="#m09ccaa16f5" x="419.370662" y="123.118529" style="fill: #26262d; fill-opacity: 0.7; stroke: #26262d; stroke-opacity: 0.7"/>
     <use xlink:href="#m09ccaa16f5" x="477.749104" y="126.170974" style="fill: #26262d; fill-opacity: 0.7; stroke: #26262d; stroke-opacity: 0.7"/>
     <use xlink:href="#m09ccaa16f5" x="536.127545" y="128.25062" style="fill: #26262d; fill-opacity: 0.7; stroke: #26262d; stroke-opacity: 0.7"/>
    </g>
   </g>
   <g id="line2d_6">
    <g clip-path="url(#p7b429fd2aa)">
     <use xlink:href="#m09ccaa16f5" x="127.478455" y="112.100761" style="fill: #26262d; fill-opacity: 0.7; stroke: #26262d; stroke-opacity: 0.7"/>
     <use xlink:href="#m09ccaa16f5" x="185.856896" y="111.767936" style="fill: #26262d; fill-opacity: 0.7; stroke: #26262d; stroke-opacity: 0.7"/>
     <use xlink:href="#m09ccaa16f5" x="244.235338" y="127.658515" style="fill: #26262d; fill-opacity: 0.7; stroke: #26262d; stroke-opacity: 0.7"/>
     <use xlink:href="#m09ccaa16f5" x="302.613779" y="125.469289" style="fill: #26262d; fill-opacity: 0.7; stroke: #26262d; stroke-opacity: 0.7"/>
     <use xlink:href="#m09ccaa16f5" x="360.992221" y="116.26658" style="fill: #26262d; fill-opacity: 0.7; stroke: #26262d; stroke-opacity: 0.7"/>
     <use xlink:href="#m09ccaa16f5" x="419.370662" y="118.11318" style="fill: #26262d; fill-opacity: 0.7; stroke: #26262d; stroke-opacity: 0.7"/>
     <use xlink:href="#m09ccaa16f5" x="477.749104" y="123.807895" style="fill: #26262d; fill-opacity: 0.7; stroke: #26262d; stroke-opacity: 0.7"/>
     <use xlink:href="#m09ccaa16f5" x="536.127545" y="125.204203" style="fill: #26262d; fill-opacity: 0.7; stroke: #26262d; stroke-opacity: 0.7"/>
    </g>
   </g>
   <g id="line2d_7">
    <path d="M 127.478455 126.045743 
L 185.856896 126.269832 
L 244.235338 124.176798 
L 302.613779 124.765238 
L 360.992221 124.513604 
L 419.370662 124.764833 
L 477.749104 127.087416 
L 536.127545 130.830279 
" clip-path="url(#p7b429fd2aa)" style="fill: none; stroke: #3d8af9; stroke-opacity: 0.7; stroke-width: 1.5; stroke-linecap: round"/>
    <defs>
     <path id="m32b2bfc1d2" d="M 0 3 
C 0.795609 3 1.55874 2.683901 2.12132 2.12132 
C 2.683901 1.55874 3 0.795609 3 0 
C 3 -0.795609 2.683901 -1.55874 2.12132 -2.12132 
C 1.55874 -2.683901 0.795609 -3 0 -3 
C -0.795609 -3 -1.55874 -2.683901 -2.12132 -2.12132 
C -2.683901 -1.55874 -3 -0.795609 -3 0 
C -3 0.795609 -2.683901 1.55874 -2.12132 2.12132 
C -1.55874 2.683901 -0.795609 3 0 3 
z
" style="stroke: #3d8af9; stroke-opacity: 0.7"/>
    </defs>
    <g clip-path="url(#p7b429fd2aa)">
     <use xlink:href="#m32b2bfc1d2" x="127.478455" y="126.045743" style="fill: #3d8af9; fill-opacity: 0.7; stroke: #3d8af9; stroke-opacity: 0.7"/>
     <use xlink:href="#m32b2bfc1d2" x="185.856896" y="126.269832" style="fill: #3d8af9; fill-opacity: 0.7; stroke: #3d8af9; stroke-opacity: 0.7"/>
     <use xlink:href="#m32b2bfc1d2" x="244.235338" y="124.176798" style="fill: #3d8af9; fill-opacity: 0.7; stroke: #3d8af9; stroke-opacity: 0.7"/>
     <use xlink:href="#m32b2bfc1d2" x="302.613779" y="124.765238" style="fill: #3d8af9; fill-opacity: 0.7; stroke: #3d8af9; stroke-opacity: 0.7"/>
     <use xlink:href="#m32b2bfc1d2" x="360.992221" y="124.513604" style="fill: #3d8af9; fill-opacity: 0.7; stroke: #3d8af9; stroke-opacity: 0.7"/>
     <use xlink:href="#m32b2bfc1d2" x="419.370662" y="124.764833" style="fill: #3d8af9; fill-opacity: 0.7; stroke: #3d8af9; stroke-opacity: 0.7"/>
     <use xlink:href="#m32b2bfc1d2" x="477.749104" y="127.087416" style="fill: #3d8af9; fill-opacity: 0.7; stroke: #3d8af9; stroke-opacity: 0.7"/>
     <use xlink:href="#m32b2bfc1d2" x="536.127545" y="130.830279" style="fill: #3d8af9; fill-opacity: 0.7; stroke: #3d8af9; stroke-opacity: 0.7"/>
    </g>
   </g>
   <g id="line2d_8">
    <path d="M 127.478455 124.204167 
L 185.856896 125.964141 
L 244.235338 119.075517 
L 302.613779 119.384544 
L 360.992221 124.534189 
L 419.370662 126.740405 
L 477.749104 128.512168 
L 536.127545 129.109166 
" clip-path="url(#p7b429fd2aa)" style="fill: none; stroke: #e6aa15; stroke-opacity: 0.7; stroke-width: 1.5; stroke-linecap: round"/>
    <defs>
     <path id="m442bcbaef6" d="M 0 3 
C 0.795609 3 1.55874 2.683901 2.12132 2.12132 
C 2.683901 1.55874 3 0.795609 3 0 
C 3 -0.795609 2.683901 -1.55874 2.12132 -2.12132 
C 1.55874 -2.683901 0.795609 -3 0 -3 
C -0.795609 -3 -1.55874 -2.683901 -2.12132 -2.12132 
C -2.683901 -1.55874 -3 -0.795609 -3 0 
C -3 0.795609 -2.683901 1.55874 -2.12132 2.12132 
C -1.55874 2.683901 -0.795609 3 0 3 
z
" style="stroke: #e6aa15; stroke-opacity: 0.7"/>
    </defs>
    <g clip-path="url(#p7b429fd2aa)">
     <use xlink:href="#m442bcbaef6" x="127.478455" y="124.204167" style="fill: #e6aa15; fill-opacity: 0.7; stroke: #e6aa15; stroke-opacity: 0.7"/>
     <use xlink:href="#m442bcbaef6" x="185.856896" y="125.964141" style="fill: #e6aa15; fill-opacity: 0.7; stroke: #e6aa15; stroke-opacity: 0.7"/>
     <use xlink:href="#m442bcbaef6" x="244.235338" y="119.075517" style="fill: #e6aa15; fill-opacity: 0.7; stroke: #e6aa15; stroke-opacity: 0.7"/>
     <use xlink:href="#m442bcbaef6" x="302.613779" y="119.384544" style="fill: #e6aa15; fill-opacity: 0.7; stroke: #e6aa15; stroke-opacity: 0.7"/>
     <use xlink:href="#m442bcbaef6" x="360.992221" y="124.534189" style="fill: #e6aa15; fill-opacity: 0.7; stroke: #e6aa15; stroke-opacity: 0.7"/>
     <use xlink:href="#m442bcbaef6" x="419.370662" y="126.740405" style="fill: #e6aa15; fill-opacity: 0.7; stroke: #e6aa15; stroke-opacity: 0.7"/>
     <use xlink:href="#m442bcbaef6" x="477.749104" y="128.512168" style="fill: #e6aa15; fill-opacity: 0.7; stroke: #e6aa15; stroke-opacity: 0.7"/>
     <use xlink:href="#m442bcbaef6" x="536.127545" y="129.109166" style="fill: #e6aa15; fill-opacity: 0.7; stroke: #e6aa15; stroke-opacity: 0.7"/>
    </g>
   </g>
   <g id="line2d_9">
    <path d="M 127.478455 124.631656 
L 185.856896 122.480804 
L 244.235338 129.675695 
L 302.613779 128.621692 
L 360.992221 119.885196 
L 419.370662 120.615854 
L 477.749104 124.989434 
L 536.127545 126.727412 
" clip-path="url(#p7b429fd2aa)" style="fill: none; stroke: #26262d; stroke-opacity: 0.7; stroke-width: 1.5; stroke-linecap: round"/>
    <defs>
     <path id="m7e25d94acf" d="M 0 3 
C 0.795609 3 1.55874 2.683901 2.12132 2.12132 
C 2.683901 1.55874 3 0.795609 3 0 
C 3 -0.795609 2.683901 -1.55874 2.12132 -2.12132 
C 1.55874 -2.683901 0.795609 -3 0 -3 
C -0.795609 -3 -1.55874 -2.683901 -2.12132 -2.12132 
C -2.683901 -1.55874 -3 -0.795609 -3 0 
C -3 0.795609 -2.683901 1.55874 -2.12132 2.12132 
C -1.55874 2.683901 -0.795609 3 0 3 
z
" style="stroke: #26262d; stroke-opacity: 0.7"/>
    </defs>
    <g clip-path="url(#p7b429fd2aa)">
     <use xlink:href="#m7e25d94acf" x="127.478455" y="124.631656" style="fill: #26262d; fill-opacity: 0.7; stroke: #26262d; stroke-opacity: 0.7"/>
     <use xlink:href="#m7e25d94acf" x="185.856896" y="122.480804" style="fill: #26262d; fill-opacity: 0.7; stroke: #26262d; stroke-opacity: 0.7"/>
     <use xlink:href="#m7e25d94acf" x="244.235338" y="129.675695" style="fill: #26262d; fill-opacity: 0.7; stroke: #26262d; stroke-opacity: 0.7"/>
     <use xlink:href="#m7e25d94acf" x="302.613779" y="128.621692" style="fill: #26262d; fill-opacity: 0.7; stroke: #26262d; stroke-opacity: 0.7"/>
     <use xlink:href="#m7e25d94acf" x="360.992221" y="119.885196" style="fill: #26262d; fill-opacity: 0.7; stroke: #26262d; stroke-opacity: 0.7"/>
     <use xlink:href="#m7e25d94acf" x="419.370662" y="120.615854" style="fill: #26262d; fill-opacity: 0.7; stroke: #26262d; stroke-opacity: 0.7"/>
     <use xlink:href="#m7e25d94acf" x="477.749104" y="124.989434" style="fill: #26262d; fill-opacity: 0.7; stroke: #26262d; stroke-opacity: 0.7"/>
     <use xlink:href="#m7e25d94acf" x="536.127545" y="126.727412" style="fill: #26262d; fill-opacity: 0.7; stroke: #26262d; stroke-opacity: 0.7"/>
    </g>
   </g>
   <g id="patch_3">
    <path d="M 107.046 149.22 
L 107.046 19.44 
" style="fill: none; stroke: #262626; stroke-width: 1.25; stroke-linejoin: miter; stroke-linecap: square"/>
   </g>
   <g id="patch_4">
    <path d="M 556.56 149.22 
L 556.56 19.44 
" style="fill: none; stroke: #262626; stroke-width: 1.25; stroke-linejoin: miter; stroke-linecap: square"/>
   </g>
   <g id="patch_5">
    <path d="M 107.046 149.22 
L 556.56 149.22 
" style="fill: none; stroke: #262626; stroke-width: 1.25; stroke-linejoin: miter; stroke-linecap: square"/>
   </g>
   <g id="patch_6">
    <path d="M 107.046 19.44 
L 556.56 19.44 
" style="fill: none; stroke: #262626; stroke-width: 1.25; stroke-linejoin: miter; stroke-linecap: square"/>
   </g>
   <g id="legend_1">
    <g id="patch_7">
     <path d="M 538.41 40.89 
L 545.01 40.89 
Q 548.31 40.89 548.31 37.59 
L 548.31 30.99 
Q 548.31 27.69 545.01 27.69 
L 538.41 27.69 
Q 535.11 27.69 535.11 30.99 
L 535.11 37.59 
Q 535.11 40.89 538.41 40.89 
z
" style="fill: #ffffff; opacity: 0.8; stroke: #cccccc; stroke-linejoin: miter"/>
    </g>
   </g>
  </g>
 </g>
 <defs>
  <clipPath id="p7b429fd2aa">
   <rect x="107.046" y="19.44" width="449.514" height="129.78"/>
  </clipPath>
 </defs>
</svg>
