<?xml version="1.0" encoding="utf-8" standalone="no"?>
<!DOCTYPE svg PUBLIC "-//W3C//DTD SVG 1.1//EN"
  "http://www.w3.org/Graphics/SVG/1.1/DTD/svg11.dtd">
<svg xmlns:xlink="http://www.w3.org/1999/xlink" width="576pt" height="216pt" viewBox="0 0 576 216" xmlns="http://www.w3.org/2000/svg" version="1.1">
 <metadata>
  <rdf:RDF xmlns:dc="http://purl.org/dc/elements/1.1/" xmlns:cc="http://creativecommons.org/ns#" xmlns:rdf="http://www.w3.org/1999/02/22-rdf-syntax-ns#">
   <cc:Work>
    <dc:type rdf:resource="http://purl.org/dc/dcmitype/StillImage"/>
    <dc:date>2023-08-11T18:26:20.284570</dc:date>
    <dc:format>image/svg+xml</dc:format>
    <dc:creator>
     <cc:Agent>
      <dc:title>Matplotlib v3.7.1, https://matplotlib.org/</dc:title>
     </cc:Agent>
    </dc:creator>
   </cc:Work>
  </rdf:RDF>
 </metadata>
 <defs>
  <style type="text/css">*{stroke-linejoin: round; stroke-linecap: butt}</style>
 </defs>
 <g id="figure_1">
  <g id="patch_1">
   <path d="M 0 216 
L 576 216 
L 576 0 
L 0 0 
z
" style="fill: #ffffff"/>
  </g>
  <g id="axes_1">
   <g id="patch_2">
    <path d="M 96.516 149.22 
L 556.56 149.22 
L 556.56 19.44 
L 96.516 19.44 
z
" style="fill: #ffffff"/>
   </g>
   <g id="matplotlib.axis_1">
    <g id="xtick_1">
     <g id="text_1">
      <!-- -7 -->
      <g style="fill: #262626" transform="translate(109.201583 171.257422) scale(0.165 -0.165)">
       <defs>
        <path id="DejaVuSans-2d" d="M 313 2009 
L 1997 2009 
L 1997 1497 
L 313 1497 
L 313 2009 
z
" transform="scale(0.015625)"/>
        <path id="DejaVuSans-37" d="M 525 4666 
L 3525 4666 
L 3525 4397 
L 1831 0 
L 1172 0 
L 2766 4134 
L 525 4134 
L 525 4666 
z
" transform="scale(0.015625)"/>
       </defs>
       <use xlink:href="#DejaVuSans-2d"/>
       <use xlink:href="#DejaVuSans-37" x="36.083984"/>
      </g>
     </g>
    </g>
    <g id="xtick_2">
     <g id="text_2">
      <!-- -6 -->
      <g style="fill: #262626" transform="translate(168.947557 171.257422) scale(0.165 -0.165)">
       <defs>
        <path id="DejaVuSans-36" d="M 2113 2584 
Q 1688 2584 1439 2293 
Q 1191 2003 1191 1497 
Q 1191 994 1439 701 
Q 1688 409 2113 409 
Q 2538 409 2786 701 
Q 3034 994 3034 1497 
Q 3034 2003 2786 2293 
Q 2538 2584 2113 2584 
z
M 3366 4563 
L 3366 3988 
Q 3128 4100 2886 4159 
Q 2644 4219 2406 4219 
Q 1781 4219 1451 3797 
Q 1122 3375 1075 2522 
Q 1259 2794 1537 2939 
Q 1816 3084 2150 3084 
Q 2853 3084 3261 2657 
Q 3669 2231 3669 1497 
Q 3669 778 3244 343 
Q 2819 -91 2113 -91 
Q 1303 -91 875 529 
Q 447 1150 447 2328 
Q 447 3434 972 4092 
Q 1497 4750 2381 4750 
Q 2619 4750 2861 4703 
Q 3103 4656 3366 4563 
z
" transform="scale(0.015625)"/>
       </defs>
       <use xlink:href="#DejaVuSans-2d"/>
       <use xlink:href="#DejaVuSans-36" x="36.083984"/>
      </g>
     </g>
    </g>
    <g id="xtick_3">
     <g id="text_3">
      <!-- -5 -->
      <g style="fill: #262626" transform="translate(228.693531 171.257422) scale(0.165 -0.165)">
       <defs>
        <path id="DejaVuSans-35" d="M 691 4666 
L 3169 4666 
L 3169 4134 
L 1269 4134 
L 1269 2991 
Q 1406 3038 1543 3061 
Q 1681 3084 1819 3084 
Q 2600 3084 3056 2656 
Q 3513 2228 3513 1497 
Q 3513 744 3044 326 
Q 2575 -91 1722 -91 
Q 1428 -91 1123 -41 
Q 819 9 494 109 
L 494 744 
Q 775 591 1075 516 
Q 1375 441 1709 441 
Q 2250 441 2565 725 
Q 2881 1009 2881 1497 
Q 2881 1984 2565 2268 
Q 2250 2553 1709 2553 
Q 1456 2553 1204 2497 
Q 953 2441 691 2322 
L 691 4666 
z
" transform="scale(0.015625)"/>
       </defs>
       <use xlink:href="#DejaVuSans-2d"/>
       <use xlink:href="#DejaVuSans-35" x="36.083984"/>
      </g>
     </g>
    </g>
    <g id="xtick_4">
     <g id="text_4">
      <!-- -4 -->
      <g style="fill: #262626" transform="translate(288.439505 171.257422) scale(0.165 -0.165)">
       <defs>
        <path id="DejaVuSans-34" d="M 2419 4116 
L 825 1625 
L 2419 1625 
L 2419 4116 
z
M 2253 4666 
L 3047 4666 
L 3047 1625 
L 3713 1625 
L 3713 1100 
L 3047 1100 
L 3047 0 
L 2419 0 
L 2419 1100 
L 313 1100 
L 313 1709 
L 2253 4666 
z
" transform="scale(0.015625)"/>
       </defs>
       <use xlink:href="#DejaVuSans-2d"/>
       <use xlink:href="#DejaVuSans-34" x="36.083984"/>
      </g>
     </g>
    </g>
    <g id="xtick_5">
     <g id="text_5">
      <!-- -3 -->
      <g style="fill: #262626" transform="translate(348.185479 171.257422) scale(0.165 -0.165)">
       <defs>
        <path id="DejaVuSans-33" d="M 2597 2516 
Q 3050 2419 3304 2112 
Q 3559 1806 3559 1356 
Q 3559 666 3084 287 
Q 2609 -91 1734 -91 
Q 1441 -91 1130 -33 
Q 819 25 488 141 
L 488 750 
Q 750 597 1062 519 
Q 1375 441 1716 441 
Q 2309 441 2620 675 
Q 2931 909 2931 1356 
Q 2931 1769 2642 2001 
Q 2353 2234 1838 2234 
L 1294 2234 
L 1294 2753 
L 1863 2753 
Q 2328 2753 2575 2939 
Q 2822 3125 2822 3475 
Q 2822 3834 2567 4026 
Q 2313 4219 1838 4219 
Q 1578 4219 1281 4162 
Q 984 4106 628 3988 
L 628 4550 
Q 988 4650 1302 4700 
Q 1616 4750 1894 4750 
Q 2613 4750 3031 4423 
Q 3450 4097 3450 3541 
Q 3450 3153 3228 2886 
Q 3006 2619 2597 2516 
z
" transform="scale(0.015625)"/>
       </defs>
       <use xlink:href="#DejaVuSans-2d"/>
       <use xlink:href="#DejaVuSans-33" x="36.083984"/>
      </g>
     </g>
    </g>
    <g id="xtick_6">
     <g id="text_6">
      <!-- -2 -->
      <g style="fill: #262626" transform="translate(407.931453 171.257422) scale(0.165 -0.165)">
       <defs>
        <path id="DejaVuSans-32" d="M 1228 531 
L 3431 531 
L 3431 0 
L 469 0 
L 469 531 
Q 828 903 1448 1529 
Q 2069 2156 2228 2338 
Q 2531 2678 2651 2914 
Q 2772 3150 2772 3378 
Q 2772 3750 2511 3984 
Q 2250 4219 1831 4219 
Q 1534 4219 1204 4116 
Q 875 4013 500 3803 
L 500 4441 
Q 881 4594 1212 4672 
Q 1544 4750 1819 4750 
Q 2544 4750 2975 4387 
Q 3406 4025 3406 3419 
Q 3406 3131 3298 2873 
Q 3191 2616 2906 2266 
Q 2828 2175 2409 1742 
Q 1991 1309 1228 531 
z
" transform="scale(0.015625)"/>
       </defs>
       <use xlink:href="#DejaVuSans-2d"/>
       <use xlink:href="#DejaVuSans-32" x="36.083984"/>
      </g>
     </g>
    </g>
    <g id="xtick_7">
     <g id="text_7">
      <!-- -1 -->
      <g style="fill: #262626" transform="translate(467.677427 171.257422) scale(0.165 -0.165)">
       <defs>
        <path id="DejaVuSans-31" d="M 794 531 
L 1825 531 
L 1825 4091 
L 703 3866 
L 703 4441 
L 1819 4666 
L 2450 4666 
L 2450 531 
L 3481 531 
L 3481 0 
L 794 0 
L 794 531 
z
" transform="scale(0.015625)"/>
       </defs>
       <use xlink:href="#DejaVuSans-2d"/>
       <use xlink:href="#DejaVuSans-31" x="36.083984"/>
      </g>
     </g>
    </g>
    <g id="xtick_8">
     <g id="text_8">
      <!-- 0 -->
      <g style="fill: #262626" transform="translate(530.399847 171.257422) scale(0.165 -0.165)">
       <defs>
        <path id="DejaVuSans-30" d="M 2034 4250 
Q 1547 4250 1301 3770 
Q 1056 3291 1056 2328 
Q 1056 1369 1301 889 
Q 1547 409 2034 409 
Q 2525 409 2770 889 
Q 3016 1369 3016 2328 
Q 3016 3291 2770 3770 
Q 2525 4250 2034 4250 
z
M 2034 4750 
Q 2819 4750 3233 4129 
Q 3647 3509 3647 2328 
Q 3647 1150 3233 529 
Q 2819 -91 2034 -91 
Q 1250 -91 836 529 
Q 422 1150 422 2328 
Q 422 3509 836 4129 
Q 1250 4750 2034 4750 
z
" transform="scale(0.015625)"/>
       </defs>
       <use xlink:href="#DejaVuSans-30"/>
      </g>
     </g>
    </g>
    <g id="text_9">
     <!-- 10s segment -->
     <g style="fill: #262626" transform="translate(268.0605 192.366094) scale(0.18 -0.18)">
      <defs>
       <path id="DejaVuSans-73" d="M 2834 3397 
L 2834 2853 
Q 2591 2978 2328 3040 
Q 2066 3103 1784 3103 
Q 1356 3103 1142 2972 
Q 928 2841 928 2578 
Q 928 2378 1081 2264 
Q 1234 2150 1697 2047 
L 1894 2003 
Q 2506 1872 2764 1633 
Q 3022 1394 3022 966 
Q 3022 478 2636 193 
Q 2250 -91 1575 -91 
Q 1294 -91 989 -36 
Q 684 19 347 128 
L 347 722 
Q 666 556 975 473 
Q 1284 391 1588 391 
Q 1994 391 2212 530 
Q 2431 669 2431 922 
Q 2431 1156 2273 1281 
Q 2116 1406 1581 1522 
L 1381 1569 
Q 847 1681 609 1914 
Q 372 2147 372 2553 
Q 372 3047 722 3315 
Q 1072 3584 1716 3584 
Q 2034 3584 2315 3537 
Q 2597 3491 2834 3397 
z
" transform="scale(0.015625)"/>
       <path id="DejaVuSans-20" transform="scale(0.015625)"/>
       <path id="DejaVuSans-65" d="M 3597 1894 
L 3597 1613 
L 953 1613 
Q 991 1019 1311 708 
Q 1631 397 2203 397 
Q 2534 397 2845 478 
Q 3156 559 3463 722 
L 3463 178 
Q 3153 47 2828 -22 
Q 2503 -91 2169 -91 
Q 1331 -91 842 396 
Q 353 884 353 1716 
Q 353 2575 817 3079 
Q 1281 3584 2069 3584 
Q 2775 3584 3186 3129 
Q 3597 2675 3597 1894 
z
M 3022 2063 
Q 3016 2534 2758 2815 
Q 2500 3097 2075 3097 
Q 1594 3097 1305 2825 
Q 1016 2553 972 2059 
L 3022 2063 
z
" transform="scale(0.015625)"/>
       <path id="DejaVuSans-67" d="M 2906 1791 
Q 2906 2416 2648 2759 
Q 2391 3103 1925 3103 
Q 1463 3103 1205 2759 
Q 947 2416 947 1791 
Q 947 1169 1205 825 
Q 1463 481 1925 481 
Q 2391 481 2648 825 
Q 2906 1169 2906 1791 
z
M 3481 434 
Q 3481 -459 3084 -895 
Q 2688 -1331 1869 -1331 
Q 1566 -1331 1297 -1286 
Q 1028 -1241 775 -1147 
L 775 -588 
Q 1028 -725 1275 -790 
Q 1522 -856 1778 -856 
Q 2344 -856 2625 -561 
Q 2906 -266 2906 331 
L 2906 616 
Q 2728 306 2450 153 
Q 2172 0 1784 0 
Q 1141 0 747 490 
Q 353 981 353 1791 
Q 353 2603 747 3093 
Q 1141 3584 1784 3584 
Q 2172 3584 2450 3431 
Q 2728 3278 2906 2969 
L 2906 3500 
L 3481 3500 
L 3481 434 
z
" transform="scale(0.015625)"/>
       <path id="DejaVuSans-6d" d="M 3328 2828 
Q 3544 3216 3844 3400 
Q 4144 3584 4550 3584 
Q 5097 3584 5394 3201 
Q 5691 2819 5691 2113 
L 5691 0 
L 5113 0 
L 5113 2094 
Q 5113 2597 4934 2840 
Q 4756 3084 4391 3084 
Q 3944 3084 3684 2787 
Q 3425 2491 3425 1978 
L 3425 0 
L 2847 0 
L 2847 2094 
Q 2847 2600 2669 2842 
Q 2491 3084 2119 3084 
Q 1678 3084 1418 2786 
Q 1159 2488 1159 1978 
L 1159 0 
L 581 0 
L 581 3500 
L 1159 3500 
L 1159 2956 
Q 1356 3278 1631 3431 
Q 1906 3584 2284 3584 
Q 2666 3584 2933 3390 
Q 3200 3197 3328 2828 
z
" transform="scale(0.015625)"/>
       <path id="DejaVuSans-6e" d="M 3513 2113 
L 3513 0 
L 2938 0 
L 2938 2094 
Q 2938 2591 2744 2837 
Q 2550 3084 2163 3084 
Q 1697 3084 1428 2787 
Q 1159 2491 1159 1978 
L 1159 0 
L 581 0 
L 581 3500 
L 1159 3500 
L 1159 2956 
Q 1366 3272 1645 3428 
Q 1925 3584 2291 3584 
Q 2894 3584 3203 3211 
Q 3513 2838 3513 2113 
z
" transform="scale(0.015625)"/>
       <path id="DejaVuSans-74" d="M 1172 4494 
L 1172 3500 
L 2356 3500 
L 2356 3053 
L 1172 3053 
L 1172 1153 
Q 1172 725 1289 603 
Q 1406 481 1766 481 
L 2356 481 
L 2356 0 
L 1766 0 
Q 1100 0 847 248 
Q 594 497 594 1153 
L 594 3053 
L 172 3053 
L 172 3500 
L 594 3500 
L 594 4494 
L 1172 4494 
z
" transform="scale(0.015625)"/>
      </defs>
      <use xlink:href="#DejaVuSans-31"/>
      <use xlink:href="#DejaVuSans-30" x="63.623047"/>
      <use xlink:href="#DejaVuSans-73" x="127.246094"/>
      <use xlink:href="#DejaVuSans-20" x="179.345703"/>
      <use xlink:href="#DejaVuSans-73" x="211.132812"/>
      <use xlink:href="#DejaVuSans-65" x="263.232422"/>
      <use xlink:href="#DejaVuSans-67" x="324.755859"/>
      <use xlink:href="#DejaVuSans-6d" x="388.232422"/>
      <use xlink:href="#DejaVuSans-65" x="485.644531"/>
      <use xlink:href="#DejaVuSans-6e" x="547.167969"/>
      <use xlink:href="#DejaVuSans-74" x="610.546875"/>
     </g>
    </g>
   </g>
   <g id="matplotlib.axis_2">
    <g id="ytick_1">
     <g id="text_10">
      <!-- 0.00 -->
      <g style="fill: #262626" transform="translate(50.277719 155.488711) scale(0.165 -0.165)">
       <defs>
        <path id="DejaVuSans-2e" d="M 684 794 
L 1344 794 
L 1344 0 
L 684 0 
L 684 794 
z
" transform="scale(0.015625)"/>
       </defs>
       <use xlink:href="#DejaVuSans-30"/>
       <use xlink:href="#DejaVuSans-2e" x="63.623047"/>
       <use xlink:href="#DejaVuSans-30" x="95.410156"/>
       <use xlink:href="#DejaVuSans-30" x="159.033203"/>
      </g>
     </g>
    </g>
    <g id="ytick_2">
     <g id="text_11">
      <!-- 0.25 -->
      <g style="fill: #262626" transform="translate(50.277719 112.228711) scale(0.165 -0.165)">
       <use xlink:href="#DejaVuSans-30"/>
       <use xlink:href="#DejaVuSans-2e" x="63.623047"/>
       <use xlink:href="#DejaVuSans-32" x="95.410156"/>
       <use xlink:href="#DejaVuSans-35" x="159.033203"/>
      </g>
     </g>
    </g>
    <g id="ytick_3">
     <g id="text_12">
      <!-- 0.50 -->
      <g style="fill: #262626" transform="translate(50.277719 68.968711) scale(0.165 -0.165)">
       <use xlink:href="#DejaVuSans-30"/>
       <use xlink:href="#DejaVuSans-2e" x="63.623047"/>
       <use xlink:href="#DejaVuSans-35" x="95.410156"/>
       <use xlink:href="#DejaVuSans-30" x="159.033203"/>
      </g>
     </g>
    </g>
    <g id="ytick_4">
     <g id="text_13">
      <!-- 0.75 -->
      <g style="fill: #262626" transform="translate(50.277719 25.708711) scale(0.165 -0.165)">
       <use xlink:href="#DejaVuSans-30"/>
       <use xlink:href="#DejaVuSans-2e" x="63.623047"/>
       <use xlink:href="#DejaVuSans-37" x="95.410156"/>
       <use xlink:href="#DejaVuSans-35" x="159.033203"/>
      </g>
     </g>
    </g>
    <g id="text_14">
     <!-- Spread from -->
     <g style="fill: #262626" transform="translate(22.378219 139.820625) rotate(-90) scale(0.18 -0.18)">
      <defs>
       <path id="DejaVuSans-53" d="M 3425 4513 
L 3425 3897 
Q 3066 4069 2747 4153 
Q 2428 4238 2131 4238 
Q 1616 4238 1336 4038 
Q 1056 3838 1056 3469 
Q 1056 3159 1242 3001 
Q 1428 2844 1947 2747 
L 2328 2669 
Q 3034 2534 3370 2195 
Q 3706 1856 3706 1288 
Q 3706 609 3251 259 
Q 2797 -91 1919 -91 
Q 1588 -91 1214 -16 
Q 841 59 441 206 
L 441 856 
Q 825 641 1194 531 
Q 1563 422 1919 422 
Q 2459 422 2753 634 
Q 3047 847 3047 1241 
Q 3047 1584 2836 1778 
Q 2625 1972 2144 2069 
L 1759 2144 
Q 1053 2284 737 2584 
Q 422 2884 422 3419 
Q 422 4038 858 4394 
Q 1294 4750 2059 4750 
Q 2388 4750 2728 4690 
Q 3069 4631 3425 4513 
z
" transform="scale(0.015625)"/>
       <path id="DejaVuSans-70" d="M 1159 525 
L 1159 -1331 
L 581 -1331 
L 581 3500 
L 1159 3500 
L 1159 2969 
Q 1341 3281 1617 3432 
Q 1894 3584 2278 3584 
Q 2916 3584 3314 3078 
Q 3713 2572 3713 1747 
Q 3713 922 3314 415 
Q 2916 -91 2278 -91 
Q 1894 -91 1617 61 
Q 1341 213 1159 525 
z
M 3116 1747 
Q 3116 2381 2855 2742 
Q 2594 3103 2138 3103 
Q 1681 3103 1420 2742 
Q 1159 2381 1159 1747 
Q 1159 1113 1420 752 
Q 1681 391 2138 391 
Q 2594 391 2855 752 
Q 3116 1113 3116 1747 
z
" transform="scale(0.015625)"/>
       <path id="DejaVuSans-72" d="M 2631 2963 
Q 2534 3019 2420 3045 
Q 2306 3072 2169 3072 
Q 1681 3072 1420 2755 
Q 1159 2438 1159 1844 
L 1159 0 
L 581 0 
L 581 3500 
L 1159 3500 
L 1159 2956 
Q 1341 3275 1631 3429 
Q 1922 3584 2338 3584 
Q 2397 3584 2469 3576 
Q 2541 3569 2628 3553 
L 2631 2963 
z
" transform="scale(0.015625)"/>
       <path id="DejaVuSans-61" d="M 2194 1759 
Q 1497 1759 1228 1600 
Q 959 1441 959 1056 
Q 959 750 1161 570 
Q 1363 391 1709 391 
Q 2188 391 2477 730 
Q 2766 1069 2766 1631 
L 2766 1759 
L 2194 1759 
z
M 3341 1997 
L 3341 0 
L 2766 0 
L 2766 531 
Q 2569 213 2275 61 
Q 1981 -91 1556 -91 
Q 1019 -91 701 211 
Q 384 513 384 1019 
Q 384 1609 779 1909 
Q 1175 2209 1959 2209 
L 2766 2209 
L 2766 2266 
Q 2766 2663 2505 2880 
Q 2244 3097 1772 3097 
Q 1472 3097 1187 3025 
Q 903 2953 641 2809 
L 641 3341 
Q 956 3463 1253 3523 
Q 1550 3584 1831 3584 
Q 2591 3584 2966 3190 
Q 3341 2797 3341 1997 
z
" transform="scale(0.015625)"/>
       <path id="DejaVuSans-64" d="M 2906 2969 
L 2906 4863 
L 3481 4863 
L 3481 0 
L 2906 0 
L 2906 525 
Q 2725 213 2448 61 
Q 2172 -91 1784 -91 
Q 1150 -91 751 415 
Q 353 922 353 1747 
Q 353 2572 751 3078 
Q 1150 3584 1784 3584 
Q 2172 3584 2448 3432 
Q 2725 3281 2906 2969 
z
M 947 1747 
Q 947 1113 1208 752 
Q 1469 391 1925 391 
Q 2381 391 2643 752 
Q 2906 1113 2906 1747 
Q 2906 2381 2643 2742 
Q 2381 3103 1925 3103 
Q 1469 3103 1208 2742 
Q 947 2381 947 1747 
z
" transform="scale(0.015625)"/>
       <path id="DejaVuSans-66" d="M 2375 4863 
L 2375 4384 
L 1825 4384 
Q 1516 4384 1395 4259 
Q 1275 4134 1275 3809 
L 1275 3500 
L 2222 3500 
L 2222 3053 
L 1275 3053 
L 1275 0 
L 697 0 
L 697 3053 
L 147 3053 
L 147 3500 
L 697 3500 
L 697 3744 
Q 697 4328 969 4595 
Q 1241 4863 1831 4863 
L 2375 4863 
z
" transform="scale(0.015625)"/>
       <path id="DejaVuSans-6f" d="M 1959 3097 
Q 1497 3097 1228 2736 
Q 959 2375 959 1747 
Q 959 1119 1226 758 
Q 1494 397 1959 397 
Q 2419 397 2687 759 
Q 2956 1122 2956 1747 
Q 2956 2369 2687 2733 
Q 2419 3097 1959 3097 
z
M 1959 3584 
Q 2709 3584 3137 3096 
Q 3566 2609 3566 1747 
Q 3566 888 3137 398 
Q 2709 -91 1959 -91 
Q 1206 -91 779 398 
Q 353 888 353 1747 
Q 353 2609 779 3096 
Q 1206 3584 1959 3584 
z
" transform="scale(0.015625)"/>
      </defs>
      <use xlink:href="#DejaVuSans-53"/>
      <use xlink:href="#DejaVuSans-70" x="63.476562"/>
      <use xlink:href="#DejaVuSans-72" x="126.953125"/>
      <use xlink:href="#DejaVuSans-65" x="165.816406"/>
      <use xlink:href="#DejaVuSans-61" x="227.339844"/>
      <use xlink:href="#DejaVuSans-64" x="288.619141"/>
      <use xlink:href="#DejaVuSans-20" x="352.095703"/>
      <use xlink:href="#DejaVuSans-66" x="383.882812"/>
      <use xlink:href="#DejaVuSans-72" x="419.087891"/>
      <use xlink:href="#DejaVuSans-6f" x="457.951172"/>
      <use xlink:href="#DejaVuSans-6d" x="519.132812"/>
     </g>
     <!--  centre -->
     <g style="fill: #262626" transform="translate(42.534281 115.943906) rotate(-90) scale(0.18 -0.18)">
      <defs>
       <path id="DejaVuSans-63" d="M 3122 3366 
L 3122 2828 
Q 2878 2963 2633 3030 
Q 2388 3097 2138 3097 
Q 1578 3097 1268 2742 
Q 959 2388 959 1747 
Q 959 1106 1268 751 
Q 1578 397 2138 397 
Q 2388 397 2633 464 
Q 2878 531 3122 666 
L 3122 134 
Q 2881 22 2623 -34 
Q 2366 -91 2075 -91 
Q 1284 -91 818 406 
Q 353 903 353 1747 
Q 353 2603 823 3093 
Q 1294 3584 2113 3584 
Q 2378 3584 2631 3529 
Q 2884 3475 3122 3366 
z
" transform="scale(0.015625)"/>
      </defs>
      <use xlink:href="#DejaVuSans-20"/>
      <use xlink:href="#DejaVuSans-63" x="31.787109"/>
      <use xlink:href="#DejaVuSans-65" x="86.767578"/>
      <use xlink:href="#DejaVuSans-6e" x="148.291016"/>
      <use xlink:href="#DejaVuSans-74" x="211.669922"/>
      <use xlink:href="#DejaVuSans-72" x="250.878906"/>
      <use xlink:href="#DejaVuSans-65" x="289.742188"/>
     </g>
    </g>
   </g>
   <g id="LineCollection_1">
    <path d="M 117.427091 118.533716 
L 117.427091 108.532569 
" clip-path="url(#pe5dadeb58e)" style="fill: none; stroke: #3d8af9; stroke-opacity: 0.7; stroke-width: 1.5"/>
    <path d="M 177.173065 113.757403 
L 177.173065 103.568494 
" clip-path="url(#pe5dadeb58e)" style="fill: none; stroke: #3d8af9; stroke-opacity: 0.7; stroke-width: 1.5"/>
    <path d="M 236.919039 110.386257 
L 236.919039 99.012905 
" clip-path="url(#pe5dadeb58e)" style="fill: none; stroke: #3d8af9; stroke-opacity: 0.7; stroke-width: 1.5"/>
    <path d="M 296.665013 109.095035 
L 296.665013 96.094916 
" clip-path="url(#pe5dadeb58e)" style="fill: none; stroke: #3d8af9; stroke-opacity: 0.7; stroke-width: 1.5"/>
    <path d="M 356.410987 115.506173 
L 356.410987 108.332779 
" clip-path="url(#pe5dadeb58e)" style="fill: none; stroke: #3d8af9; stroke-opacity: 0.7; stroke-width: 1.5"/>
    <path d="M 416.156961 121.568417 
L 416.156961 115.766874 
" clip-path="url(#pe5dadeb58e)" style="fill: none; stroke: #3d8af9; stroke-opacity: 0.7; stroke-width: 1.5"/>
    <path d="M 475.902935 114.850309 
L 475.902935 109.080622 
" clip-path="url(#pe5dadeb58e)" style="fill: none; stroke: #3d8af9; stroke-opacity: 0.7; stroke-width: 1.5"/>
    <path d="M 535.648909 118.783251 
L 535.648909 109.786533 
" clip-path="url(#pe5dadeb58e)" style="fill: none; stroke: #3d8af9; stroke-opacity: 0.7; stroke-width: 1.5"/>
   </g>
   <g id="line2d_1">
    <defs>
     <path id="mceb813cf89" d="M 5 0 
L -5 -0 
" style="stroke: #3d8af9; stroke-opacity: 0.7"/>
    </defs>
    <g clip-path="url(#pe5dadeb58e)">
     <use xlink:href="#mceb813cf89" x="117.427091" y="118.533716" style="fill: #3d8af9; fill-opacity: 0.7; stroke: #3d8af9; stroke-opacity: 0.7"/>
     <use xlink:href="#mceb813cf89" x="177.173065" y="113.757403" style="fill: #3d8af9; fill-opacity: 0.7; stroke: #3d8af9; stroke-opacity: 0.7"/>
     <use xlink:href="#mceb813cf89" x="236.919039" y="110.386257" style="fill: #3d8af9; fill-opacity: 0.7; stroke: #3d8af9; stroke-opacity: 0.7"/>
     <use xlink:href="#mceb813cf89" x="296.665013" y="109.095035" style="fill: #3d8af9; fill-opacity: 0.7; stroke: #3d8af9; stroke-opacity: 0.7"/>
     <use xlink:href="#mceb813cf89" x="356.410987" y="115.506173" style="fill: #3d8af9; fill-opacity: 0.7; stroke: #3d8af9; stroke-opacity: 0.7"/>
     <use xlink:href="#mceb813cf89" x="416.156961" y="121.568417" style="fill: #3d8af9; fill-opacity: 0.7; stroke: #3d8af9; stroke-opacity: 0.7"/>
     <use xlink:href="#mceb813cf89" x="475.902935" y="114.850309" style="fill: #3d8af9; fill-opacity: 0.7; stroke: #3d8af9; stroke-opacity: 0.7"/>
     <use xlink:href="#mceb813cf89" x="535.648909" y="118.783251" style="fill: #3d8af9; fill-opacity: 0.7; stroke: #3d8af9; stroke-opacity: 0.7"/>
    </g>
   </g>
   <g id="line2d_2">
    <g clip-path="url(#pe5dadeb58e)">
     <use xlink:href="#mceb813cf89" x="117.427091" y="108.532569" style="fill: #3d8af9; fill-opacity: 0.7; stroke: #3d8af9; stroke-opacity: 0.7"/>
     <use xlink:href="#mceb813cf89" x="177.173065" y="103.568494" style="fill: #3d8af9; fill-opacity: 0.7; stroke: #3d8af9; stroke-opacity: 0.7"/>
     <use xlink:href="#mceb813cf89" x="236.919039" y="99.012905" style="fill: #3d8af9; fill-opacity: 0.7; stroke: #3d8af9; stroke-opacity: 0.7"/>
     <use xlink:href="#mceb813cf89" x="296.665013" y="96.094916" style="fill: #3d8af9; fill-opacity: 0.7; stroke: #3d8af9; stroke-opacity: 0.7"/>
     <use xlink:href="#mceb813cf89" x="356.410987" y="108.332779" style="fill: #3d8af9; fill-opacity: 0.7; stroke: #3d8af9; stroke-opacity: 0.7"/>
     <use xlink:href="#mceb813cf89" x="416.156961" y="115.766874" style="fill: #3d8af9; fill-opacity: 0.7; stroke: #3d8af9; stroke-opacity: 0.7"/>
     <use xlink:href="#mceb813cf89" x="475.902935" y="109.080622" style="fill: #3d8af9; fill-opacity: 0.7; stroke: #3d8af9; stroke-opacity: 0.7"/>
     <use xlink:href="#mceb813cf89" x="535.648909" y="109.786533" style="fill: #3d8af9; fill-opacity: 0.7; stroke: #3d8af9; stroke-opacity: 0.7"/>
    </g>
   </g>
   <g id="LineCollection_2">
    <path d="M 117.427091 98.09764 
L 117.427091 93.829603 
" clip-path="url(#pe5dadeb58e)" style="fill: none; stroke: #e6aa15; stroke-opacity: 0.7; stroke-width: 1.5"/>
    <path d="M 177.173065 114.528981 
L 177.173065 99.551677 
" clip-path="url(#pe5dadeb58e)" style="fill: none; stroke: #e6aa15; stroke-opacity: 0.7; stroke-width: 1.5"/>
    <path d="M 236.919039 113.953484 
L 236.919039 108.111044 
" clip-path="url(#pe5dadeb58e)" style="fill: none; stroke: #e6aa15; stroke-opacity: 0.7; stroke-width: 1.5"/>
    <path d="M 296.665013 115.005462 
L 296.665013 106.052902 
" clip-path="url(#pe5dadeb58e)" style="fill: none; stroke: #e6aa15; stroke-opacity: 0.7; stroke-width: 1.5"/>
    <path d="M 356.410987 116.996418 
L 356.410987 107.832724 
" clip-path="url(#pe5dadeb58e)" style="fill: none; stroke: #e6aa15; stroke-opacity: 0.7; stroke-width: 1.5"/>
    <path d="M 416.156961 104.548292 
L 416.156961 98.024659 
" clip-path="url(#pe5dadeb58e)" style="fill: none; stroke: #e6aa15; stroke-opacity: 0.7; stroke-width: 1.5"/>
    <path d="M 475.902935 111.197891 
L 475.902935 87.024424 
" clip-path="url(#pe5dadeb58e)" style="fill: none; stroke: #e6aa15; stroke-opacity: 0.7; stroke-width: 1.5"/>
    <path d="M 535.648909 66.41919 
L 535.648909 21.082155 
" clip-path="url(#pe5dadeb58e)" style="fill: none; stroke: #e6aa15; stroke-opacity: 0.7; stroke-width: 1.5"/>
   </g>
   <g id="line2d_3">
    <defs>
     <path id="m7c086e5c8f" d="M 5 0 
L -5 -0 
" style="stroke: #e6aa15; stroke-opacity: 0.7"/>
    </defs>
    <g clip-path="url(#pe5dadeb58e)">
     <use xlink:href="#m7c086e5c8f" x="117.427091" y="98.09764" style="fill: #e6aa15; fill-opacity: 0.7; stroke: #e6aa15; stroke-opacity: 0.7"/>
     <use xlink:href="#m7c086e5c8f" x="177.173065" y="114.528981" style="fill: #e6aa15; fill-opacity: 0.7; stroke: #e6aa15; stroke-opacity: 0.7"/>
     <use xlink:href="#m7c086e5c8f" x="236.919039" y="113.953484" style="fill: #e6aa15; fill-opacity: 0.7; stroke: #e6aa15; stroke-opacity: 0.7"/>
     <use xlink:href="#m7c086e5c8f" x="296.665013" y="115.005462" style="fill: #e6aa15; fill-opacity: 0.7; stroke: #e6aa15; stroke-opacity: 0.7"/>
     <use xlink:href="#m7c086e5c8f" x="356.410987" y="116.996418" style="fill: #e6aa15; fill-opacity: 0.7; stroke: #e6aa15; stroke-opacity: 0.7"/>
     <use xlink:href="#m7c086e5c8f" x="416.156961" y="104.548292" style="fill: #e6aa15; fill-opacity: 0.7; stroke: #e6aa15; stroke-opacity: 0.7"/>
     <use xlink:href="#m7c086e5c8f" x="475.902935" y="111.197891" style="fill: #e6aa15; fill-opacity: 0.7; stroke: #e6aa15; stroke-opacity: 0.7"/>
     <use xlink:href="#m7c086e5c8f" x="535.648909" y="66.41919" style="fill: #e6aa15; fill-opacity: 0.7; stroke: #e6aa15; stroke-opacity: 0.7"/>
    </g>
   </g>
   <g id="line2d_4">
    <g clip-path="url(#pe5dadeb58e)">
     <use xlink:href="#m7c086e5c8f" x="117.427091" y="93.829603" style="fill: #e6aa15; fill-opacity: 0.7; stroke: #e6aa15; stroke-opacity: 0.7"/>
     <use xlink:href="#m7c086e5c8f" x="177.173065" y="99.551677" style="fill: #e6aa15; fill-opacity: 0.7; stroke: #e6aa15; stroke-opacity: 0.7"/>
     <use xlink:href="#m7c086e5c8f" x="236.919039" y="108.111044" style="fill: #e6aa15; fill-opacity: 0.7; stroke: #e6aa15; stroke-opacity: 0.7"/>
     <use xlink:href="#m7c086e5c8f" x="296.665013" y="106.052902" style="fill: #e6aa15; fill-opacity: 0.7; stroke: #e6aa15; stroke-opacity: 0.7"/>
     <use xlink:href="#m7c086e5c8f" x="356.410987" y="107.832724" style="fill: #e6aa15; fill-opacity: 0.7; stroke: #e6aa15; stroke-opacity: 0.7"/>
     <use xlink:href="#m7c086e5c8f" x="416.156961" y="98.024659" style="fill: #e6aa15; fill-opacity: 0.7; stroke: #e6aa15; stroke-opacity: 0.7"/>
     <use xlink:href="#m7c086e5c8f" x="475.902935" y="87.024424" style="fill: #e6aa15; fill-opacity: 0.7; stroke: #e6aa15; stroke-opacity: 0.7"/>
     <use xlink:href="#m7c086e5c8f" x="535.648909" y="21.082155" style="fill: #e6aa15; fill-opacity: 0.7; stroke: #e6aa15; stroke-opacity: 0.7"/>
    </g>
   </g>
   <g id="LineCollection_3">
    <path d="M 117.427091 109.402442 
L 117.427091 88.592952 
" clip-path="url(#pe5dadeb58e)" style="fill: none; stroke: #26262d; stroke-opacity: 0.7; stroke-width: 1.5"/>
    <path d="M 177.173065 105.447535 
L 177.173065 99.806063 
" clip-path="url(#pe5dadeb58e)" style="fill: none; stroke: #26262d; stroke-opacity: 0.7; stroke-width: 1.5"/>
    <path d="M 236.919039 107.347788 
L 236.919039 99.200212 
" clip-path="url(#pe5dadeb58e)" style="fill: none; stroke: #26262d; stroke-opacity: 0.7; stroke-width: 1.5"/>
    <path d="M 296.665013 96.787474 
L 296.665013 91.997513 
" clip-path="url(#pe5dadeb58e)" style="fill: none; stroke: #26262d; stroke-opacity: 0.7; stroke-width: 1.5"/>
    <path d="M 356.410987 104.422792 
L 356.410987 96.427407 
" clip-path="url(#pe5dadeb58e)" style="fill: none; stroke: #26262d; stroke-opacity: 0.7; stroke-width: 1.5"/>
    <path d="M 416.156961 92.837299 
L 416.156961 76.791388 
" clip-path="url(#pe5dadeb58e)" style="fill: none; stroke: #26262d; stroke-opacity: 0.7; stroke-width: 1.5"/>
    <path d="M 475.902935 98.313486 
L 475.902935 92.761759 
" clip-path="url(#pe5dadeb58e)" style="fill: none; stroke: #26262d; stroke-opacity: 0.7; stroke-width: 1.5"/>
    <path d="M 535.648909 101.998252 
L 535.648909 93.084887 
" clip-path="url(#pe5dadeb58e)" style="fill: none; stroke: #26262d; stroke-opacity: 0.7; stroke-width: 1.5"/>
   </g>
   <g id="line2d_5">
    <defs>
     <path id="m4b28844ea5" d="M 5 0 
L -5 -0 
" style="stroke: #26262d; stroke-opacity: 0.7"/>
    </defs>
    <g clip-path="url(#pe5dadeb58e)">
     <use xlink:href="#m4b28844ea5" x="117.427091" y="109.402442" style="fill: #26262d; fill-opacity: 0.7; stroke: #26262d; stroke-opacity: 0.7"/>
     <use xlink:href="#m4b28844ea5" x="177.173065" y="105.447535" style="fill: #26262d; fill-opacity: 0.7; stroke: #26262d; stroke-opacity: 0.7"/>
     <use xlink:href="#m4b28844ea5" x="236.919039" y="107.347788" style="fill: #26262d; fill-opacity: 0.7; stroke: #26262d; stroke-opacity: 0.7"/>
     <use xlink:href="#m4b28844ea5" x="296.665013" y="96.787474" style="fill: #26262d; fill-opacity: 0.7; stroke: #26262d; stroke-opacity: 0.7"/>
     <use xlink:href="#m4b28844ea5" x="356.410987" y="104.422792" style="fill: #26262d; fill-opacity: 0.7; stroke: #26262d; stroke-opacity: 0.7"/>
     <use xlink:href="#m4b28844ea5" x="416.156961" y="92.837299" style="fill: #26262d; fill-opacity: 0.7; stroke: #26262d; stroke-opacity: 0.7"/>
     <use xlink:href="#m4b28844ea5" x="475.902935" y="98.313486" style="fill: #26262d; fill-opacity: 0.7; stroke: #26262d; stroke-opacity: 0.7"/>
     <use xlink:href="#m4b28844ea5" x="535.648909" y="101.998252" style="fill: #26262d; fill-opacity: 0.7; stroke: #26262d; stroke-opacity: 0.7"/>
    </g>
   </g>
   <g id="line2d_6">
    <g clip-path="url(#pe5dadeb58e)">
     <use xlink:href="#m4b28844ea5" x="117.427091" y="88.592952" style="fill: #26262d; fill-opacity: 0.7; stroke: #26262d; stroke-opacity: 0.7"/>
     <use xlink:href="#m4b28844ea5" x="177.173065" y="99.806063" style="fill: #26262d; fill-opacity: 0.7; stroke: #26262d; stroke-opacity: 0.7"/>
     <use xlink:href="#m4b28844ea5" x="236.919039" y="99.200212" style="fill: #26262d; fill-opacity: 0.7; stroke: #26262d; stroke-opacity: 0.7"/>
     <use xlink:href="#m4b28844ea5" x="296.665013" y="91.997513" style="fill: #26262d; fill-opacity: 0.7; stroke: #26262d; stroke-opacity: 0.7"/>
     <use xlink:href="#m4b28844ea5" x="356.410987" y="96.427407" style="fill: #26262d; fill-opacity: 0.7; stroke: #26262d; stroke-opacity: 0.7"/>
     <use xlink:href="#m4b28844ea5" x="416.156961" y="76.791388" style="fill: #26262d; fill-opacity: 0.7; stroke: #26262d; stroke-opacity: 0.7"/>
     <use xlink:href="#m4b28844ea5" x="475.902935" y="92.761759" style="fill: #26262d; fill-opacity: 0.7; stroke: #26262d; stroke-opacity: 0.7"/>
     <use xlink:href="#m4b28844ea5" x="535.648909" y="93.084887" style="fill: #26262d; fill-opacity: 0.7; stroke: #26262d; stroke-opacity: 0.7"/>
    </g>
   </g>
   <g id="line2d_7">
    <path d="M 117.427091 113.533143 
L 177.173065 108.662948 
L 236.919039 104.699581 
L 296.665013 102.594975 
L 356.410987 111.919476 
L 416.156961 118.667646 
L 475.902935 111.965466 
L 535.648909 114.284892 
" clip-path="url(#pe5dadeb58e)" style="fill: none; stroke: #3d8af9; stroke-opacity: 0.7; stroke-width: 1.5; stroke-linecap: round"/>
    <defs>
     <path id="m95d2592bb6" d="M 0 3 
C 0.795609 3 1.55874 2.683901 2.12132 2.12132 
C 2.683901 1.55874 3 0.795609 3 0 
C 3 -0.795609 2.683901 -1.55874 2.12132 -2.12132 
C 1.55874 -2.683901 0.795609 -3 0 -3 
C -0.795609 -3 -1.55874 -2.683901 -2.12132 -2.12132 
C -2.683901 -1.55874 -3 -0.795609 -3 0 
C -3 0.795609 -2.683901 1.55874 -2.12132 2.12132 
C -1.55874 2.683901 -0.795609 3 0 3 
z
" style="stroke: #3d8af9; stroke-opacity: 0.7"/>
    </defs>
    <g clip-path="url(#pe5dadeb58e)">
     <use xlink:href="#m95d2592bb6" x="117.427091" y="113.533143" style="fill: #3d8af9; fill-opacity: 0.7; stroke: #3d8af9; stroke-opacity: 0.7"/>
     <use xlink:href="#m95d2592bb6" x="177.173065" y="108.662948" style="fill: #3d8af9; fill-opacity: 0.7; stroke: #3d8af9; stroke-opacity: 0.7"/>
     <use xlink:href="#m95d2592bb6" x="236.919039" y="104.699581" style="fill: #3d8af9; fill-opacity: 0.7; stroke: #3d8af9; stroke-opacity: 0.7"/>
     <use xlink:href="#m95d2592bb6" x="296.665013" y="102.594975" style="fill: #3d8af9; fill-opacity: 0.7; stroke: #3d8af9; stroke-opacity: 0.7"/>
     <use xlink:href="#m95d2592bb6" x="356.410987" y="111.919476" style="fill: #3d8af9; fill-opacity: 0.7; stroke: #3d8af9; stroke-opacity: 0.7"/>
     <use xlink:href="#m95d2592bb6" x="416.156961" y="118.667646" style="fill: #3d8af9; fill-opacity: 0.7; stroke: #3d8af9; stroke-opacity: 0.7"/>
     <use xlink:href="#m95d2592bb6" x="475.902935" y="111.965466" style="fill: #3d8af9; fill-opacity: 0.7; stroke: #3d8af9; stroke-opacity: 0.7"/>
     <use xlink:href="#m95d2592bb6" x="535.648909" y="114.284892" style="fill: #3d8af9; fill-opacity: 0.7; stroke: #3d8af9; stroke-opacity: 0.7"/>
    </g>
   </g>
   <g id="line2d_8">
    <path d="M 117.427091 95.963622 
L 177.173065 107.040329 
L 236.919039 111.032264 
L 296.665013 110.529182 
L 356.410987 112.414571 
L 416.156961 101.286476 
L 475.902935 99.111157 
L 535.648909 43.750673 
" clip-path="url(#pe5dadeb58e)" style="fill: none; stroke: #e6aa15; stroke-opacity: 0.7; stroke-width: 1.5; stroke-linecap: round"/>
    <defs>
     <path id="m22a81752e3" d="M 0 3 
C 0.795609 3 1.55874 2.683901 2.12132 2.12132 
C 2.683901 1.55874 3 0.795609 3 0 
C 3 -0.795609 2.683901 -1.55874 2.12132 -2.12132 
C 1.55874 -2.683901 0.795609 -3 0 -3 
C -0.795609 -3 -1.55874 -2.683901 -2.12132 -2.12132 
C -2.683901 -1.55874 -3 -0.795609 -3 0 
C -3 0.795609 -2.683901 1.55874 -2.12132 2.12132 
C -1.55874 2.683901 -0.795609 3 0 3 
z
" style="stroke: #e6aa15; stroke-opacity: 0.7"/>
    </defs>
    <g clip-path="url(#pe5dadeb58e)">
     <use xlink:href="#m22a81752e3" x="117.427091" y="95.963622" style="fill: #e6aa15; fill-opacity: 0.7; stroke: #e6aa15; stroke-opacity: 0.7"/>
     <use xlink:href="#m22a81752e3" x="177.173065" y="107.040329" style="fill: #e6aa15; fill-opacity: 0.7; stroke: #e6aa15; stroke-opacity: 0.7"/>
     <use xlink:href="#m22a81752e3" x="236.919039" y="111.032264" style="fill: #e6aa15; fill-opacity: 0.7; stroke: #e6aa15; stroke-opacity: 0.7"/>
     <use xlink:href="#m22a81752e3" x="296.665013" y="110.529182" style="fill: #e6aa15; fill-opacity: 0.7; stroke: #e6aa15; stroke-opacity: 0.7"/>
     <use xlink:href="#m22a81752e3" x="356.410987" y="112.414571" style="fill: #e6aa15; fill-opacity: 0.7; stroke: #e6aa15; stroke-opacity: 0.7"/>
     <use xlink:href="#m22a81752e3" x="416.156961" y="101.286476" style="fill: #e6aa15; fill-opacity: 0.7; stroke: #e6aa15; stroke-opacity: 0.7"/>
     <use xlink:href="#m22a81752e3" x="475.902935" y="99.111157" style="fill: #e6aa15; fill-opacity: 0.7; stroke: #e6aa15; stroke-opacity: 0.7"/>
     <use xlink:href="#m22a81752e3" x="535.648909" y="43.750673" style="fill: #e6aa15; fill-opacity: 0.7; stroke: #e6aa15; stroke-opacity: 0.7"/>
    </g>
   </g>
   <g id="line2d_9">
    <path d="M 117.427091 98.997697 
L 177.173065 102.626799 
L 236.919039 103.274 
L 296.665013 94.392493 
L 356.410987 100.4251 
L 416.156961 84.814343 
L 475.902935 95.537622 
L 535.648909 97.54157 
" clip-path="url(#pe5dadeb58e)" style="fill: none; stroke: #26262d; stroke-opacity: 0.7; stroke-width: 1.5; stroke-linecap: round"/>
    <defs>
     <path id="m53371bafec" d="M 0 3 
C 0.795609 3 1.55874 2.683901 2.12132 2.12132 
C 2.683901 1.55874 3 0.795609 3 0 
C 3 -0.795609 2.683901 -1.55874 2.12132 -2.12132 
C 1.55874 -2.683901 0.795609 -3 0 -3 
C -0.795609 -3 -1.55874 -2.683901 -2.12132 -2.12132 
C -2.683901 -1.55874 -3 -0.795609 -3 0 
C -3 0.795609 -2.683901 1.55874 -2.12132 2.12132 
C -1.55874 2.683901 -0.795609 3 0 3 
z
" style="stroke: #26262d; stroke-opacity: 0.7"/>
    </defs>
    <g clip-path="url(#pe5dadeb58e)">
     <use xlink:href="#m53371bafec" x="117.427091" y="98.997697" style="fill: #26262d; fill-opacity: 0.7; stroke: #26262d; stroke-opacity: 0.7"/>
     <use xlink:href="#m53371bafec" x="177.173065" y="102.626799" style="fill: #26262d; fill-opacity: 0.7; stroke: #26262d; stroke-opacity: 0.7"/>
     <use xlink:href="#m53371bafec" x="236.919039" y="103.274" style="fill: #26262d; fill-opacity: 0.7; stroke: #26262d; stroke-opacity: 0.7"/>
     <use xlink:href="#m53371bafec" x="296.665013" y="94.392493" style="fill: #26262d; fill-opacity: 0.7; stroke: #26262d; stroke-opacity: 0.7"/>
     <use xlink:href="#m53371bafec" x="356.410987" y="100.4251" style="fill: #26262d; fill-opacity: 0.7; stroke: #26262d; stroke-opacity: 0.7"/>
     <use xlink:href="#m53371bafec" x="416.156961" y="84.814343" style="fill: #26262d; fill-opacity: 0.7; stroke: #26262d; stroke-opacity: 0.7"/>
     <use xlink:href="#m53371bafec" x="475.902935" y="95.537622" style="fill: #26262d; fill-opacity: 0.7; stroke: #26262d; stroke-opacity: 0.7"/>
     <use xlink:href="#m53371bafec" x="535.648909" y="97.54157" style="fill: #26262d; fill-opacity: 0.7; stroke: #26262d; stroke-opacity: 0.7"/>
    </g>
   </g>
   <g id="patch_3">
    <path d="M 96.516 149.22 
L 96.516 19.44 
" style="fill: none; stroke: #262626; stroke-width: 1.25; stroke-linejoin: miter; stroke-linecap: square"/>
   </g>
   <g id="patch_4">
    <path d="M 556.56 149.22 
L 556.56 19.44 
" style="fill: none; stroke: #262626; stroke-width: 1.25; stroke-linejoin: miter; stroke-linecap: square"/>
   </g>
   <g id="patch_5">
    <path d="M 96.516 149.22 
L 556.56 149.22 
" style="fill: none; stroke: #262626; stroke-width: 1.25; stroke-linejoin: miter; stroke-linecap: square"/>
   </g>
   <g id="patch_6">
    <path d="M 96.516 19.44 
L 556.56 19.44 
" style="fill: none; stroke: #262626; stroke-width: 1.25; stroke-linejoin: miter; stroke-linecap: square"/>
   </g>
   <g id="legend_1">
    <g id="patch_7">
     <path d="M 538.41 40.89 
L 545.01 40.89 
Q 548.31 40.89 548.31 37.59 
L 548.31 30.99 
Q 548.31 27.69 545.01 27.69 
L 538.41 27.69 
Q 535.11 27.69 535.11 30.99 
L 535.11 37.59 
Q 535.11 40.89 538.41 40.89 
z
" style="fill: #ffffff; opacity: 0.8; stroke: #cccccc; stroke-linejoin: miter"/>
    </g>
   </g>
  </g>
 </g>
 <defs>
  <clipPath id="pe5dadeb58e">
   <rect x="96.516" y="19.44" width="460.044" height="129.78"/>
  </clipPath>
 </defs>
</svg>
