<?xml version="1.0" encoding="utf-8" standalone="no"?>
<!DOCTYPE svg PUBLIC "-//W3C//DTD SVG 1.1//EN"
  "http://www.w3.org/Graphics/SVG/1.1/DTD/svg11.dtd">
<svg xmlns:xlink="http://www.w3.org/1999/xlink" width="576pt" height="216pt" viewBox="0 0 576 216" xmlns="http://www.w3.org/2000/svg" version="1.1">
 <metadata>
  <rdf:RDF xmlns:dc="http://purl.org/dc/elements/1.1/" xmlns:cc="http://creativecommons.org/ns#" xmlns:rdf="http://www.w3.org/1999/02/22-rdf-syntax-ns#">
   <cc:Work>
    <dc:type rdf:resource="http://purl.org/dc/dcmitype/StillImage"/>
    <dc:date>2023-08-11T18:26:17.378576</dc:date>
    <dc:format>image/svg+xml</dc:format>
    <dc:creator>
     <cc:Agent>
      <dc:title>Matplotlib v3.7.1, https://matplotlib.org/</dc:title>
     </cc:Agent>
    </dc:creator>
   </cc:Work>
  </rdf:RDF>
 </metadata>
 <defs>
  <style type="text/css">*{stroke-linejoin: round; stroke-linecap: butt}</style>
 </defs>
 <g id="figure_1">
  <g id="patch_1">
   <path d="M 0 216 
L 576 216 
L 576 0 
L 0 0 
z
" style="fill: #ffffff"/>
  </g>
  <g id="axes_1">
   <g id="patch_2">
    <path d="M 85.05 149.22 
L 556.56 149.22 
L 556.56 19.44 
L 85.05 19.44 
z
" style="fill: #ffffff"/>
   </g>
   <g id="matplotlib.axis_1">
    <g id="xtick_1">
     <g id="text_1">
      <!-- -7 -->
      <g style="fill: #262626" transform="translate(98.256765 171.257422) scale(0.165 -0.165)">
       <defs>
        <path id="DejaVuSans-2d" d="M 313 2009 
L 1997 2009 
L 1997 1497 
L 313 1497 
L 313 2009 
z
" transform="scale(0.015625)"/>
        <path id="DejaVuSans-37" d="M 525 4666 
L 3525 4666 
L 3525 4397 
L 1831 0 
L 1172 0 
L 2766 4134 
L 525 4134 
L 525 4666 
z
" transform="scale(0.015625)"/>
       </defs>
       <use xlink:href="#DejaVuSans-2d"/>
       <use xlink:href="#DejaVuSans-37" x="36.083984"/>
      </g>
     </g>
    </g>
    <g id="xtick_2">
     <g id="text_2">
      <!-- -6 -->
      <g style="fill: #262626" transform="translate(159.49183 171.257422) scale(0.165 -0.165)">
       <defs>
        <path id="DejaVuSans-36" d="M 2113 2584 
Q 1688 2584 1439 2293 
Q 1191 2003 1191 1497 
Q 1191 994 1439 701 
Q 1688 409 2113 409 
Q 2538 409 2786 701 
Q 3034 994 3034 1497 
Q 3034 2003 2786 2293 
Q 2538 2584 2113 2584 
z
M 3366 4563 
L 3366 3988 
Q 3128 4100 2886 4159 
Q 2644 4219 2406 4219 
Q 1781 4219 1451 3797 
Q 1122 3375 1075 2522 
Q 1259 2794 1537 2939 
Q 1816 3084 2150 3084 
Q 2853 3084 3261 2657 
Q 3669 2231 3669 1497 
Q 3669 778 3244 343 
Q 2819 -91 2113 -91 
Q 1303 -91 875 529 
Q 447 1150 447 2328 
Q 447 3434 972 4092 
Q 1497 4750 2381 4750 
Q 2619 4750 2861 4703 
Q 3103 4656 3366 4563 
z
" transform="scale(0.015625)"/>
       </defs>
       <use xlink:href="#DejaVuSans-2d"/>
       <use xlink:href="#DejaVuSans-36" x="36.083984"/>
      </g>
     </g>
    </g>
    <g id="xtick_3">
     <g id="text_3">
      <!-- -5 -->
      <g style="fill: #262626" transform="translate(220.726895 171.257422) scale(0.165 -0.165)">
       <defs>
        <path id="DejaVuSans-35" d="M 691 4666 
L 3169 4666 
L 3169 4134 
L 1269 4134 
L 1269 2991 
Q 1406 3038 1543 3061 
Q 1681 3084 1819 3084 
Q 2600 3084 3056 2656 
Q 3513 2228 3513 1497 
Q 3513 744 3044 326 
Q 2575 -91 1722 -91 
Q 1428 -91 1123 -41 
Q 819 9 494 109 
L 494 744 
Q 775 591 1075 516 
Q 1375 441 1709 441 
Q 2250 441 2565 725 
Q 2881 1009 2881 1497 
Q 2881 1984 2565 2268 
Q 2250 2553 1709 2553 
Q 1456 2553 1204 2497 
Q 953 2441 691 2322 
L 691 4666 
z
" transform="scale(0.015625)"/>
       </defs>
       <use xlink:href="#DejaVuSans-2d"/>
       <use xlink:href="#DejaVuSans-35" x="36.083984"/>
      </g>
     </g>
    </g>
    <g id="xtick_4">
     <g id="text_4">
      <!-- -4 -->
      <g style="fill: #262626" transform="translate(281.96196 171.257422) scale(0.165 -0.165)">
       <defs>
        <path id="DejaVuSans-34" d="M 2419 4116 
L 825 1625 
L 2419 1625 
L 2419 4116 
z
M 2253 4666 
L 3047 4666 
L 3047 1625 
L 3713 1625 
L 3713 1100 
L 3047 1100 
L 3047 0 
L 2419 0 
L 2419 1100 
L 313 1100 
L 313 1709 
L 2253 4666 
z
" transform="scale(0.015625)"/>
       </defs>
       <use xlink:href="#DejaVuSans-2d"/>
       <use xlink:href="#DejaVuSans-34" x="36.083984"/>
      </g>
     </g>
    </g>
    <g id="xtick_5">
     <g id="text_5">
      <!-- -3 -->
      <g style="fill: #262626" transform="translate(343.197025 171.257422) scale(0.165 -0.165)">
       <defs>
        <path id="DejaVuSans-33" d="M 2597 2516 
Q 3050 2419 3304 2112 
Q 3559 1806 3559 1356 
Q 3559 666 3084 287 
Q 2609 -91 1734 -91 
Q 1441 -91 1130 -33 
Q 819 25 488 141 
L 488 750 
Q 750 597 1062 519 
Q 1375 441 1716 441 
Q 2309 441 2620 675 
Q 2931 909 2931 1356 
Q 2931 1769 2642 2001 
Q 2353 2234 1838 2234 
L 1294 2234 
L 1294 2753 
L 1863 2753 
Q 2328 2753 2575 2939 
Q 2822 3125 2822 3475 
Q 2822 3834 2567 4026 
Q 2313 4219 1838 4219 
Q 1578 4219 1281 4162 
Q 984 4106 628 3988 
L 628 4550 
Q 988 4650 1302 4700 
Q 1616 4750 1894 4750 
Q 2613 4750 3031 4423 
Q 3450 4097 3450 3541 
Q 3450 3153 3228 2886 
Q 3006 2619 2597 2516 
z
" transform="scale(0.015625)"/>
       </defs>
       <use xlink:href="#DejaVuSans-2d"/>
       <use xlink:href="#DejaVuSans-33" x="36.083984"/>
      </g>
     </g>
    </g>
    <g id="xtick_6">
     <g id="text_6">
      <!-- -2 -->
      <g style="fill: #262626" transform="translate(404.43209 171.257422) scale(0.165 -0.165)">
       <defs>
        <path id="DejaVuSans-32" d="M 1228 531 
L 3431 531 
L 3431 0 
L 469 0 
L 469 531 
Q 828 903 1448 1529 
Q 2069 2156 2228 2338 
Q 2531 2678 2651 2914 
Q 2772 3150 2772 3378 
Q 2772 3750 2511 3984 
Q 2250 4219 1831 4219 
Q 1534 4219 1204 4116 
Q 875 4013 500 3803 
L 500 4441 
Q 881 4594 1212 4672 
Q 1544 4750 1819 4750 
Q 2544 4750 2975 4387 
Q 3406 4025 3406 3419 
Q 3406 3131 3298 2873 
Q 3191 2616 2906 2266 
Q 2828 2175 2409 1742 
Q 1991 1309 1228 531 
z
" transform="scale(0.015625)"/>
       </defs>
       <use xlink:href="#DejaVuSans-2d"/>
       <use xlink:href="#DejaVuSans-32" x="36.083984"/>
      </g>
     </g>
    </g>
    <g id="xtick_7">
     <g id="text_7">
      <!-- -1 -->
      <g style="fill: #262626" transform="translate(465.667155 171.257422) scale(0.165 -0.165)">
       <defs>
        <path id="DejaVuSans-31" d="M 794 531 
L 1825 531 
L 1825 4091 
L 703 3866 
L 703 4441 
L 1819 4666 
L 2450 4666 
L 2450 531 
L 3481 531 
L 3481 0 
L 794 0 
L 794 531 
z
" transform="scale(0.015625)"/>
       </defs>
       <use xlink:href="#DejaVuSans-2d"/>
       <use xlink:href="#DejaVuSans-31" x="36.083984"/>
      </g>
     </g>
    </g>
    <g id="xtick_8">
     <g id="text_8">
      <!-- 0 -->
      <g style="fill: #262626" transform="translate(529.878665 171.257422) scale(0.165 -0.165)">
       <defs>
        <path id="DejaVuSans-30" d="M 2034 4250 
Q 1547 4250 1301 3770 
Q 1056 3291 1056 2328 
Q 1056 1369 1301 889 
Q 1547 409 2034 409 
Q 2525 409 2770 889 
Q 3016 1369 3016 2328 
Q 3016 3291 2770 3770 
Q 2525 4250 2034 4250 
z
M 2034 4750 
Q 2819 4750 3233 4129 
Q 3647 3509 3647 2328 
Q 3647 1150 3233 529 
Q 2819 -91 2034 -91 
Q 1250 -91 836 529 
Q 422 1150 422 2328 
Q 422 3509 836 4129 
Q 1250 4750 2034 4750 
z
" transform="scale(0.015625)"/>
       </defs>
       <use xlink:href="#DejaVuSans-30"/>
      </g>
     </g>
    </g>
    <g id="text_9">
     <!-- 10s segment -->
     <g style="fill: #262626" transform="translate(262.3275 192.366094) scale(0.18 -0.18)">
      <defs>
       <path id="DejaVuSans-73" d="M 2834 3397 
L 2834 2853 
Q 2591 2978 2328 3040 
Q 2066 3103 1784 3103 
Q 1356 3103 1142 2972 
Q 928 2841 928 2578 
Q 928 2378 1081 2264 
Q 1234 2150 1697 2047 
L 1894 2003 
Q 2506 1872 2764 1633 
Q 3022 1394 3022 966 
Q 3022 478 2636 193 
Q 2250 -91 1575 -91 
Q 1294 -91 989 -36 
Q 684 19 347 128 
L 347 722 
Q 666 556 975 473 
Q 1284 391 1588 391 
Q 1994 391 2212 530 
Q 2431 669 2431 922 
Q 2431 1156 2273 1281 
Q 2116 1406 1581 1522 
L 1381 1569 
Q 847 1681 609 1914 
Q 372 2147 372 2553 
Q 372 3047 722 3315 
Q 1072 3584 1716 3584 
Q 2034 3584 2315 3537 
Q 2597 3491 2834 3397 
z
" transform="scale(0.015625)"/>
       <path id="DejaVuSans-20" transform="scale(0.015625)"/>
       <path id="DejaVuSans-65" d="M 3597 1894 
L 3597 1613 
L 953 1613 
Q 991 1019 1311 708 
Q 1631 397 2203 397 
Q 2534 397 2845 478 
Q 3156 559 3463 722 
L 3463 178 
Q 3153 47 2828 -22 
Q 2503 -91 2169 -91 
Q 1331 -91 842 396 
Q 353 884 353 1716 
Q 353 2575 817 3079 
Q 1281 3584 2069 3584 
Q 2775 3584 3186 3129 
Q 3597 2675 3597 1894 
z
M 3022 2063 
Q 3016 2534 2758 2815 
Q 2500 3097 2075 3097 
Q 1594 3097 1305 2825 
Q 1016 2553 972 2059 
L 3022 2063 
z
" transform="scale(0.015625)"/>
       <path id="DejaVuSans-67" d="M 2906 1791 
Q 2906 2416 2648 2759 
Q 2391 3103 1925 3103 
Q 1463 3103 1205 2759 
Q 947 2416 947 1791 
Q 947 1169 1205 825 
Q 1463 481 1925 481 
Q 2391 481 2648 825 
Q 2906 1169 2906 1791 
z
M 3481 434 
Q 3481 -459 3084 -895 
Q 2688 -1331 1869 -1331 
Q 1566 -1331 1297 -1286 
Q 1028 -1241 775 -1147 
L 775 -588 
Q 1028 -725 1275 -790 
Q 1522 -856 1778 -856 
Q 2344 -856 2625 -561 
Q 2906 -266 2906 331 
L 2906 616 
Q 2728 306 2450 153 
Q 2172 0 1784 0 
Q 1141 0 747 490 
Q 353 981 353 1791 
Q 353 2603 747 3093 
Q 1141 3584 1784 3584 
Q 2172 3584 2450 3431 
Q 2728 3278 2906 2969 
L 2906 3500 
L 3481 3500 
L 3481 434 
z
" transform="scale(0.015625)"/>
       <path id="DejaVuSans-6d" d="M 3328 2828 
Q 3544 3216 3844 3400 
Q 4144 3584 4550 3584 
Q 5097 3584 5394 3201 
Q 5691 2819 5691 2113 
L 5691 0 
L 5113 0 
L 5113 2094 
Q 5113 2597 4934 2840 
Q 4756 3084 4391 3084 
Q 3944 3084 3684 2787 
Q 3425 2491 3425 1978 
L 3425 0 
L 2847 0 
L 2847 2094 
Q 2847 2600 2669 2842 
Q 2491 3084 2119 3084 
Q 1678 3084 1418 2786 
Q 1159 2488 1159 1978 
L 1159 0 
L 581 0 
L 581 3500 
L 1159 3500 
L 1159 2956 
Q 1356 3278 1631 3431 
Q 1906 3584 2284 3584 
Q 2666 3584 2933 3390 
Q 3200 3197 3328 2828 
z
" transform="scale(0.015625)"/>
       <path id="DejaVuSans-6e" d="M 3513 2113 
L 3513 0 
L 2938 0 
L 2938 2094 
Q 2938 2591 2744 2837 
Q 2550 3084 2163 3084 
Q 1697 3084 1428 2787 
Q 1159 2491 1159 1978 
L 1159 0 
L 581 0 
L 581 3500 
L 1159 3500 
L 1159 2956 
Q 1366 3272 1645 3428 
Q 1925 3584 2291 3584 
Q 2894 3584 3203 3211 
Q 3513 2838 3513 2113 
z
" transform="scale(0.015625)"/>
       <path id="DejaVuSans-74" d="M 1172 4494 
L 1172 3500 
L 2356 3500 
L 2356 3053 
L 1172 3053 
L 1172 1153 
Q 1172 725 1289 603 
Q 1406 481 1766 481 
L 2356 481 
L 2356 0 
L 1766 0 
Q 1100 0 847 248 
Q 594 497 594 1153 
L 594 3053 
L 172 3053 
L 172 3500 
L 594 3500 
L 594 4494 
L 1172 4494 
z
" transform="scale(0.015625)"/>
      </defs>
      <use xlink:href="#DejaVuSans-31"/>
      <use xlink:href="#DejaVuSans-30" x="63.623047"/>
      <use xlink:href="#DejaVuSans-73" x="127.246094"/>
      <use xlink:href="#DejaVuSans-20" x="179.345703"/>
      <use xlink:href="#DejaVuSans-73" x="211.132812"/>
      <use xlink:href="#DejaVuSans-65" x="263.232422"/>
      <use xlink:href="#DejaVuSans-67" x="324.755859"/>
      <use xlink:href="#DejaVuSans-6d" x="388.232422"/>
      <use xlink:href="#DejaVuSans-65" x="485.644531"/>
      <use xlink:href="#DejaVuSans-6e" x="547.167969"/>
      <use xlink:href="#DejaVuSans-74" x="610.546875"/>
     </g>
    </g>
   </g>
   <g id="matplotlib.axis_2">
    <g id="ytick_1">
     <g id="text_10">
      <!-- −10 -->
      <g style="fill: #262626" transform="translate(40.727266 107.545468) scale(0.165 -0.165)">
       <defs>
        <path id="DejaVuSans-2212" d="M 678 2272 
L 4684 2272 
L 4684 1741 
L 678 1741 
L 678 2272 
z
" transform="scale(0.015625)"/>
       </defs>
       <use xlink:href="#DejaVuSans-2212"/>
       <use xlink:href="#DejaVuSans-31" x="83.789062"/>
       <use xlink:href="#DejaVuSans-30" x="147.412109"/>
      </g>
     </g>
    </g>
    <g id="ytick_2">
     <g id="text_11">
      <!-- 0 -->
      <g style="fill: #262626" transform="translate(65.051875 49.638348) scale(0.165 -0.165)">
       <use xlink:href="#DejaVuSans-30"/>
      </g>
     </g>
    </g>
    <g id="text_12">
     <!-- Psi -->
     <g style="fill: #262626" transform="translate(32.983828 96.787969) rotate(-90) scale(0.18 -0.18)">
      <defs>
       <path id="DejaVuSans-50" d="M 1259 4147 
L 1259 2394 
L 2053 2394 
Q 2494 2394 2734 2622 
Q 2975 2850 2975 3272 
Q 2975 3691 2734 3919 
Q 2494 4147 2053 4147 
L 1259 4147 
z
M 628 4666 
L 2053 4666 
Q 2838 4666 3239 4311 
Q 3641 3956 3641 3272 
Q 3641 2581 3239 2228 
Q 2838 1875 2053 1875 
L 1259 1875 
L 1259 0 
L 628 0 
L 628 4666 
z
" transform="scale(0.015625)"/>
       <path id="DejaVuSans-69" d="M 603 3500 
L 1178 3500 
L 1178 0 
L 603 0 
L 603 3500 
z
M 603 4863 
L 1178 4863 
L 1178 4134 
L 603 4134 
L 603 4863 
z
" transform="scale(0.015625)"/>
      </defs>
      <use xlink:href="#DejaVuSans-50"/>
      <use xlink:href="#DejaVuSans-73" x="58.552734"/>
      <use xlink:href="#DejaVuSans-69" x="110.652344"/>
     </g>
    </g>
   </g>
   <g id="LineCollection_1">
    <path d="M 106.482273 65.173298 
L 106.482273 53.615872 
" clip-path="url(#pa825a86af2)" style="fill: none; stroke: #3d8af9; stroke-opacity: 0.7; stroke-width: 1.5"/>
    <path d="M 167.717338 60.655626 
L 167.717338 48.184857 
" clip-path="url(#pa825a86af2)" style="fill: none; stroke: #3d8af9; stroke-opacity: 0.7; stroke-width: 1.5"/>
    <path d="M 228.952403 51.542943 
L 228.952403 37.918517 
" clip-path="url(#pa825a86af2)" style="fill: none; stroke: #3d8af9; stroke-opacity: 0.7; stroke-width: 1.5"/>
    <path d="M 290.187468 61.555092 
L 290.187468 53.17086 
" clip-path="url(#pa825a86af2)" style="fill: none; stroke: #3d8af9; stroke-opacity: 0.7; stroke-width: 1.5"/>
    <path d="M 351.422532 60.961236 
L 351.422532 49.740873 
" clip-path="url(#pa825a86af2)" style="fill: none; stroke: #3d8af9; stroke-opacity: 0.7; stroke-width: 1.5"/>
    <path d="M 412.657597 50.289667 
L 412.657597 42.299235 
" clip-path="url(#pa825a86af2)" style="fill: none; stroke: #3d8af9; stroke-opacity: 0.7; stroke-width: 1.5"/>
    <path d="M 473.892662 46.963902 
L 473.892662 40.374503 
" clip-path="url(#pa825a86af2)" style="fill: none; stroke: #3d8af9; stroke-opacity: 0.7; stroke-width: 1.5"/>
    <path d="M 535.127727 37.949774 
L 535.127727 25.50613 
" clip-path="url(#pa825a86af2)" style="fill: none; stroke: #3d8af9; stroke-opacity: 0.7; stroke-width: 1.5"/>
   </g>
   <g id="line2d_1">
    <defs>
     <path id="m7406c07737" d="M 5 0 
L -5 -0 
" style="stroke: #3d8af9; stroke-opacity: 0.7"/>
    </defs>
    <g clip-path="url(#pa825a86af2)">
     <use xlink:href="#m7406c07737" x="106.482273" y="65.173298" style="fill: #3d8af9; fill-opacity: 0.7; stroke: #3d8af9; stroke-opacity: 0.7"/>
     <use xlink:href="#m7406c07737" x="167.717338" y="60.655626" style="fill: #3d8af9; fill-opacity: 0.7; stroke: #3d8af9; stroke-opacity: 0.7"/>
     <use xlink:href="#m7406c07737" x="228.952403" y="51.542943" style="fill: #3d8af9; fill-opacity: 0.7; stroke: #3d8af9; stroke-opacity: 0.7"/>
     <use xlink:href="#m7406c07737" x="290.187468" y="61.555092" style="fill: #3d8af9; fill-opacity: 0.7; stroke: #3d8af9; stroke-opacity: 0.7"/>
     <use xlink:href="#m7406c07737" x="351.422532" y="60.961236" style="fill: #3d8af9; fill-opacity: 0.7; stroke: #3d8af9; stroke-opacity: 0.7"/>
     <use xlink:href="#m7406c07737" x="412.657597" y="50.289667" style="fill: #3d8af9; fill-opacity: 0.7; stroke: #3d8af9; stroke-opacity: 0.7"/>
     <use xlink:href="#m7406c07737" x="473.892662" y="46.963902" style="fill: #3d8af9; fill-opacity: 0.7; stroke: #3d8af9; stroke-opacity: 0.7"/>
     <use xlink:href="#m7406c07737" x="535.127727" y="37.949774" style="fill: #3d8af9; fill-opacity: 0.7; stroke: #3d8af9; stroke-opacity: 0.7"/>
    </g>
   </g>
   <g id="line2d_2">
    <g clip-path="url(#pa825a86af2)">
     <use xlink:href="#m7406c07737" x="106.482273" y="53.615872" style="fill: #3d8af9; fill-opacity: 0.7; stroke: #3d8af9; stroke-opacity: 0.7"/>
     <use xlink:href="#m7406c07737" x="167.717338" y="48.184857" style="fill: #3d8af9; fill-opacity: 0.7; stroke: #3d8af9; stroke-opacity: 0.7"/>
     <use xlink:href="#m7406c07737" x="228.952403" y="37.918517" style="fill: #3d8af9; fill-opacity: 0.7; stroke: #3d8af9; stroke-opacity: 0.7"/>
     <use xlink:href="#m7406c07737" x="290.187468" y="53.17086" style="fill: #3d8af9; fill-opacity: 0.7; stroke: #3d8af9; stroke-opacity: 0.7"/>
     <use xlink:href="#m7406c07737" x="351.422532" y="49.740873" style="fill: #3d8af9; fill-opacity: 0.7; stroke: #3d8af9; stroke-opacity: 0.7"/>
     <use xlink:href="#m7406c07737" x="412.657597" y="42.299235" style="fill: #3d8af9; fill-opacity: 0.7; stroke: #3d8af9; stroke-opacity: 0.7"/>
     <use xlink:href="#m7406c07737" x="473.892662" y="40.374503" style="fill: #3d8af9; fill-opacity: 0.7; stroke: #3d8af9; stroke-opacity: 0.7"/>
     <use xlink:href="#m7406c07737" x="535.127727" y="25.50613" style="fill: #3d8af9; fill-opacity: 0.7; stroke: #3d8af9; stroke-opacity: 0.7"/>
    </g>
   </g>
   <g id="LineCollection_2">
    <path d="M 106.482273 58.170746 
L 106.482273 52.647183 
" clip-path="url(#pa825a86af2)" style="fill: none; stroke: #e6aa15; stroke-opacity: 0.7; stroke-width: 1.5"/>
    <path d="M 167.717338 67.539643 
L 167.717338 59.552959 
" clip-path="url(#pa825a86af2)" style="fill: none; stroke: #e6aa15; stroke-opacity: 0.7; stroke-width: 1.5"/>
    <path d="M 228.952403 107.302324 
L 228.952403 71.397954 
" clip-path="url(#pa825a86af2)" style="fill: none; stroke: #e6aa15; stroke-opacity: 0.7; stroke-width: 1.5"/>
    <path d="M 290.187468 143.320909 
L 290.187468 57.279573 
" clip-path="url(#pa825a86af2)" style="fill: none; stroke: #e6aa15; stroke-opacity: 0.7; stroke-width: 1.5"/>
    <path d="M 351.422532 109.553566 
L 351.422532 39.981868 
" clip-path="url(#pa825a86af2)" style="fill: none; stroke: #e6aa15; stroke-opacity: 0.7; stroke-width: 1.5"/>
    <path d="M 412.657597 38.438482 
L 412.657597 27.557184 
" clip-path="url(#pa825a86af2)" style="fill: none; stroke: #e6aa15; stroke-opacity: 0.7; stroke-width: 1.5"/>
    <path d="M 473.892662 36.929253 
L 473.892662 30.174233 
" clip-path="url(#pa825a86af2)" style="fill: none; stroke: #e6aa15; stroke-opacity: 0.7; stroke-width: 1.5"/>
    <path d="M 535.127727 31.760657 
L 535.127727 25.339091 
" clip-path="url(#pa825a86af2)" style="fill: none; stroke: #e6aa15; stroke-opacity: 0.7; stroke-width: 1.5"/>
   </g>
   <g id="line2d_3">
    <defs>
     <path id="md3c854a609" d="M 5 0 
L -5 -0 
" style="stroke: #e6aa15; stroke-opacity: 0.7"/>
    </defs>
    <g clip-path="url(#pa825a86af2)">
     <use xlink:href="#md3c854a609" x="106.482273" y="58.170746" style="fill: #e6aa15; fill-opacity: 0.7; stroke: #e6aa15; stroke-opacity: 0.7"/>
     <use xlink:href="#md3c854a609" x="167.717338" y="67.539643" style="fill: #e6aa15; fill-opacity: 0.7; stroke: #e6aa15; stroke-opacity: 0.7"/>
     <use xlink:href="#md3c854a609" x="228.952403" y="107.302324" style="fill: #e6aa15; fill-opacity: 0.7; stroke: #e6aa15; stroke-opacity: 0.7"/>
     <use xlink:href="#md3c854a609" x="290.187468" y="143.320909" style="fill: #e6aa15; fill-opacity: 0.7; stroke: #e6aa15; stroke-opacity: 0.7"/>
     <use xlink:href="#md3c854a609" x="351.422532" y="109.553566" style="fill: #e6aa15; fill-opacity: 0.7; stroke: #e6aa15; stroke-opacity: 0.7"/>
     <use xlink:href="#md3c854a609" x="412.657597" y="38.438482" style="fill: #e6aa15; fill-opacity: 0.7; stroke: #e6aa15; stroke-opacity: 0.7"/>
     <use xlink:href="#md3c854a609" x="473.892662" y="36.929253" style="fill: #e6aa15; fill-opacity: 0.7; stroke: #e6aa15; stroke-opacity: 0.7"/>
     <use xlink:href="#md3c854a609" x="535.127727" y="31.760657" style="fill: #e6aa15; fill-opacity: 0.7; stroke: #e6aa15; stroke-opacity: 0.7"/>
    </g>
   </g>
   <g id="line2d_4">
    <g clip-path="url(#pa825a86af2)">
     <use xlink:href="#md3c854a609" x="106.482273" y="52.647183" style="fill: #e6aa15; fill-opacity: 0.7; stroke: #e6aa15; stroke-opacity: 0.7"/>
     <use xlink:href="#md3c854a609" x="167.717338" y="59.552959" style="fill: #e6aa15; fill-opacity: 0.7; stroke: #e6aa15; stroke-opacity: 0.7"/>
     <use xlink:href="#md3c854a609" x="228.952403" y="71.397954" style="fill: #e6aa15; fill-opacity: 0.7; stroke: #e6aa15; stroke-opacity: 0.7"/>
     <use xlink:href="#md3c854a609" x="290.187468" y="57.279573" style="fill: #e6aa15; fill-opacity: 0.7; stroke: #e6aa15; stroke-opacity: 0.7"/>
     <use xlink:href="#md3c854a609" x="351.422532" y="39.981868" style="fill: #e6aa15; fill-opacity: 0.7; stroke: #e6aa15; stroke-opacity: 0.7"/>
     <use xlink:href="#md3c854a609" x="412.657597" y="27.557184" style="fill: #e6aa15; fill-opacity: 0.7; stroke: #e6aa15; stroke-opacity: 0.7"/>
     <use xlink:href="#md3c854a609" x="473.892662" y="30.174233" style="fill: #e6aa15; fill-opacity: 0.7; stroke: #e6aa15; stroke-opacity: 0.7"/>
     <use xlink:href="#md3c854a609" x="535.127727" y="25.339091" style="fill: #e6aa15; fill-opacity: 0.7; stroke: #e6aa15; stroke-opacity: 0.7"/>
    </g>
   </g>
   <g id="LineCollection_3">
    <path d="M 106.482273 103.78656 
L 106.482273 92.631334 
" clip-path="url(#pa825a86af2)" style="fill: none; stroke: #26262d; stroke-opacity: 0.7; stroke-width: 1.5"/>
    <path d="M 167.717338 78.031477 
L 167.717338 65.305444 
" clip-path="url(#pa825a86af2)" style="fill: none; stroke: #26262d; stroke-opacity: 0.7; stroke-width: 1.5"/>
    <path d="M 228.952403 59.178239 
L 228.952403 35.404091 
" clip-path="url(#pa825a86af2)" style="fill: none; stroke: #26262d; stroke-opacity: 0.7; stroke-width: 1.5"/>
    <path d="M 290.187468 49.294414 
L 290.187468 32.556637 
" clip-path="url(#pa825a86af2)" style="fill: none; stroke: #26262d; stroke-opacity: 0.7; stroke-width: 1.5"/>
    <path d="M 351.422532 85.637414 
L 351.422532 78.332822 
" clip-path="url(#pa825a86af2)" style="fill: none; stroke: #26262d; stroke-opacity: 0.7; stroke-width: 1.5"/>
    <path d="M 412.657597 58.46644 
L 412.657597 34.609861 
" clip-path="url(#pa825a86af2)" style="fill: none; stroke: #26262d; stroke-opacity: 0.7; stroke-width: 1.5"/>
    <path d="M 473.892662 42.734655 
L 473.892662 30.391453 
" clip-path="url(#pa825a86af2)" style="fill: none; stroke: #26262d; stroke-opacity: 0.7; stroke-width: 1.5"/>
    <path d="M 535.127727 30.209927 
L 535.127727 25.475956 
" clip-path="url(#pa825a86af2)" style="fill: none; stroke: #26262d; stroke-opacity: 0.7; stroke-width: 1.5"/>
   </g>
   <g id="line2d_5">
    <defs>
     <path id="md2b7463343" d="M 5 0 
L -5 -0 
" style="stroke: #26262d; stroke-opacity: 0.7"/>
    </defs>
    <g clip-path="url(#pa825a86af2)">
     <use xlink:href="#md2b7463343" x="106.482273" y="103.78656" style="fill: #26262d; fill-opacity: 0.7; stroke: #26262d; stroke-opacity: 0.7"/>
     <use xlink:href="#md2b7463343" x="167.717338" y="78.031477" style="fill: #26262d; fill-opacity: 0.7; stroke: #26262d; stroke-opacity: 0.7"/>
     <use xlink:href="#md2b7463343" x="228.952403" y="59.178239" style="fill: #26262d; fill-opacity: 0.7; stroke: #26262d; stroke-opacity: 0.7"/>
     <use xlink:href="#md2b7463343" x="290.187468" y="49.294414" style="fill: #26262d; fill-opacity: 0.7; stroke: #26262d; stroke-opacity: 0.7"/>
     <use xlink:href="#md2b7463343" x="351.422532" y="85.637414" style="fill: #26262d; fill-opacity: 0.7; stroke: #26262d; stroke-opacity: 0.7"/>
     <use xlink:href="#md2b7463343" x="412.657597" y="58.46644" style="fill: #26262d; fill-opacity: 0.7; stroke: #26262d; stroke-opacity: 0.7"/>
     <use xlink:href="#md2b7463343" x="473.892662" y="42.734655" style="fill: #26262d; fill-opacity: 0.7; stroke: #26262d; stroke-opacity: 0.7"/>
     <use xlink:href="#md2b7463343" x="535.127727" y="30.209927" style="fill: #26262d; fill-opacity: 0.7; stroke: #26262d; stroke-opacity: 0.7"/>
    </g>
   </g>
   <g id="line2d_6">
    <g clip-path="url(#pa825a86af2)">
     <use xlink:href="#md2b7463343" x="106.482273" y="92.631334" style="fill: #26262d; fill-opacity: 0.7; stroke: #26262d; stroke-opacity: 0.7"/>
     <use xlink:href="#md2b7463343" x="167.717338" y="65.305444" style="fill: #26262d; fill-opacity: 0.7; stroke: #26262d; stroke-opacity: 0.7"/>
     <use xlink:href="#md2b7463343" x="228.952403" y="35.404091" style="fill: #26262d; fill-opacity: 0.7; stroke: #26262d; stroke-opacity: 0.7"/>
     <use xlink:href="#md2b7463343" x="290.187468" y="32.556637" style="fill: #26262d; fill-opacity: 0.7; stroke: #26262d; stroke-opacity: 0.7"/>
     <use xlink:href="#md2b7463343" x="351.422532" y="78.332822" style="fill: #26262d; fill-opacity: 0.7; stroke: #26262d; stroke-opacity: 0.7"/>
     <use xlink:href="#md2b7463343" x="412.657597" y="34.609861" style="fill: #26262d; fill-opacity: 0.7; stroke: #26262d; stroke-opacity: 0.7"/>
     <use xlink:href="#md2b7463343" x="473.892662" y="30.391453" style="fill: #26262d; fill-opacity: 0.7; stroke: #26262d; stroke-opacity: 0.7"/>
     <use xlink:href="#md2b7463343" x="535.127727" y="25.475956" style="fill: #26262d; fill-opacity: 0.7; stroke: #26262d; stroke-opacity: 0.7"/>
    </g>
   </g>
   <g id="line2d_7">
    <path d="M 106.482273 59.394585 
L 167.717338 54.420242 
L 228.952403 44.73073 
L 290.187468 57.362976 
L 351.422532 55.351054 
L 412.657597 46.294451 
L 473.892662 43.669203 
L 535.127727 31.727952 
" clip-path="url(#pa825a86af2)" style="fill: none; stroke: #3d8af9; stroke-opacity: 0.7; stroke-width: 1.5; stroke-linecap: round"/>
    <defs>
     <path id="m0d265d9094" d="M 0 3 
C 0.795609 3 1.55874 2.683901 2.12132 2.12132 
C 2.683901 1.55874 3 0.795609 3 0 
C 3 -0.795609 2.683901 -1.55874 2.12132 -2.12132 
C 1.55874 -2.683901 0.795609 -3 0 -3 
C -0.795609 -3 -1.55874 -2.683901 -2.12132 -2.12132 
C -2.683901 -1.55874 -3 -0.795609 -3 0 
C -3 0.795609 -2.683901 1.55874 -2.12132 2.12132 
C -1.55874 2.683901 -0.795609 3 0 3 
z
" style="stroke: #3d8af9; stroke-opacity: 0.7"/>
    </defs>
    <g clip-path="url(#pa825a86af2)">
     <use xlink:href="#m0d265d9094" x="106.482273" y="59.394585" style="fill: #3d8af9; fill-opacity: 0.7; stroke: #3d8af9; stroke-opacity: 0.7"/>
     <use xlink:href="#m0d265d9094" x="167.717338" y="54.420242" style="fill: #3d8af9; fill-opacity: 0.7; stroke: #3d8af9; stroke-opacity: 0.7"/>
     <use xlink:href="#m0d265d9094" x="228.952403" y="44.73073" style="fill: #3d8af9; fill-opacity: 0.7; stroke: #3d8af9; stroke-opacity: 0.7"/>
     <use xlink:href="#m0d265d9094" x="290.187468" y="57.362976" style="fill: #3d8af9; fill-opacity: 0.7; stroke: #3d8af9; stroke-opacity: 0.7"/>
     <use xlink:href="#m0d265d9094" x="351.422532" y="55.351054" style="fill: #3d8af9; fill-opacity: 0.7; stroke: #3d8af9; stroke-opacity: 0.7"/>
     <use xlink:href="#m0d265d9094" x="412.657597" y="46.294451" style="fill: #3d8af9; fill-opacity: 0.7; stroke: #3d8af9; stroke-opacity: 0.7"/>
     <use xlink:href="#m0d265d9094" x="473.892662" y="43.669203" style="fill: #3d8af9; fill-opacity: 0.7; stroke: #3d8af9; stroke-opacity: 0.7"/>
     <use xlink:href="#m0d265d9094" x="535.127727" y="31.727952" style="fill: #3d8af9; fill-opacity: 0.7; stroke: #3d8af9; stroke-opacity: 0.7"/>
    </g>
   </g>
   <g id="line2d_8">
    <path d="M 106.482273 55.408964 
L 167.717338 63.546301 
L 228.952403 89.350139 
L 290.187468 100.300241 
L 351.422532 74.767717 
L 412.657597 32.997833 
L 473.892662 33.551743 
L 535.127727 28.549874 
" clip-path="url(#pa825a86af2)" style="fill: none; stroke: #e6aa15; stroke-opacity: 0.7; stroke-width: 1.5; stroke-linecap: round"/>
    <defs>
     <path id="m1ecfc23725" d="M 0 3 
C 0.795609 3 1.55874 2.683901 2.12132 2.12132 
C 2.683901 1.55874 3 0.795609 3 0 
C 3 -0.795609 2.683901 -1.55874 2.12132 -2.12132 
C 1.55874 -2.683901 0.795609 -3 0 -3 
C -0.795609 -3 -1.55874 -2.683901 -2.12132 -2.12132 
C -2.683901 -1.55874 -3 -0.795609 -3 0 
C -3 0.795609 -2.683901 1.55874 -2.12132 2.12132 
C -1.55874 2.683901 -0.795609 3 0 3 
z
" style="stroke: #e6aa15; stroke-opacity: 0.7"/>
    </defs>
    <g clip-path="url(#pa825a86af2)">
     <use xlink:href="#m1ecfc23725" x="106.482273" y="55.408964" style="fill: #e6aa15; fill-opacity: 0.7; stroke: #e6aa15; stroke-opacity: 0.7"/>
     <use xlink:href="#m1ecfc23725" x="167.717338" y="63.546301" style="fill: #e6aa15; fill-opacity: 0.7; stroke: #e6aa15; stroke-opacity: 0.7"/>
     <use xlink:href="#m1ecfc23725" x="228.952403" y="89.350139" style="fill: #e6aa15; fill-opacity: 0.7; stroke: #e6aa15; stroke-opacity: 0.7"/>
     <use xlink:href="#m1ecfc23725" x="290.187468" y="100.300241" style="fill: #e6aa15; fill-opacity: 0.7; stroke: #e6aa15; stroke-opacity: 0.7"/>
     <use xlink:href="#m1ecfc23725" x="351.422532" y="74.767717" style="fill: #e6aa15; fill-opacity: 0.7; stroke: #e6aa15; stroke-opacity: 0.7"/>
     <use xlink:href="#m1ecfc23725" x="412.657597" y="32.997833" style="fill: #e6aa15; fill-opacity: 0.7; stroke: #e6aa15; stroke-opacity: 0.7"/>
     <use xlink:href="#m1ecfc23725" x="473.892662" y="33.551743" style="fill: #e6aa15; fill-opacity: 0.7; stroke: #e6aa15; stroke-opacity: 0.7"/>
     <use xlink:href="#m1ecfc23725" x="535.127727" y="28.549874" style="fill: #e6aa15; fill-opacity: 0.7; stroke: #e6aa15; stroke-opacity: 0.7"/>
    </g>
   </g>
   <g id="line2d_9">
    <path d="M 106.482273 98.208947 
L 167.717338 71.66846 
L 228.952403 47.291165 
L 290.187468 40.925526 
L 351.422532 81.985118 
L 412.657597 46.538151 
L 473.892662 36.563054 
L 535.127727 27.842942 
" clip-path="url(#pa825a86af2)" style="fill: none; stroke: #26262d; stroke-opacity: 0.7; stroke-width: 1.5; stroke-linecap: round"/>
    <defs>
     <path id="maf10205b1d" d="M 0 3 
C 0.795609 3 1.55874 2.683901 2.12132 2.12132 
C 2.683901 1.55874 3 0.795609 3 0 
C 3 -0.795609 2.683901 -1.55874 2.12132 -2.12132 
C 1.55874 -2.683901 0.795609 -3 0 -3 
C -0.795609 -3 -1.55874 -2.683901 -2.12132 -2.12132 
C -2.683901 -1.55874 -3 -0.795609 -3 0 
C -3 0.795609 -2.683901 1.55874 -2.12132 2.12132 
C -1.55874 2.683901 -0.795609 3 0 3 
z
" style="stroke: #26262d; stroke-opacity: 0.7"/>
    </defs>
    <g clip-path="url(#pa825a86af2)">
     <use xlink:href="#maf10205b1d" x="106.482273" y="98.208947" style="fill: #26262d; fill-opacity: 0.7; stroke: #26262d; stroke-opacity: 0.7"/>
     <use xlink:href="#maf10205b1d" x="167.717338" y="71.66846" style="fill: #26262d; fill-opacity: 0.7; stroke: #26262d; stroke-opacity: 0.7"/>
     <use xlink:href="#maf10205b1d" x="228.952403" y="47.291165" style="fill: #26262d; fill-opacity: 0.7; stroke: #26262d; stroke-opacity: 0.7"/>
     <use xlink:href="#maf10205b1d" x="290.187468" y="40.925526" style="fill: #26262d; fill-opacity: 0.7; stroke: #26262d; stroke-opacity: 0.7"/>
     <use xlink:href="#maf10205b1d" x="351.422532" y="81.985118" style="fill: #26262d; fill-opacity: 0.7; stroke: #26262d; stroke-opacity: 0.7"/>
     <use xlink:href="#maf10205b1d" x="412.657597" y="46.538151" style="fill: #26262d; fill-opacity: 0.7; stroke: #26262d; stroke-opacity: 0.7"/>
     <use xlink:href="#maf10205b1d" x="473.892662" y="36.563054" style="fill: #26262d; fill-opacity: 0.7; stroke: #26262d; stroke-opacity: 0.7"/>
     <use xlink:href="#maf10205b1d" x="535.127727" y="27.842942" style="fill: #26262d; fill-opacity: 0.7; stroke: #26262d; stroke-opacity: 0.7"/>
    </g>
   </g>
   <g id="patch_3">
    <path d="M 85.05 149.22 
L 85.05 19.44 
" style="fill: none; stroke: #262626; stroke-width: 1.25; stroke-linejoin: miter; stroke-linecap: square"/>
   </g>
   <g id="patch_4">
    <path d="M 556.56 149.22 
L 556.56 19.44 
" style="fill: none; stroke: #262626; stroke-width: 1.25; stroke-linejoin: miter; stroke-linecap: square"/>
   </g>
   <g id="patch_5">
    <path d="M 85.05 149.22 
L 556.56 149.22 
" style="fill: none; stroke: #262626; stroke-width: 1.25; stroke-linejoin: miter; stroke-linecap: square"/>
   </g>
   <g id="patch_6">
    <path d="M 85.05 19.44 
L 556.56 19.44 
" style="fill: none; stroke: #262626; stroke-width: 1.25; stroke-linejoin: miter; stroke-linecap: square"/>
   </g>
   <g id="legend_1">
    <g id="patch_7">
     <path d="M 462.141328 140.97 
L 545.01 140.97 
Q 548.31 140.97 548.31 137.67 
L 548.31 65.286563 
Q 548.31 61.986562 545.01 61.986562 
L 462.141328 61.986562 
Q 458.841328 61.986562 458.841328 65.286563 
L 458.841328 137.67 
Q 458.841328 140.97 462.141328 140.97 
z
" style="fill: #ffffff; opacity: 0.8; stroke: #cccccc; stroke-linejoin: miter"/>
    </g>
    <g id="LineCollection_4">
     <path d="M 481.941328 83.598984 
L 481.941328 67.098984 
" style="fill: none; stroke: #3d8af9; stroke-opacity: 0.7; stroke-width: 1.5"/>
    </g>
    <g id="line2d_10">
     <g>
      <use xlink:href="#m7406c07737" x="481.941328" y="83.598984" style="fill: #3d8af9; fill-opacity: 0.7; stroke: #3d8af9; stroke-opacity: 0.7"/>
     </g>
    </g>
    <g id="line2d_11">
     <g>
      <use xlink:href="#m7406c07737" x="481.941328" y="67.098984" style="fill: #3d8af9; fill-opacity: 0.7; stroke: #3d8af9; stroke-opacity: 0.7"/>
     </g>
    </g>
    <g id="line2d_12">
     <path d="M 465.441328 75.348984 
L 498.441328 75.348984 
" style="fill: none; stroke: #3d8af9; stroke-opacity: 0.7; stroke-width: 1.5; stroke-linecap: round"/>
    </g>
    <g id="line2d_13">
     <g>
      <use xlink:href="#m0d265d9094" x="481.941328" y="75.348984" style="fill: #3d8af9; fill-opacity: 0.7; stroke: #3d8af9; stroke-opacity: 0.7"/>
     </g>
    </g>
    <g id="text_13">
     <!-- A_6 -->
     <g style="fill: #262626" transform="translate(511.641328 81.123984) scale(0.165 -0.165)">
      <defs>
       <path id="DejaVuSans-41" d="M 2188 4044 
L 1331 1722 
L 3047 1722 
L 2188 4044 
z
M 1831 4666 
L 2547 4666 
L 4325 0 
L 3669 0 
L 3244 1197 
L 1141 1197 
L 716 0 
L 50 0 
L 1831 4666 
z
" transform="scale(0.015625)"/>
       <path id="DejaVuSans-5f" d="M 3263 -1063 
L 3263 -1509 
L -63 -1509 
L -63 -1063 
L 3263 -1063 
z
" transform="scale(0.015625)"/>
      </defs>
      <use xlink:href="#DejaVuSans-41"/>
      <use xlink:href="#DejaVuSans-5f" x="68.408203"/>
      <use xlink:href="#DejaVuSans-36" x="118.408203"/>
     </g>
    </g>
    <g id="LineCollection_5">
     <path d="M 481.941328 108.276797 
L 481.941328 91.776797 
" style="fill: none; stroke: #e6aa15; stroke-opacity: 0.7; stroke-width: 1.5"/>
    </g>
    <g id="line2d_14">
     <g>
      <use xlink:href="#md3c854a609" x="481.941328" y="108.276797" style="fill: #e6aa15; fill-opacity: 0.7; stroke: #e6aa15; stroke-opacity: 0.7"/>
     </g>
    </g>
    <g id="line2d_15">
     <g>
      <use xlink:href="#md3c854a609" x="481.941328" y="91.776797" style="fill: #e6aa15; fill-opacity: 0.7; stroke: #e6aa15; stroke-opacity: 0.7"/>
     </g>
    </g>
    <g id="line2d_16">
     <path d="M 465.441328 100.026797 
L 498.441328 100.026797 
" style="fill: none; stroke: #e6aa15; stroke-opacity: 0.7; stroke-width: 1.5; stroke-linecap: round"/>
    </g>
    <g id="line2d_17">
     <g>
      <use xlink:href="#m1ecfc23725" x="481.941328" y="100.026797" style="fill: #e6aa15; fill-opacity: 0.7; stroke: #e6aa15; stroke-opacity: 0.7"/>
     </g>
    </g>
    <g id="text_14">
     <!-- B_1 -->
     <g style="fill: #262626" transform="translate(511.641328 105.801797) scale(0.165 -0.165)">
      <defs>
       <path id="DejaVuSans-42" d="M 1259 2228 
L 1259 519 
L 2272 519 
Q 2781 519 3026 730 
Q 3272 941 3272 1375 
Q 3272 1813 3026 2020 
Q 2781 2228 2272 2228 
L 1259 2228 
z
M 1259 4147 
L 1259 2741 
L 2194 2741 
Q 2656 2741 2882 2914 
Q 3109 3088 3109 3444 
Q 3109 3797 2882 3972 
Q 2656 4147 2194 4147 
L 1259 4147 
z
M 628 4666 
L 2241 4666 
Q 2963 4666 3353 4366 
Q 3744 4066 3744 3513 
Q 3744 3084 3544 2831 
Q 3344 2578 2956 2516 
Q 3422 2416 3680 2098 
Q 3938 1781 3938 1306 
Q 3938 681 3513 340 
Q 3088 0 2303 0 
L 628 0 
L 628 4666 
z
" transform="scale(0.015625)"/>
      </defs>
      <use xlink:href="#DejaVuSans-42"/>
      <use xlink:href="#DejaVuSans-5f" x="68.603516"/>
      <use xlink:href="#DejaVuSans-31" x="118.603516"/>
     </g>
    </g>
    <g id="LineCollection_6">
     <path d="M 481.941328 132.954609 
L 481.941328 116.454609 
" style="fill: none; stroke: #26262d; stroke-opacity: 0.7; stroke-width: 1.5"/>
    </g>
    <g id="line2d_18">
     <g>
      <use xlink:href="#md2b7463343" x="481.941328" y="132.954609" style="fill: #26262d; fill-opacity: 0.7; stroke: #26262d; stroke-opacity: 0.7"/>
     </g>
    </g>
    <g id="line2d_19">
     <g>
      <use xlink:href="#md2b7463343" x="481.941328" y="116.454609" style="fill: #26262d; fill-opacity: 0.7; stroke: #26262d; stroke-opacity: 0.7"/>
     </g>
    </g>
    <g id="line2d_20">
     <path d="M 465.441328 124.704609 
L 498.441328 124.704609 
" style="fill: none; stroke: #26262d; stroke-opacity: 0.7; stroke-width: 1.5; stroke-linecap: round"/>
    </g>
    <g id="line2d_21">
     <g>
      <use xlink:href="#maf10205b1d" x="481.941328" y="124.704609" style="fill: #26262d; fill-opacity: 0.7; stroke: #26262d; stroke-opacity: 0.7"/>
     </g>
    </g>
    <g id="text_15">
     <!-- B_9 -->
     <g style="fill: #262626" transform="translate(511.641328 130.479609) scale(0.165 -0.165)">
      <defs>
       <path id="DejaVuSans-39" d="M 703 97 
L 703 672 
Q 941 559 1184 500 
Q 1428 441 1663 441 
Q 2288 441 2617 861 
Q 2947 1281 2994 2138 
Q 2813 1869 2534 1725 
Q 2256 1581 1919 1581 
Q 1219 1581 811 2004 
Q 403 2428 403 3163 
Q 403 3881 828 4315 
Q 1253 4750 1959 4750 
Q 2769 4750 3195 4129 
Q 3622 3509 3622 2328 
Q 3622 1225 3098 567 
Q 2575 -91 1691 -91 
Q 1453 -91 1209 -44 
Q 966 3 703 97 
z
M 1959 2075 
Q 2384 2075 2632 2365 
Q 2881 2656 2881 3163 
Q 2881 3666 2632 3958 
Q 2384 4250 1959 4250 
Q 1534 4250 1286 3958 
Q 1038 3666 1038 3163 
Q 1038 2656 1286 2365 
Q 1534 2075 1959 2075 
z
" transform="scale(0.015625)"/>
      </defs>
      <use xlink:href="#DejaVuSans-42"/>
      <use xlink:href="#DejaVuSans-5f" x="68.603516"/>
      <use xlink:href="#DejaVuSans-39" x="118.603516"/>
     </g>
    </g>
   </g>
  </g>
 </g>
 <defs>
  <clipPath id="pa825a86af2">
   <rect x="85.05" y="19.44" width="471.51" height="129.78"/>
  </clipPath>
 </defs>
</svg>
